<?xml version="1.0" encoding="UTF-8" standalone="no"?>
<!-- Created with Inkscape (http://www.inkscape.org/) -->

<svg
   version="1.1"
   id="svg2"
   xml:space="preserve"
   width="294.53381"
   height="294.03708"
   viewBox="0 0 294.53381 294.03708"
   sodipodi:docname="logo.svg"
   inkscape:version="1.1 (c68e22c387, 2021-05-23)"
   inkscape:export-filename="C:\Users\aborr\Documents\GitHub\i-dati-che-vorrei\docs\images\preview.png"
   inkscape:export-xdpi="96"
   inkscape:export-ydpi="96"
   xmlns:inkscape="http://www.inkscape.org/namespaces/inkscape"
   xmlns:sodipodi="http://sodipodi.sourceforge.net/DTD/sodipodi-0.dtd"
   xmlns="http://www.w3.org/2000/svg"
   xmlns:svg="http://www.w3.org/2000/svg"><defs
     id="defs6"><clipPath
       clipPathUnits="userSpaceOnUse"
       id="clipPath20"><path
         d="M 0,251.314 H 368.948 V 0 H 0 Z"
         id="path18" /></clipPath></defs><sodipodi:namedview
     id="namedview4"
     pagecolor="#ffffff"
     bordercolor="#666666"
     borderopacity="1.0"
     inkscape:pageshadow="2"
     inkscape:pageopacity="0.0"
     inkscape:pagecheckerboard="0"
     showgrid="false"
     inkscape:zoom="0.79450123"
     inkscape:cx="190.05635"
     inkscape:cy="222.15195"
     inkscape:window-width="2560"
     inkscape:window-height="1009"
     inkscape:window-x="1912"
     inkscape:window-y="-8"
     inkscape:window-maximized="1"
     inkscape:current-layer="g8"
     inkscape:snap-page="true"
     fit-margin-top="0"
     fit-margin-left="0"
     fit-margin-right="0"
     fit-margin-bottom="0" /><g
     id="g8"
     inkscape:groupmode="layer"
     inkscape:label="DBC_Logo_B"
     transform="matrix(1.3333333,0,0,-1.3333333,-452.73309,168.60387)"><g
       id="g1269"
       transform="translate(32.757096,0.872121)"><g
         id="g10"
         transform="matrix(1.6162183,0,0,1.6162183,306.79273,79.990499)"><path
           d="m 0,0 56.971,-29.149 0.471,57.357 z"
           style="fill:#d8cd44;fill-opacity:1;fill-rule:nonzero;stroke:none"
           id="path12" /></g><path
         d="m 353.21328,-2.4476206 c 25.54271,0 46.24809,-20.7069894 46.24809,-46.2497004 0,-25.54272 -20.70538,-46.24971 -46.24809,-46.24971"
         style="fill:#dd5a3c;fill-opacity:1;fill-rule:nonzero;stroke:none;stroke-width:1.61622"
         id="path24" /><path
         d="M 521.42944,56.143359 V 102.31548 L 481.4442,125.40155 441.45896,102.31548 V 56.143359 L 481.4442,33.057297 Z"
         style="fill:#cc3232;fill-opacity:1;fill-rule:nonzero;stroke:none;stroke-width:1.61622"
         id="path28" /><path
         d="m 435.19369,-48.697001 c 0,25.542715 20.70861,46.2497034 46.2497,46.2497034 25.54433,0 46.24971,-20.7069884 46.24971,-46.2497034 0,-25.54433 -20.70538,-46.2497 -46.24971,-46.2497 -25.54109,0 -46.2497,20.70537 -46.2497,46.2497"
         style="fill:#50258e;fill-opacity:1;fill-rule:nonzero;stroke:none;stroke-width:1.61622"
         id="path32" /></g></g></svg>
