<?xml version="1.0" encoding="UTF-8" standalone="no"?>
<svg
   xmlns:dc="http://purl.org/dc/elements/1.1/"
   xmlns:cc="http://creativecommons.org/ns#"
   xmlns:rdf="http://www.w3.org/1999/02/22-rdf-syntax-ns#"
   xmlns:svg="http://www.w3.org/2000/svg"
   xmlns="http://www.w3.org/2000/svg"
   xmlns:sodipodi="http://sodipodi.sourceforge.net/DTD/sodipodi-0.dtd"
   xmlns:inkscape="http://www.inkscape.org/namespaces/inkscape"
   version="1.1"
   id="svg2"
   xml:space="preserve"
   width="2573.3333"
   height="1333.3333"
   viewBox="0 0 2573.3333 1333.3333"
   sodipodi:docname="DBC_2_1930x1000.svg"
   inkscape:version="1.0.1 (3bc2e813f5, 2020-09-07)"><metadata
     id="metadata8"><rdf:RDF><cc:Work
         rdf:about=""><dc:format>image/svg+xml</dc:format><dc:type
           rdf:resource="http://purl.org/dc/dcmitype/StillImage" /><dc:title></dc:title></cc:Work></rdf:RDF></metadata><defs
     id="defs6"><clipPath
       clipPathUnits="userSpaceOnUse"
       id="clipPath20"><path
         d="M 0,1000 H 1930 V 0 H 0 Z"
         id="path18" /></clipPath></defs><sodipodi:namedview
     pagecolor="#ffffff"
     bordercolor="#666666"
     borderopacity="1"
     objecttolerance="10"
     gridtolerance="10"
     guidetolerance="10"
     inkscape:pageopacity="0"
     inkscape:pageshadow="2"
     inkscape:window-width="2560"
     inkscape:window-height="1017"
     id="namedview4"
     showgrid="false"
     inkscape:zoom="0.47059587"
     inkscape:cx="457.3979"
     inkscape:cy="949.87799"
     inkscape:window-x="1912"
     inkscape:window-y="-8"
     inkscape:window-maximized="1"
     inkscape:current-layer="g10" /><g
     inkscape:groupmode="layer"
     id="layer1"
     inkscape:label="sfondo"
     sodipodi:insensitive="true"><path
       d="M 0,1333.3333 H 2573.3333 V 0 H 0 Z"
       style="fill:#1d1d1b;fill-opacity:1;fill-rule:nonzero;stroke:none;stroke-width:1.33333"
       id="path12" /></g><g
     id="g10"
     inkscape:groupmode="layer"
     inkscape:label="DBC_2_1930x1000"
     transform="matrix(1.3333333,0,0,-1.3333333,0,1333.3333)"><g
       id="g22"
       transform="translate(1110.2969,778.2358)"><path
         d="m 0,0 c -29.576,0 -53.553,23.976 -53.553,53.552 0,29.576 23.977,53.552 53.553,53.552 29.576,0 53.552,-23.976 53.552,-53.552 C 53.552,23.976 29.576,0 0,0"
         style="fill:#50258e;fill-opacity:1;fill-rule:nonzero;stroke:none"
         id="path24" /></g><g
       id="g26"
       transform="translate(981.4004,778.2358)"><path
         d="m 0,0 c -29.576,0 -53.552,23.976 -53.552,53.552 0,29.576 23.976,53.552 53.552,53.552 29.576,0 53.553,-23.976 53.553,-53.552 C 53.553,23.976 29.576,0 0,0"
         style="fill:#d8cd44;fill-opacity:1;fill-rule:nonzero;stroke:none"
         id="path28" /></g><g
       id="g30"
       transform="translate(1625.8672,778.2358)"><path
         d="m 0,0 c -29.576,0 -53.553,23.976 -53.553,53.552 0,29.576 23.977,53.552 53.553,53.552 29.576,0 53.552,-23.976 53.552,-53.552 C 53.552,23.976 29.576,0 0,0"
         style="fill:#d8cd44;fill-opacity:1;fill-rule:nonzero;stroke:none"
         id="path32" /></g><g
       id="g34"
       transform="translate(981.4004,752.9019)"><path
         d="m 0,0 c -29.576,0 -53.552,-23.976 -53.552,-53.552 0,-29.576 23.976,-53.552 53.552,-53.552 h 128.896 c 29.577,0 53.552,23.976 53.552,53.552 C 182.448,-23.976 158.473,0 128.896,0"
         style="fill:#d8cd44;fill-opacity:1;fill-rule:nonzero;stroke:none"
         id="path36" /></g><g
       id="g38"
       transform="translate(852.5049,645.7974)"><path
         d="m 0,0 c -29.576,0 -53.552,23.976 -53.552,53.552 0,29.576 23.976,53.552 53.552,53.552 29.576,0 53.552,-23.976 53.552,-53.552 C 53.552,23.976 29.576,0 0,0"
         style="fill:#cc3232;fill-opacity:1;fill-rule:nonzero;stroke:none"
         id="path40" /></g><g
       id="g42"
       transform="translate(723.6089,778.2358)"><path
         d="m 0,0 c -29.576,0 -53.552,23.976 -53.552,53.552 0,29.576 23.976,53.552 53.552,53.552 29.576,0 53.552,-23.976 53.552,-53.552 C 53.552,23.976 29.576,0 0,0"
         style="fill:#50258e;fill-opacity:1;fill-rule:nonzero;stroke:none"
         id="path44" /></g><g
       id="g46"
       transform="translate(723.6089,645.7974)"><path
         d="m 0,0 c -29.576,0 -53.552,23.976 -53.552,53.552 0,29.576 23.976,53.552 53.552,53.552 29.576,0 53.552,-23.976 53.552,-53.552 C 53.552,23.976 29.576,0 0,0"
         style="fill:#cc3232;fill-opacity:1;fill-rule:nonzero;stroke:none"
         id="path48" /></g><g
       id="g50"
       transform="translate(594.7134,645.7974)"><path
         d="m 0,0 c -29.576,0 -53.552,23.976 -53.552,53.552 0,29.576 23.976,53.552 53.552,53.552 29.576,0 53.552,-23.976 53.552,-53.552 C 53.552,23.976 29.576,0 0,0"
         style="fill:#dd5a3c;fill-opacity:1;fill-rule:nonzero;stroke:none"
         id="path52" /></g><g
       id="g54"
       transform="translate(1056.7441,305.8154)"><path
         d="M 0,0 C 0,29.576 23.977,53.552 53.553,53.552 83.129,53.552 107.104,29.576 107.104,0"
         style="fill:#cc3232;fill-opacity:1;fill-rule:nonzero;stroke:none"
         id="path56" /></g><g
       id="g58"
       transform="translate(1110.2969,119.8242)"><path
         d="m 0,0 c -29.576,0 -53.553,23.977 -53.553,53.553 0,29.576 23.977,53.551 53.553,53.551 29.576,0 53.552,-23.975 53.552,-53.551 C 53.552,23.977 29.576,0 0,0"
         style="fill:#50258e;fill-opacity:1;fill-rule:nonzero;stroke:none"
         id="path60" /></g><g
       id="g62"
       transform="translate(1239.1924,645.7974)"><path
         d="m 0,0 c -29.576,0 -53.552,23.976 -53.552,53.552 0,29.576 23.976,53.552 53.552,53.552 29.576,0 53.553,-23.976 53.553,-53.552 C 53.553,23.976 29.576,0 0,0"
         style="fill:#50258e;fill-opacity:1;fill-rule:nonzero;stroke:none"
         id="path64" /></g><g
       id="g66"
       transform="translate(1239.1924,252.2627)"><path
         d="m 0,0 c -29.576,0 -53.552,23.977 -53.552,53.553 0,29.576 23.976,53.551 53.552,53.551 29.576,0 53.553,-23.975 53.553,-53.551 C 53.553,23.977 29.576,0 0,0"
         style="fill:#cc3232;fill-opacity:1;fill-rule:nonzero;stroke:none"
         id="path68" /></g><g
       id="g70"
       transform="translate(1498.0234,384.0508)"><path
         d="m 0,0 c -29.576,0 -53.552,23.977 -53.552,53.553 0,29.576 23.976,53.551 53.552,53.551 29.576,0 53.552,-23.975 53.552,-53.551 C 53.552,23.977 29.576,0 0,0"
         style="fill:#cc3232;fill-opacity:1;fill-rule:nonzero;stroke:none"
         id="path72" /></g><g
       id="g74"
       transform="translate(1239.1924,119.8242)"><path
         d="m 0,0 c -29.576,0 -53.552,23.977 -53.552,53.553 0,29.576 23.976,53.551 53.552,53.551 29.576,0 53.553,-23.975 53.553,-53.551 C 53.553,23.977 29.576,0 0,0"
         style="fill:#d8cd44;fill-opacity:1;fill-rule:nonzero;stroke:none"
         id="path76" /></g><g
       id="g78"
       transform="translate(594.4194,778.2358)"><path
         d="m 0,0 c -29.576,0 -53.552,23.976 -53.552,53.552 0,29.576 23.976,53.552 53.552,53.552 29.576,0 53.552,-23.976 53.552,-53.552 C 53.552,23.976 29.576,0 0,0"
         style="fill:#d8cd44;fill-opacity:1;fill-rule:nonzero;stroke:none"
         id="path80" /></g><g
       id="g82"
       transform="translate(981.4004,252.2627)"><path
         d="m 0,0 c -29.576,0 -53.552,23.977 -53.552,53.553 0,29.576 23.976,53.551 53.552,53.551 29.576,0 53.553,-23.975 53.553,-53.551 C 53.553,23.977 29.576,0 0,0"
         style="fill:#d8cd44;fill-opacity:1;fill-rule:nonzero;stroke:none"
         id="path84" /></g><g
       id="g86"
       transform="translate(852.5049,252.2627)"><path
         d="m 0,0 c -29.576,0 -53.552,23.977 -53.552,53.553 0,29.576 23.976,53.551 53.552,53.551 29.576,0 53.552,-23.975 53.552,-53.551 C 53.552,23.977 29.576,0 0,0"
         style="fill:#50258e;fill-opacity:1;fill-rule:nonzero;stroke:none"
         id="path88" /></g><g
       id="g90"
       transform="translate(852.5049,119.8242)"><path
         d="m 0,0 c -29.576,0 -53.552,23.977 -53.552,53.553 0,29.576 23.976,53.551 53.552,53.551 29.576,0 53.552,-23.975 53.552,-53.551 C 53.552,23.977 29.576,0 0,0"
         style="fill:#cc3232;fill-opacity:1;fill-rule:nonzero;stroke:none"
         id="path92" /></g><g
       id="g94"
       transform="translate(670.0571,173.377)"><path
         d="m 0,0 c 0,-29.576 23.976,-53.553 53.552,-53.553 29.576,0 53.552,23.977 53.552,53.553 v 132.438 c 0,29.577 -23.976,53.552 -53.552,53.552 C 23.976,185.99 0,162.015 0,132.438"
         style="fill:#cc3232;fill-opacity:1;fill-rule:nonzero;stroke:none"
         id="path96" /></g><g
       id="g98"
       transform="translate(594.7134,514.0693)"><path
         d="m 0,0 c -29.576,0 -53.552,23.976 -53.552,53.552 0,29.576 23.976,53.552 53.552,53.552 29.576,0 53.552,-23.976 53.552,-53.552 C 53.552,23.976 29.576,0 0,0"
         style="fill:#dd5a3c;fill-opacity:1;fill-rule:nonzero;stroke:none"
         id="path100" /></g><g
       id="g102"
       transform="translate(594.7134,252.2627)"><path
         d="m 0,0 c -29.576,0 -53.552,23.977 -53.552,53.553 0,29.576 23.976,53.551 53.552,53.551 29.576,0 53.552,-23.975 53.552,-53.551 C 53.552,23.977 29.576,0 0,0"
         style="fill:#dd5a3c;fill-opacity:1;fill-rule:nonzero;stroke:none"
         id="path104" /></g><g
       id="g106"
       transform="translate(594.7134,119.8242)"><path
         d="m 0,0 c -29.576,0 -53.552,23.977 -53.552,53.553 0,29.576 23.976,53.551 53.552,53.551 29.576,0 53.552,-23.975 53.552,-53.551 C 53.552,23.977 29.576,0 0,0"
         style="fill:#50258e;fill-opacity:1;fill-rule:nonzero;stroke:none"
         id="path108" /></g><g
       id="g168"
       transform="translate(783.9346,526.2041)"><path
         d="m 0,0 v -11.135 h -45.104 v 66.052 h 12.172 V 0 Z"
         style="fill:#ffffff;fill-opacity:1;fill-rule:nonzero;stroke:none"
         id="path170" /></g><path
       d="m 793.655,562.25 h 12.078 v -47.181 h -12.078 z m -1.415,13.305 c 0,4.151 3.491,7.359 7.454,7.359 3.964,0 7.266,-3.208 7.266,-7.359 0,-3.869 -3.302,-7.266 -7.266,-7.266 -3.963,0 -7.454,3.397 -7.454,7.266"
       style="fill:#ffffff;fill-opacity:1;fill-rule:nonzero;stroke:none"
       id="path172" /><g
       id="g174"
       transform="translate(853.9521,538.7539)"><path
         d="m 0,0 c 0,8.304 -4.812,13.965 -11.984,13.965 -7.171,0 -11.795,-5.661 -11.795,-13.965 0,-8.492 4.624,-14.154 11.795,-14.154 C -4.812,-14.154 0,-8.492 0,0 m 12.078,0 c 0,-15.004 -9.53,-24.628 -22.175,-24.628 -7.36,0 -11.795,3.491 -14.059,6.511 h -0.85 l -1.038,-5.568 h -9.813 v 66.997 h 12.078 V 19.061 c 2.548,2.831 7.265,5.378 13.682,5.378 12.362,0 22.175,-9.058 22.175,-24.439"
         style="fill:#ffffff;fill-opacity:1;fill-rule:nonzero;stroke:none"
         id="path176" /></g><g
       id="g178"
       transform="translate(886.6982,543.5664)"><path
         d="M 0,0 H 22.552 C 22.269,5.85 17.928,10.002 11.7,10.002 5.189,10.002 0.849,5.661 0,0 m 34.158,-13.588 c -1.887,-9.72 -10.002,-15.852 -21.986,-15.852 -14.06,0 -24.25,9.53 -24.25,24.061 0,15.569 10.757,25.006 23.778,25.006 11.607,0 22.363,-7.36 22.363,-24.251 0,-1.132 -0.093,-2.17 -0.188,-3.491 h -33.97 c 0.472,-6.794 4.907,-11.701 12.267,-11.701 5.284,0 9.058,2.17 10.38,6.228 z"
         style="fill:#ffffff;fill-opacity:1;fill-rule:nonzero;stroke:none"
         id="path180" /></g><g
       id="g182"
       transform="translate(931.8047,562.25)"><path
         d="m 0,0 h 10.946 l 1.132,-6.7 h 0.755 c 2.926,4.718 6.134,7.643 14.061,7.643 h 3.396 v -12.078 c -1.698,0.283 -3.396,0.377 -5.096,0.377 -10.379,0 -13.116,-7.642 -13.116,-14.436 V -47.181 H 0 Z"
         style="fill:#ffffff;fill-opacity:1;fill-rule:nonzero;stroke:none"
         id="path184" /></g><path
       d="m 970.306,562.25 h 12.078 v -47.181 h -12.078 z m -1.415,13.305 c 0,4.151 3.491,7.359 7.454,7.359 3.964,0 7.265,-3.208 7.265,-7.359 0,-3.869 -3.301,-7.266 -7.265,-7.266 -3.963,0 -7.454,3.397 -7.454,7.266"
       style="fill:#ffffff;fill-opacity:1;fill-rule:nonzero;stroke:none"
       id="path186" /><g
       id="g188"
       transform="translate(1023.2422,535.5459)"><path
         d="m 0,0 -10.568,-1.133 c -4.341,-0.471 -7.643,-2.264 -7.643,-5.944 0,-3.775 2.925,-5.096 6.699,-5.096 5.096,0 11.512,2.453 11.512,9.908 z m 16.607,-11.418 v -9.059 h -5.094 c -4.436,0 -7.927,1.322 -9.532,5.662 -3.208,-4.057 -8.114,-6.605 -15.569,-6.605 -9.624,0 -16.701,4.529 -16.701,13.871 0,9.059 6.888,13.493 15.569,14.343 L 0,8.304 v 1.981 c 0,5.19 -3.303,7.737 -7.926,7.737 -5.095,0 -7.737,-2.831 -8.493,-7.077 h -12.078 c 0.944,9.814 8.493,16.702 20.571,16.702 11.04,0 20.004,-5.567 20.004,-18.211 V -7.832 c 0,-2.454 1.133,-3.586 3.398,-3.586 z"
         style="fill:#ffffff;fill-opacity:1;fill-rule:nonzero;stroke:none"
         id="path190" /></g><g
       id="g192"
       transform="translate(1048.8154,562.25)"><path
         d="m 0,0 h 11.041 l 1.037,-5.567 h 0.755 c 2.548,3.491 6.511,6.51 12.928,6.51 7.454,0 10.757,-4.057 12.361,-7.455 h 0.755 c 2.548,3.681 6.699,7.455 14.72,7.455 9.719,0 15.947,-5.85 15.947,-17.268 V -47.181 H 57.466 v 28.591 c 0,6.039 -3.586,9.059 -8.115,9.059 -5.095,0 -8.587,-3.775 -8.587,-9.719 V -47.181 H 28.686 v 28.214 c 0,6.228 -3.492,9.436 -8.021,9.436 -4.341,0 -8.587,-3.114 -8.587,-9.624 V -47.181 H 0 Z"
         style="fill:#ffffff;fill-opacity:1;fill-rule:nonzero;stroke:none"
         id="path194" /></g><g
       id="g196"
       transform="translate(1166.4863,538.7539)"><path
         d="M 0,0 C 0,7.832 -5.189,13.965 -12.927,13.965 -20.665,13.965 -25.76,7.832 -25.76,0 c 0,-7.927 5.095,-14.154 12.833,-14.154 C -5.095,-14.154 0,-7.927 0,0 m -37.838,0 c 0,14.531 10.757,24.439 24.911,24.439 14.154,0 24.911,-10.001 24.911,-24.439 0,-14.626 -10.663,-24.628 -24.911,-24.628 -14.06,0 -24.911,10.097 -24.911,24.628"
         style="fill:#ffffff;fill-opacity:1;fill-rule:nonzero;stroke:none"
         id="path198" /></g><path
       d="m 1189.135,582.065 h 12.078 v -66.996 h -12.078 z"
       style="fill:#ffffff;fill-opacity:1;fill-rule:nonzero;stroke:none"
       id="path200" /><path
       d="m 1213.573,562.25 h 12.078 v -47.181 h -12.078 z m -1.415,13.305 c 0,4.151 3.491,7.359 7.454,7.359 3.964,0 7.266,-3.208 7.266,-7.359 0,-3.869 -3.302,-7.266 -7.266,-7.266 -3.963,0 -7.454,3.397 -7.454,7.266"
       style="fill:#ffffff;fill-opacity:1;fill-rule:nonzero;stroke:none"
       id="path202" /><g
       id="g204"
       transform="translate(743.9258,433.9902)"><path
         d="m 0,0 v 24.816 h -10.097 v 9.532 h 3.208 c 5.756,0 8.021,2.075 8.021,7.171 V 47.18 H 12.078 V 34.348 H 24.439 V 24.816 H 12.078 V 1.604 c 0,-2.642 0.66,-5.85 6.322,-5.85 1.415,0 3.208,0.283 4.623,0.66 v -9.152 C 20.948,-13.211 18.117,-13.776 14.72,-13.776 1.51,-13.776 0,-5.189 0,0"
         style="fill:#ffffff;fill-opacity:1;fill-rule:nonzero;stroke:none"
         id="path206" /></g><g
       id="g208"
       transform="translate(822.3398,421.1572)"><path
         d="m 0,0 h -11.04 l -1.038,5.567 h -0.755 c -2.831,-3.679 -6.794,-6.51 -13.871,-6.51 -11.229,0 -18.4,7.171 -18.4,19.532 v 28.592 h 12.078 V 21.042 c 0,-7.737 4.435,-11.512 10.191,-11.512 5.661,0 10.757,3.68 10.757,12.078 V 47.181 H 0 Z"
         style="fill:#ffffff;fill-opacity:1;fill-rule:nonzero;stroke:none"
         id="path210" /></g><g
       id="g212"
       transform="translate(840.7432,433.9902)"><path
         d="m 0,0 v 24.816 h -10.097 v 9.532 h 3.208 c 5.756,0 8.021,2.075 8.021,7.171 V 47.18 H 12.078 V 34.348 H 24.439 V 24.816 H 12.078 V 1.604 c 0,-2.642 0.66,-5.85 6.322,-5.85 1.415,0 3.208,0.283 4.623,0.66 v -9.152 C 20.948,-13.211 18.117,-13.776 14.72,-13.776 1.51,-13.776 0,-5.189 0,0"
         style="fill:#ffffff;fill-opacity:1;fill-rule:nonzero;stroke:none"
         id="path214" /></g><g
       id="g216"
       transform="translate(881.5078,433.9902)"><path
         d="m 0,0 v 24.816 h -10.097 v 9.532 h 3.208 c 5.756,0 8.021,2.075 8.021,7.171 V 47.18 H 12.078 V 34.348 H 24.439 V 24.816 H 12.078 V 1.604 c 0,-2.642 0.66,-5.85 6.322,-5.85 1.415,0 3.208,0.283 4.623,0.66 v -9.152 C 20.948,-13.211 18.117,-13.776 14.72,-13.776 1.51,-13.776 0,-5.189 0,0"
         style="fill:#ffffff;fill-opacity:1;fill-rule:nonzero;stroke:none"
         id="path218" /></g><path
       d="m 915.101,468.338 h 12.078 v -47.181 h -12.078 z m -1.415,13.305 c 0,4.151 3.491,7.359 7.454,7.359 3.964,0 7.265,-3.208 7.265,-7.359 0,-3.87 -3.301,-7.266 -7.265,-7.266 -3.963,0 -7.454,3.396 -7.454,7.266"
       style="fill:#ffffff;fill-opacity:1;fill-rule:nonzero;stroke:none"
       id="path220" /><g
       id="g222"
       transform="translate(853.3857,886.1025)"><path
         d="m 0,0 -54.551,-106.615 107.34,-0.883 z"
         style="fill:#dd5a3c;fill-opacity:1;fill-rule:nonzero;stroke:none"
         id="path224" /></g><g
       id="g226"
       transform="translate(593.8325,381.707)"><path
         d="m 0,0 54.551,106.615 -107.34,0.883 z"
         style="fill:#cc3232;fill-opacity:1;fill-rule:nonzero;stroke:none"
         id="path228" /></g><g
       id="g230"
       transform="translate(202.0635,645.7974)"><path
         d="m 0,0 c -29.576,0 -53.552,23.976 -53.552,53.552 0,29.576 23.976,53.552 53.552,53.552 29.576,0 53.552,-23.976 53.552,-53.552 C 53.552,23.976 29.576,0 0,0"
         style="fill:#dd5a3c;fill-opacity:1;fill-rule:nonzero;stroke:none"
         id="path232" /></g><g
       id="g234"
       transform="translate(201.77,778.2358)"><path
         d="m 0,0 c -29.576,0 -53.552,23.976 -53.552,53.552 0,29.576 23.976,53.552 53.552,53.552 29.576,0 53.552,-23.976 53.552,-53.552 C 53.552,23.976 29.576,0 0,0"
         style="fill:#d8cd44;fill-opacity:1;fill-rule:nonzero;stroke:none"
         id="path236" /></g><g
       id="g238"
       transform="translate(202.0635,514.0693)"><path
         d="m 0,0 c -29.576,0 -53.552,23.976 -53.552,53.552 0,29.576 23.976,53.552 53.552,53.552 29.576,0 53.552,-23.976 53.552,-53.552 C 53.552,23.976 29.576,0 0,0"
         style="fill:#50258e;fill-opacity:1;fill-rule:nonzero;stroke:none"
         id="path240" /></g><g
       id="g242"
       transform="translate(202.0635,252.2627)"><path
         d="m 0,0 c -29.576,0 -53.552,23.977 -53.552,53.553 0,29.576 23.976,53.551 53.552,53.551 29.576,0 53.552,-23.975 53.552,-53.551 C 53.552,23.977 29.576,0 0,0"
         style="fill:#dd5a3c;fill-opacity:1;fill-rule:nonzero;stroke:none"
         id="path244" /></g><g
       id="g246"
       transform="translate(255.8125,429.1826)"><path
         d="m 0,0 -106.615,54.551 -0.883,-107.34 z"
         style="fill:#cc3232;fill-opacity:1;fill-rule:nonzero;stroke:none"
         id="path248" /></g><g
       id="g250"
       transform="translate(1757.29,359.3672)"><path
         d="m 0,0 c 29.576,0 53.552,-23.976 53.552,-53.552 0,-29.576 -23.976,-53.552 -53.552,-53.552 -29.576,0 -53.552,23.976 -53.552,53.552 C -53.552,-23.976 -29.576,0 0,0"
         style="fill:#dd5a3c;fill-opacity:1;fill-rule:nonzero;stroke:none"
         id="path252" /></g><g
       id="g254"
       transform="translate(1704.0313,173.377)"><path
         d="M 0,0 C 0,29.576 23.977,53.552 53.553,53.552 83.129,53.552 107.104,29.576 107.104,0"
         style="fill:#d8cd44;fill-opacity:1;fill-rule:nonzero;stroke:none"
         id="path256" /></g><g
       id="g258"
       transform="translate(1757.29,491.0957)"><path
         d="m 0,0 c 29.576,0 53.552,-23.977 53.552,-53.553 0,-29.576 -23.976,-53.551 -53.552,-53.551 -29.576,0 -53.552,23.975 -53.552,53.551 C -53.552,-23.977 -29.576,0 0,0"
         style="fill:#dd5a3c;fill-opacity:1;fill-rule:nonzero;stroke:none"
         id="path260" /></g><g
       id="g262"
       transform="translate(1757.29,752.9019)"><path
         d="m 0,0 c 29.576,0 53.552,-23.976 53.552,-53.552 0,-29.576 -23.976,-53.552 -53.552,-53.552 -29.576,0 -53.552,23.976 -53.552,53.552 C -53.552,-23.976 -29.576,0 0,0"
         style="fill:#dd5a3c;fill-opacity:1;fill-rule:nonzero;stroke:none"
         id="path264" /></g><g
       id="g266"
       transform="translate(1757.29,885.3403)"><path
         d="m 0,0 c 29.576,0 53.552,-23.976 53.552,-53.552 0,-29.576 -23.976,-53.552 -53.552,-53.552 -29.576,0 -53.552,23.976 -53.552,53.552 C -53.552,-23.976 -29.576,0 0,0"
         style="fill:#50258e;fill-opacity:1;fill-rule:nonzero;stroke:none"
         id="path268" /></g><g
       id="g270"
       transform="translate(1422.5732,700.9238)"><path
         d="M 0,0 -106.615,-54.551 -107.498,52.79 Z"
         style="fill:#d8cd44;fill-opacity:1;fill-rule:nonzero;stroke:none"
         id="path272" /></g><g
       id="g274"
       transform="translate(1624.9863,489.2051)"><path
         d="m 0,0 54.551,-106.614 -107.34,-0.884 z"
         style="fill:#d8cd44;fill-opacity:1;fill-rule:nonzero;stroke:none"
         id="path276" /></g><g
       id="g278"
       transform="translate(1499.4561,778.2358)"><path
         d="m 0,0 c -29.576,0 -53.553,23.976 -53.553,53.552 0,29.576 23.977,53.552 53.553,53.552"
         style="fill:#50258e;fill-opacity:1;fill-rule:nonzero;stroke:none"
         id="path280" /></g><g
       id="g282"
       transform="translate(1499.4561,645.7974)"><path
         d="m 0,0 c -29.576,0 -53.553,23.976 -53.553,53.552 0,29.576 23.977,53.552 53.553,53.552 29.575,0 53.552,-23.976 53.552,-53.552 C 53.552,23.976 29.575,0 0,0"
         style="fill:#dd5a3c;fill-opacity:1;fill-rule:nonzero;stroke:none"
         id="path284" /></g><g
       id="g286"
       transform="translate(1499.4561,119.8242)"><path
         d="m 0,0 c -29.576,0 -53.553,23.977 -53.553,53.553 0,29.576 23.977,53.551 53.553,53.551 29.575,0 53.552,-23.975 53.552,-53.551 C 53.552,23.977 29.575,0 0,0"
         style="fill:#50258e;fill-opacity:1;fill-rule:nonzero;stroke:none"
         id="path288" /></g><g
       id="g290"
       transform="translate(1545.7041,540.627)"><path
         d="M 0,0 V 53.462 L -46.3,80.193 -92.599,53.462 V 0 L -46.3,-26.731 Z"
         style="fill:#dd5a3c;fill-opacity:1;fill-rule:nonzero;stroke:none"
         id="path292" /></g><g
       id="g294"
       transform="translate(1625.8672,645.7974)"><path
         d="m 0,0 c -29.576,0 -53.553,23.976 -53.553,53.552 0,29.576 23.977,53.552 53.553,53.552 29.576,0 53.552,-23.976 53.552,-53.552 C 53.552,23.976 29.576,0 0,0"
         style="fill:#50258e;fill-opacity:1;fill-rule:nonzero;stroke:none"
         id="path296" /></g><g
       id="g298"
       transform="translate(1625.8672,514.0693)"><path
         d="m 0,0 c -29.576,0 -53.553,23.976 -53.553,53.552 0,29.576 23.977,53.552 53.553,53.552 29.576,0 53.552,-23.976 53.552,-53.552 C 53.552,23.976 29.576,0 0,0"
         style="fill:#50258e;fill-opacity:1;fill-rule:nonzero;stroke:none"
         id="path300" /></g><g
       id="g302"
       transform="translate(1625.8672,252.2627)"><path
         d="m 0,0 c 29.576,0 53.552,23.977 53.552,53.553 0,29.576 -23.976,53.551 -53.552,53.551 h -126.411 c -29.576,0 -53.553,-23.975 -53.553,-53.551 0,-29.576 23.977,-53.553 53.553,-53.553"
         style="fill:#dd5a3c;fill-opacity:1;fill-rule:nonzero;stroke:none"
         id="path304" /></g><g
       id="g306"
       transform="translate(1625.8672,119.8242)"><path
         d="m 0,0 c -29.576,0 -53.553,23.977 -53.553,53.553 0,29.576 23.977,53.551 53.553,53.551 29.576,0 53.552,-23.975 53.552,-53.551 C 53.552,23.977 29.576,0 0,0"
         style="fill:#50258e;fill-opacity:1;fill-rule:nonzero;stroke:none"
         id="path308" /></g><g
       id="g310"
       transform="translate(1027.7002,146.9844)"><path
         d="M 0,0 V 53.462 L -46.3,80.193 -92.599,53.462 V 0 L -46.3,-26.731 Z"
         style="fill:#50258e;fill-opacity:1;fill-rule:nonzero;stroke:none"
         id="path312" /></g><g
       id="g314"
       transform="translate(1369.2979,778.5742)"><path
         d="m 0,0 c -29.576,0 -53.553,23.976 -53.553,53.552 0,29.576 23.977,53.552 53.553,53.552 29.576,0 53.552,-23.976 53.552,-53.552 C 53.552,23.976 29.576,0 0,0"
         style="fill:#cc3232;fill-opacity:1;fill-rule:nonzero;stroke:none"
         id="path316" /></g><g
       id="g318"
       transform="translate(1315.7451,435.8213)"><path
         d="m 0,0 c 0,-29.575 23.977,-53.552 53.553,-53.552 29.576,0 53.551,23.977 53.551,53.552 v 132.139 c 0,29.576 -23.975,53.552 -53.551,53.552 C 23.977,185.691 0,161.715 0,132.139"
         style="fill:#50258e;fill-opacity:1;fill-rule:nonzero;stroke:none"
         id="path320" /></g><g
       id="g322"
       transform="translate(1369.2979,252.6016)"><path
         d="m 0,0 c -29.576,0 -53.553,23.976 -53.553,53.552 0,29.576 23.977,53.552 53.553,53.552 29.576,0 53.552,-23.976 53.552,-53.552 C 53.552,23.976 29.576,0 0,0"
         style="fill:#50258e;fill-opacity:1;fill-rule:nonzero;stroke:none"
         id="path324" /></g><g
       id="g326"
       transform="translate(1422.8496,173.7148)"><path
         d="m 0,0 c 0,-29.576 -23.976,-53.552 -53.552,-53.552 -29.576,0 -53.552,23.976 -53.552,53.552"
         style="fill:#dd5a3c;fill-opacity:1;fill-rule:nonzero;stroke:none"
         id="path328" /></g><g
       id="g330"
       transform="translate(278.3276,700.9238)"><path
         d="M 0,0 106.615,-54.551 107.498,52.79 Z"
         style="fill:#dd5a3c;fill-opacity:1;fill-rule:nonzero;stroke:none"
         id="path332" /></g><g
       id="g334"
       transform="translate(517.2603,831.7881)"><path
         d="m 0,0 c 0,-29.576 -23.976,-53.552 -53.552,-53.552 -29.576,0 -53.552,23.976 -53.552,53.552"
         style="fill:#50258e;fill-opacity:1;fill-rule:nonzero;stroke:none"
         id="path336" /></g><g
       id="g338"
       transform="translate(463.708,381.9043)"><path
         d="m 0,0 c -29.576,0 -53.552,23.976 -53.552,53.552 0,29.576 23.976,53.552 53.552,53.552 29.576,0 53.552,-23.976 53.552,-53.552 C 53.552,23.976 29.576,0 0,0"
         style="fill:#cc3232;fill-opacity:1;fill-rule:nonzero;stroke:none"
         id="path340" /></g><g
       id="g342"
       transform="translate(463.708,514.0693)"><path
         d="m 0,0 c -29.576,0 -53.552,23.976 -53.552,53.552 0,29.576 23.976,53.552 53.552,53.552 29.576,0 53.552,-23.976 53.552,-53.552 C 53.552,23.976 29.576,0 0,0"
         style="fill:#d8cd44;fill-opacity:1;fill-rule:nonzero;stroke:none"
         id="path344" /></g><g
       id="g346"
       transform="translate(463.708,359.3672)"><path
         d="M 0,0 C 29.576,0 53.552,-23.976 53.552,-53.552 53.552,-83.128 29.576,-107.104 0,-107.104"
         style="fill:#dd5a3c;fill-opacity:1;fill-rule:nonzero;stroke:none"
         id="path348" /></g><g
       id="g350"
       transform="translate(463.708,119.8242)"><path
         d="m 0,0 c -29.576,0 -53.552,23.977 -53.552,53.553 0,29.576 23.976,53.551 53.552,53.551 29.576,0 53.552,-23.975 53.552,-53.551 C 53.552,23.977 29.576,0 0,0"
         style="fill:#d8cd44;fill-opacity:1;fill-rule:nonzero;stroke:none"
         id="path352" /></g><g
       id="g354"
       transform="translate(509.9565,672.6187)"><path
         d="m 0,0 v 53.462 l -46.299,26.731 -46.3,-26.731 V 0 l 46.3,-26.731 z"
         style="fill:#cc3232;fill-opacity:1;fill-rule:nonzero;stroke:none"
         id="path356" /></g><g
       id="g358"
       transform="translate(1803.5898,542.4502)"><path
         d="M 0,0 V 53.462 L -46.3,80.193 -92.6,53.462 V 0 l 46.3,-26.731 z"
         style="fill:#cc3232;fill-opacity:1;fill-rule:nonzero;stroke:none"
         id="path360" /></g><g
       id="g362"
       transform="translate(1285.4922,805.3955)"><path
         d="M 0,0 V 53.462 L -46.3,80.193 -92.6,53.462 V 0 l 46.3,-26.731 z"
         style="fill:#50258e;fill-opacity:1;fill-rule:nonzero;stroke:none"
         id="path364" /></g><g
       id="g366"
       transform="translate(248.3633,144.9219)"><path
         d="M 0,0 V 53.462 L -46.3,80.193 -92.6,53.462 V 0 l 46.3,-26.731 z"
         style="fill:#50258e;fill-opacity:1;fill-rule:nonzero;stroke:none"
         id="path368" /></g><g
       id="g370"
       transform="translate(332.5503,778.5742)"><path
         d="m 0,0 c -29.576,0 -53.552,23.976 -53.552,53.552 0,29.576 23.976,53.552 53.552,53.552 29.576,0 53.552,-23.976 53.552,-53.552 C 53.552,23.976 29.576,0 0,0"
         style="fill:#cc3232;fill-opacity:1;fill-rule:nonzero;stroke:none"
         id="path372" /></g><g
       id="g374"
       transform="translate(278.998,435.8213)"><path
         d="m 0,0 c 0,-29.575 23.976,-53.552 53.552,-53.552 29.576,0 53.552,23.977 53.552,53.552 v 132.139 c 0,29.576 -23.976,53.552 -53.552,53.552 C 23.976,185.691 0,161.715 0,132.139"
         style="fill:#d8cd44;fill-opacity:1;fill-rule:nonzero;stroke:none"
         id="path376" /></g><g
       id="g378"
       transform="translate(332.5503,252.6016)"><path
         d="m 0,0 c -29.576,0 -53.552,23.976 -53.552,53.552 0,29.576 23.976,53.552 53.552,53.552 29.576,0 53.552,-23.976 53.552,-53.552 C 53.552,23.976 29.576,0 0,0"
         style="fill:#50258e;fill-opacity:1;fill-rule:nonzero;stroke:none"
         id="path380" /></g><g
       id="g382"
       transform="translate(332.5503,120.1631)"><path
         d="m 0,0 c -29.576,0 -53.552,23.976 -53.552,53.552 0,29.576 23.976,53.552 53.552,53.552 29.576,0 53.552,-23.976 53.552,-53.552 C 53.552,23.976 29.576,0 0,0"
         style="fill:#dd5a3c;fill-opacity:1;fill-rule:nonzero;stroke:none"
         id="path384" /></g><text
       xml:space="preserve"
       style="font-size:31px;line-height:1.25;font-family:'Cascadia Code';-inkscape-font-specification:'Cascadia Code';letter-spacing:0px;word-spacing:0px;fill:#ffffff;stroke-width:0.75"
       x="940.64264"
       y="-439.0672"
       id="text1607"
       transform="scale(1,-1)"><tspan
         sodipodi:role="line"
         id="tspan1605"
         x="940.64264"
         y="-439.0672"
         style="font-style:normal;font-variant:normal;font-weight:bold;font-stretch:normal;font-size:31px;font-family:'Open Sans';-inkscape-font-specification:'Open Sans Bold';fill:#ffffff;stroke-width:0.75">#datiBeneComune</tspan></text></g></svg>
