<?xml version="1.0" encoding="UTF-8" standalone="no"?>
<svg
   xmlns:dc="http://purl.org/dc/elements/1.1/"
   xmlns:cc="http://creativecommons.org/ns#"
   xmlns:rdf="http://www.w3.org/1999/02/22-rdf-syntax-ns#"
   xmlns:svg="http://www.w3.org/2000/svg"
   xmlns="http://www.w3.org/2000/svg"
   xmlns:sodipodi="http://sodipodi.sourceforge.net/DTD/sodipodi-0.dtd"
   xmlns:inkscape="http://www.inkscape.org/namespaces/inkscape"
   version="1.1"
   id="svg2"
   xml:space="preserve"
   width="426.66666"
   height="853.33331"
   viewBox="0 0 426.66666 853.33331"
   sodipodi:docname="DBC_Mobile_320x640.svg"
   inkscape:version="1.0.1 (3bc2e813f5, 2020-09-07)"><metadata
     id="metadata8"><rdf:RDF><cc:Work
         rdf:about=""><dc:format>image/svg+xml</dc:format><dc:type
           rdf:resource="http://purl.org/dc/dcmitype/StillImage" /><dc:title></dc:title></cc:Work></rdf:RDF></metadata><defs
     id="defs6"><clipPath
       clipPathUnits="userSpaceOnUse"
       id="clipPath20"><path
         d="M 0,640 H 320 V 0 H 0 Z"
         id="path18" /></clipPath></defs><sodipodi:namedview
     pagecolor="#ffffff"
     bordercolor="#666666"
     borderopacity="1"
     objecttolerance="10"
     gridtolerance="10"
     guidetolerance="10"
     inkscape:pageopacity="0"
     inkscape:pageshadow="2"
     inkscape:window-width="2560"
     inkscape:window-height="1017"
     id="namedview4"
     showgrid="false"
     inkscape:zoom="1.2181019"
     inkscape:cx="-301.7375"
     inkscape:cy="302.65014"
     inkscape:window-x="1912"
     inkscape:window-y="-8"
     inkscape:window-maximized="1"
     inkscape:current-layer="g10" /><g
     id="g10"
     inkscape:groupmode="layer"
     inkscape:label="DBC_Mobile_320x640"
     transform="matrix(1.3333333,0,0,-1.3333333,0,853.33333)"><path
       d="M 0.146,0 H 320.001 V 640 H 0.146 Z"
       style="fill:#1d1d1b;fill-opacity:1;fill-rule:nonzero;stroke:none"
       id="path12" /><g
       id="g14"><g
         id="g16"
         clip-path="url(#clipPath20)"><g
           id="g22"
           transform="translate(164.7959,408.7944)"><path
             d="m 0,0 c 0,10.081 8.172,18.253 18.253,18.253 10.081,0 18.253,-8.172 18.253,-18.253 0,-10.081 -8.172,-18.253 -18.253,-18.253 C 8.172,-18.253 0,-10.081 0,0"
             style="fill:#d8cd44;fill-opacity:1;fill-rule:nonzero;stroke:none"
             id="path24" /></g><g
           id="g26"
           transform="translate(254.8359,101.7178)"><path
             d="m 0,0 c 0,10.081 8.172,18.253 18.253,18.253 10.081,0 18.253,-8.172 18.253,-18.253 0,-10.081 -8.172,-18.253 -18.253,-18.253 C 8.172,-18.253 0,-10.081 0,0"
             style="fill:#d8cd44;fill-opacity:1;fill-rule:nonzero;stroke:none"
             id="path28" /></g><g
           id="g30"
           transform="translate(119.0464,233.5146)"><path
             d="M 0,0 C 0,10.08 8.172,18.253 18.253,18.253 28.334,18.253 36.506,10.08 36.506,0 36.506,-10.081 28.334,-18.254 18.253,-18.254 8.172,-18.254 0,-10.081 0,0"
             style="fill:#cc3232;fill-opacity:1;fill-rule:nonzero;stroke:none"
             id="path32" /></g><g
           id="g34"
           transform="translate(254.8359,409.249)"><path
             d="m 0,0 c 0,10.081 8.172,18.253 18.253,18.253 10.081,0 18.253,-8.172 18.253,-18.253 0,-10.081 -8.172,-18.253 -18.253,-18.253 C 8.172,-18.253 0,-10.081 0,0"
             style="fill:#50258e;fill-opacity:1;fill-rule:nonzero;stroke:none"
             id="path36" /></g><g
           id="g38"
           transform="translate(209.6943,409.249)"><path
             d="m 0,0 c 0,10.081 8.173,18.253 18.253,18.253 10.081,0 18.254,-8.172 18.254,-18.253 0,-10.081 -8.173,-18.253 -18.254,-18.253 C 8.173,-18.253 0,-10.081 0,0"
             style="fill:#cc3232;fill-opacity:1;fill-rule:nonzero;stroke:none"
             id="path40" /></g><g
           id="g42"
           transform="translate(209.6943,453.1826)"><path
             d="m 0,0 c 0,10.081 8.173,18.253 18.253,18.253 10.081,0 18.254,-8.172 18.254,-18.253 0,-10.081 -8.173,-18.253 -18.254,-18.253 C 8.173,-18.253 0,-10.081 0,0"
             style="fill:#dd5a3c;fill-opacity:1;fill-rule:nonzero;stroke:none"
             id="path44" /></g><g
           id="g46"
           transform="translate(209.6943,233.5146)"><path
             d="M 0,0 C 0,10.08 8.173,18.253 18.253,18.253 28.334,18.253 36.507,10.08 36.507,0 36.507,-10.081 28.334,-18.254 18.253,-18.254 8.173,-18.254 0,-10.081 0,0"
             style="fill:#50258e;fill-opacity:1;fill-rule:nonzero;stroke:none"
             id="path48" /></g><g
           id="g50"
           transform="translate(75.5596,233.5146)"><path
             d="M 0,0 C 0,10.08 8.172,18.253 18.253,18.253 28.334,18.253 36.506,10.08 36.506,0 36.506,-10.081 28.334,-18.254 18.253,-18.254 8.172,-18.254 0,-10.081 0,0"
             style="fill:#cc3232;fill-opacity:1;fill-rule:nonzero;stroke:none"
             id="path52" /></g><g
           id="g54"
           transform="translate(120.479,145.293)"><path
             d="m 0,0 c 0,10.081 8.172,18.253 18.253,18.253 10.081,0 18.253,-8.172 18.253,-18.253 0,-10.081 -8.172,-18.253 -18.253,-18.253 C 8.172,-18.253 0,-10.081 0,0"
             style="fill:#cc3232;fill-opacity:1;fill-rule:nonzero;stroke:none"
             id="path56" /></g><g
           id="g58"
           transform="translate(30.4185,233.5146)"><path
             d="M 0,0 C 0,10.08 8.172,18.253 18.253,18.253 28.334,18.253 36.506,10.08 36.506,0 36.506,-10.081 28.334,-18.254 18.253,-18.254 8.172,-18.254 0,-10.081 0,0"
             style="fill:#d8cd44;fill-opacity:1;fill-rule:nonzero;stroke:none"
             id="path60" /></g><g
           id="g62"
           transform="translate(254.8359,453.2827)"><path
             d="m 0,0 c 0,10.081 8.172,18.253 18.253,18.253 10.081,0 18.253,-8.172 18.253,-18.253 0,-10.081 -8.172,-18.253 -18.253,-18.253 C 8.172,-18.253 0,-10.081 0,0"
             style="fill:#d8cd44;fill-opacity:1;fill-rule:nonzero;stroke:none"
             id="path64" /></g><g
           id="g66"
           transform="translate(119.7476,408.7744)"><path
             d="m 0,0 c 0,10.081 8.172,18.253 18.253,18.253 10.081,0 18.253,-8.172 18.253,-18.253 0,-10.081 -8.172,-18.253 -18.253,-18.253 C 8.172,-18.253 0,-10.081 0,0"
             style="fill:#50258e;fill-opacity:1;fill-rule:nonzero;stroke:none"
             id="path68" /></g><g
           id="g70"
           transform="translate(48.6714,427.502)"><path
             d="m 0,0 c -10.081,0 -18.253,-8.172 -18.253,-18.253 0,-10.081 8.172,-18.253 18.253,-18.253 h 45.142 c 10.08,0 18.253,8.172 18.253,18.253 C 63.395,-8.172 55.222,0 45.142,0"
             style="fill:#cc3232;fill-opacity:1;fill-rule:nonzero;stroke:none"
             id="path72" /></g><g
           id="g74"
           transform="translate(164.7959,453.1826)"><path
             d="m 0,0 c 0,10.081 8.172,18.253 18.253,18.253 10.081,0 18.253,-8.172 18.253,-18.253 0,-10.081 -8.172,-18.253 -18.253,-18.253 C 8.172,-18.253 0,-10.081 0,0"
             style="fill:#dd5a3c;fill-opacity:1;fill-rule:nonzero;stroke:none"
             id="path76" /></g><g
           id="g78"
           transform="translate(75.5596,453.1826)"><path
             d="m 0,0 c 0,10.081 8.172,18.253 18.253,18.253 10.081,0 18.253,-8.172 18.253,-18.253 0,-10.081 -8.172,-18.253 -18.253,-18.253 C 8.172,-18.253 0,-10.081 0,0"
             style="fill:#dd5a3c;fill-opacity:1;fill-rule:nonzero;stroke:none"
             id="path80" /></g><g
           id="g82"
           transform="translate(30.4185,453.1826)"><path
             d="m 0,0 c 0,10.081 8.172,18.253 18.253,18.253 10.081,0 18.253,-8.172 18.253,-18.253 0,-10.081 -8.172,-18.253 -18.253,-18.253 C 8.172,-18.253 0,-10.081 0,0"
             style="fill:#50258e;fill-opacity:1;fill-rule:nonzero;stroke:none"
             id="path84" /></g><g
           id="g86"
           transform="translate(153.4004,304.0107)"><path
             d="m 0,0 h -2.449 l -0.416,-1.848 h 2.449 z M 1.632,0 1.217,-1.848 H 2.463 V -3.309 H 0.902 L 0.415,-5.5 h -1.633 l 0.488,2.191 H -3.18 L -3.667,-5.5 h -1.618 l 0.487,2.191 h -1.289 v 1.461 h 1.604 L -4.068,0 h -1.231 v 1.475 h 1.547 l 0.486,2.191 h 1.619 L -2.134,1.475 H 0.315 L 0.802,3.666 H 2.435 L 1.948,1.475 H 3.236 V 0 Z"
             style="fill:#ffffff;fill-opacity:1;fill-rule:nonzero;stroke:none"
             id="path88" /></g><g
           id="g90"
           transform="translate(162.8945,302.1055)"><path
             d="m 0,0 c 0,1.261 -0.701,2.12 -1.79,2.12 -1.088,0 -1.819,-0.859 -1.819,-2.12 0,-1.288 0.731,-2.148 1.819,-2.148 C -0.701,-2.148 0,-1.288 0,0 M 1.833,6.574 V -3.595 H 0.344 L 0.187,-2.749 H 0.058 c -0.344,-0.459 -1.017,-0.988 -2.134,-0.988 -1.919,0 -3.366,1.461 -3.366,3.737 0,2.335 1.49,3.71 3.366,3.71 0.973,0 1.69,-0.387 2.076,-0.816 v 3.68 z"
             style="fill:#ffffff;fill-opacity:1;fill-rule:nonzero;stroke:none"
             id="path92" /></g><g
           id="g94"
           transform="translate(170.6416,301.6191)"><path
             d="m 0,0 -1.604,-0.172 c -0.659,-0.071 -1.16,-0.344 -1.16,-0.902 0,-0.573 0.445,-0.774 1.017,-0.774 0.773,0 1.747,0.372 1.747,1.504 z M 2.521,-1.732 V -3.108 H 1.748 c -0.674,0 -1.203,0.201 -1.447,0.86 -0.487,-0.616 -1.232,-1.003 -2.363,-1.003 -1.46,0 -2.535,0.688 -2.535,2.105 0,1.375 1.045,2.048 2.364,2.177 L 0,1.261 v 0.301 c 0,0.787 -0.501,1.173 -1.202,1.173 -0.774,0 -1.175,-0.429 -1.289,-1.074 h -1.834 c 0.143,1.489 1.289,2.535 3.123,2.535 1.675,0 3.035,-0.844 3.035,-2.763 v -2.621 c 0,-0.374 0.172,-0.544 0.517,-0.544 z"
             style="fill:#ffffff;fill-opacity:1;fill-rule:nonzero;stroke:none"
             id="path96" /></g><g
           id="g98"
           transform="translate(174.8809,300.459)"><path
             d="m 0,0 v 3.767 h -1.532 v 1.446 h 0.486 c 0.874,0 1.218,0.315 1.218,1.089 V 7.16 H 1.833 V 5.213 H 3.709 V 3.767 H 1.833 V 0.243 c 0,-0.401 0.101,-0.888 0.96,-0.888 0.215,0 0.487,0.043 0.701,0.1 V -1.934 C 3.18,-2.005 2.75,-2.091 2.234,-2.091 0.229,-2.091 0,-0.787 0,0"
             style="fill:#ffffff;fill-opacity:1;fill-rule:nonzero;stroke:none"
             id="path100" /></g><path
           d="m 179.692,305.672 h 1.833 v -7.161 h -1.833 z m -0.214,2.019 c 0,0.63 0.53,1.118 1.131,1.118 0.602,0 1.103,-0.488 1.103,-1.118 0,-0.587 -0.501,-1.102 -1.103,-1.102 -0.601,0 -1.131,0.515 -1.131,1.102"
           style="fill:#ffffff;fill-opacity:1;fill-rule:nonzero;stroke:none"
           id="path102" /><g
           id="g104"
           transform="translate(188.5576,302.1055)"><path
             d="m 0,0 c 0,1.261 -0.73,2.12 -1.819,2.12 -1.089,0 -1.79,-0.859 -1.79,-2.12 0,-1.288 0.701,-2.148 1.79,-2.148 C -0.73,-2.148 0,-1.288 0,0 m 1.833,0 c 0,-2.276 -1.446,-3.737 -3.365,-3.737 -1.117,0 -1.791,0.529 -2.135,0.988 H -3.796 L -3.953,-3.595 H -5.442 V 6.574 h 1.833 V 2.894 C -3.223,3.323 -2.507,3.71 -1.532,3.71 0.344,3.71 1.833,2.335 1.833,0"
             style="fill:#ffffff;fill-opacity:1;fill-rule:nonzero;stroke:none"
             id="path106" /></g><g
           id="g108"
           transform="translate(193.2393,302.8369)"><path
             d="M 0,0 H 3.424 C 3.381,0.887 2.722,1.518 1.776,1.518 0.788,1.518 0.129,0.858 0,0 M 5.186,-2.063 C 4.898,-3.538 3.667,-4.469 1.848,-4.469 c -2.134,0 -3.681,1.447 -3.681,3.652 0,2.363 1.633,3.796 3.609,3.796 1.762,0 3.395,-1.118 3.395,-3.681 0,-0.172 -0.015,-0.33 -0.028,-0.529 h -5.157 c 0.072,-1.033 0.745,-1.777 1.862,-1.777 0.801,0 1.375,0.329 1.576,0.945 z"
             style="fill:#ffffff;fill-opacity:1;fill-rule:nonzero;stroke:none"
             id="path110" /></g><g
           id="g112"
           transform="translate(199.7988,305.6719)"><path
             d="m 0,0 h 1.676 l 0.157,-0.845 h 0.114 c 0.43,0.559 1.032,0.989 2.106,0.989 1.704,0 2.793,-1.089 2.793,-2.965 v -4.34 H 5.013 v 3.968 c 0,1.173 -0.674,1.747 -1.534,1.747 -0.873,0 -1.646,-0.559 -1.646,-1.833 V -7.161 H 0 Z"
             style="fill:#ffffff;fill-opacity:1;fill-rule:nonzero;stroke:none"
             id="path114" /></g><g
           id="g116"
           transform="translate(209.752,302.8369)"><path
             d="M 0,0 H 3.423 C 3.38,0.887 2.721,1.518 1.775,1.518 0.787,1.518 0.129,0.858 0,0 M 5.185,-2.063 C 4.897,-3.538 3.666,-4.469 1.848,-4.469 c -2.134,0 -3.681,1.447 -3.681,3.652 0,2.363 1.633,3.796 3.608,3.796 1.762,0 3.395,-1.118 3.395,-3.681 0,-0.172 -0.014,-0.33 -0.028,-0.529 h -5.157 c 0.072,-1.033 0.745,-1.777 1.863,-1.777 0.801,0 1.375,0.329 1.575,0.945 z"
             style="fill:#ffffff;fill-opacity:1;fill-rule:nonzero;stroke:none"
             id="path118" /></g><g
           id="g120"
           transform="translate(215.9668,302.0625)"><path
             d="m 0,0 c 0,2.249 1.633,3.753 3.724,3.753 1.661,0 3.237,-0.888 3.465,-2.764 H 5.356 C 5.199,1.647 4.583,2.163 3.724,2.163 2.635,2.163 1.833,1.275 1.833,0 c 0,-1.26 0.745,-2.105 1.919,-2.105 0.831,0 1.39,0.373 1.619,1.032 H 7.218 C 6.975,-2.678 5.614,-3.694 3.752,-3.694 1.519,-3.694 0,-2.162 0,0"
             style="fill:#ffffff;fill-opacity:1;fill-rule:nonzero;stroke:none"
             id="path122" /></g><g
           id="g124"
           transform="translate(229.8154,302.1055)"><path
             d="M 0,0 C 0,1.189 -0.787,2.12 -1.962,2.12 -3.136,2.12 -3.91,1.189 -3.91,0 c 0,-1.202 0.774,-2.148 1.948,-2.148 C -0.773,-2.148 0,-1.202 0,0 m -5.743,0 c 0,2.206 1.633,3.71 3.781,3.71 2.149,0 3.781,-1.519 3.781,-3.71 0,-2.219 -1.619,-3.737 -3.781,-3.737 -2.134,0 -3.781,1.532 -3.781,3.737"
             style="fill:#ffffff;fill-opacity:1;fill-rule:nonzero;stroke:none"
             id="path126" /></g><g
           id="g128"
           transform="translate(232.9512,305.6719)"><path
             d="m 0,0 h 1.676 l 0.157,-0.845 h 0.115 c 0.387,0.531 0.989,0.989 1.962,0.989 1.132,0 1.633,-0.616 1.876,-1.132 H 5.9 c 0.387,0.559 1.018,1.132 2.235,1.132 1.475,0 2.421,-0.888 2.421,-2.622 V -7.161 H 8.723 v 4.34 c 0,0.916 -0.545,1.375 -1.233,1.375 -0.773,0 -1.303,-0.574 -1.303,-1.475 v -4.24 H 4.354 v 4.283 c 0,0.944 -0.53,1.432 -1.217,1.432 -0.659,0 -1.304,-0.473 -1.304,-1.461 v -4.254 l -1.833,0 z"
             style="fill:#ffffff;fill-opacity:1;fill-rule:nonzero;stroke:none"
             id="path130" /></g><g
           id="g132"
           transform="translate(251.8838,298.5107)"><path
             d="m 0,0 h -1.676 l -0.157,0.846 h -0.114 c -0.431,-0.559 -1.032,-0.989 -2.106,-0.989 -1.704,0 -2.793,1.089 -2.793,2.965 v 4.339 h 1.833 V 3.194 c 0,-1.174 0.673,-1.748 1.547,-1.748 0.86,0 1.633,0.56 1.633,1.834 V 7.161 H 0 Z"
             style="fill:#ffffff;fill-opacity:1;fill-rule:nonzero;stroke:none"
             id="path134" /></g><g
           id="g136"
           transform="translate(253.501,305.6719)"><path
             d="m 0,0 h 1.676 l 0.158,-0.845 h 0.114 c 0.43,0.559 1.031,0.989 2.106,0.989 1.704,0 2.793,-1.089 2.793,-2.965 v -4.34 H 5.014 v 3.968 c 0,1.173 -0.674,1.747 -1.534,1.747 -0.874,0 -1.646,-0.559 -1.646,-1.833 V -7.161 H 0 Z"
             style="fill:#ffffff;fill-opacity:1;fill-rule:nonzero;stroke:none"
             id="path138" /></g><g
           id="g140"
           transform="translate(263.4541,302.8369)"><path
             d="M 0,0 H 3.423 C 3.38,0.887 2.721,1.518 1.775,1.518 0.788,1.518 0.129,0.858 0,0 M 5.185,-2.063 C 4.898,-3.538 3.666,-4.469 1.848,-4.469 c -2.134,0 -3.681,1.447 -3.681,3.652 0,2.363 1.633,3.796 3.608,3.796 1.763,0 3.395,-1.118 3.395,-3.681 0,-0.172 -0.014,-0.33 -0.028,-0.529 h -5.157 c 0.073,-1.033 0.745,-1.777 1.863,-1.777 0.801,0 1.375,0.329 1.575,0.945 z"
             style="fill:#ffffff;fill-opacity:1;fill-rule:nonzero;stroke:none"
             id="path142" /></g><g
           id="g144"
           transform="translate(76.2725,334.6333)"><path
             d="m 0,0 v -4.805 h -19.464 v 28.503 h 5.253 l 0,-23.698 z"
             style="fill:#ffffff;fill-opacity:1;fill-rule:nonzero;stroke:none"
             id="path146" /></g><path
           d="m 80.467,350.188 h 5.212 v -20.36 h -5.212 z m -0.611,5.742 c 0,1.791 1.507,3.175 3.217,3.175 1.711,0 3.135,-1.384 3.135,-3.175 0,-1.67 -1.424,-3.136 -3.135,-3.136 -1.71,0 -3.217,1.466 -3.217,3.136"
           style="fill:#ffffff;fill-opacity:1;fill-rule:nonzero;stroke:none"
           id="path148" /><g
           id="g150"
           transform="translate(106.4873,340.0488)"><path
             d="m 0,0 c 0,3.583 -2.077,6.026 -5.171,6.026 -3.095,0 -5.091,-2.443 -5.091,-6.026 0,-3.665 1.996,-6.108 5.091,-6.108 C -2.077,-6.108 0,-3.665 0,0 m 5.212,0 c 0,-6.475 -4.112,-10.628 -9.569,-10.628 -3.176,0 -5.09,1.507 -6.067,2.81 h -0.367 l -0.448,-2.403 h -4.235 V 18.69 h 5.212 V 8.225 c 1.1,1.222 3.136,2.321 5.905,2.321 5.335,0 9.569,-3.909 9.569,-10.546"
             style="fill:#ffffff;fill-opacity:1;fill-rule:nonzero;stroke:none"
             id="path152" /></g><g
           id="g154"
           transform="translate(120.6187,342.1255)"><path
             d="M 0,0 H 9.731 C 9.609,2.524 7.736,4.316 5.049,4.316 2.239,4.316 0.366,2.443 0,0 m 14.74,-5.864 c -0.814,-4.194 -4.316,-6.841 -9.488,-6.841 -6.067,0 -10.464,4.113 -10.464,10.384 0,6.718 4.642,10.791 10.261,10.791 5.008,0 9.65,-3.177 9.65,-10.466 0,-0.488 -0.04,-0.936 -0.081,-1.506 H -0.041 c 0.204,-2.932 2.118,-5.049 5.293,-5.049 2.281,0 3.91,0.936 4.479,2.687 z"
             style="fill:#ffffff;fill-opacity:1;fill-rule:nonzero;stroke:none"
             id="path156" /></g><g
           id="g158"
           transform="translate(140.0835,350.188)"><path
             d="m 0,0 h 4.724 l 0.488,-2.891 h 0.326 c 1.262,2.036 2.647,3.298 6.067,3.298 h 1.466 v -5.212 c -0.733,0.122 -1.466,0.163 -2.199,0.163 -4.479,0 -5.66,-3.298 -5.66,-6.23 V -20.36 H 0 Z"
             style="fill:#ffffff;fill-opacity:1;fill-rule:nonzero;stroke:none"
             id="path160" /></g><path
           d="m 156.698,350.188 h 5.212 v -20.36 h -5.212 z m -0.611,5.742 c 0,1.791 1.507,3.175 3.217,3.175 1.711,0 3.135,-1.384 3.135,-3.175 0,-1.67 -1.424,-3.136 -3.135,-3.136 -1.71,0 -3.217,1.466 -3.217,3.136"
           style="fill:#ffffff;fill-opacity:1;fill-rule:nonzero;stroke:none"
           id="path162" /><g
           id="g164"
           transform="translate(179.542,338.6646)"><path
             d="m 0,0 -4.561,-0.489 c -1.873,-0.203 -3.297,-0.977 -3.297,-2.565 0,-1.629 1.261,-2.199 2.89,-2.199 2.199,0 4.968,1.058 4.968,4.275 z M 7.166,-4.927 V -8.836 H 4.968 c -1.914,0 -3.421,0.57 -4.114,2.442 -1.383,-1.75 -3.5,-2.85 -6.718,-2.85 -4.153,0 -7.207,1.955 -7.207,5.986 0,3.909 2.972,5.823 6.718,6.19 L 0,3.583 v 0.855 c 0,2.24 -1.426,3.339 -3.421,3.339 -2.198,0 -3.339,-1.221 -3.665,-3.054 h -5.212 c 0.407,4.235 3.665,7.208 8.877,7.208 4.765,0 8.633,-2.403 8.633,-7.859 V -3.38 c 0,-1.059 0.489,-1.547 1.466,-1.547 z"
             style="fill:#ffffff;fill-opacity:1;fill-rule:nonzero;stroke:none"
             id="path166" /></g><g
           id="g168"
           transform="translate(190.5771,350.188)"><path
             d="m 0,0 h 4.765 l 0.448,-2.402 h 0.325 c 1.1,1.506 2.81,2.809 5.579,2.809 3.217,0 4.642,-1.751 5.334,-3.217 h 0.326 c 1.1,1.588 2.891,3.217 6.352,3.217 4.194,0 6.882,-2.525 6.882,-7.452 V -20.36 h -5.212 v 12.338 c 0,2.606 -1.548,3.909 -3.502,3.909 -2.198,0 -3.706,-1.629 -3.706,-4.194 V -20.36 h -5.212 v 12.175 c 0,2.687 -1.506,4.072 -3.461,4.072 -1.873,0 -3.705,-1.344 -3.705,-4.153 V -20.36 H 0 Z"
             style="fill:#ffffff;fill-opacity:1;fill-rule:nonzero;stroke:none"
             id="path170" /></g><g
           id="g172"
           transform="translate(241.3564,340.0488)"><path
             d="m 0,0 c 0,3.38 -2.239,6.026 -5.578,6.026 -3.34,0 -5.538,-2.646 -5.538,-6.026 0,-3.421 2.198,-6.108 5.538,-6.108 C -2.198,-6.108 0,-3.421 0,0 m -16.328,0 c 0,6.271 4.641,10.546 10.75,10.546 6.107,0 10.75,-4.316 10.75,-10.546 0,-6.312 -4.602,-10.628 -10.75,-10.628 -6.068,0 -10.75,4.357 -10.75,10.628"
             style="fill:#ffffff;fill-opacity:1;fill-rule:nonzero;stroke:none"
             id="path174" /></g><path
           d="m 251.13,358.739 h 5.212 v -28.911 h -5.212 z"
           style="fill:#ffffff;fill-opacity:1;fill-rule:nonzero;stroke:none"
           id="path176" /><path
           d="m 261.676,350.188 h 5.213 v -20.36 h -5.213 z m -0.611,5.742 c 0,1.791 1.507,3.175 3.217,3.175 1.711,0 3.136,-1.384 3.136,-3.175 0,-1.67 -1.425,-3.136 -3.136,-3.136 -1.71,0 -3.217,1.466 -3.217,3.136"
           style="fill:#ffffff;fill-opacity:1;fill-rule:nonzero;stroke:none"
           id="path178" /><g
           id="g180"
           transform="translate(59.0073,294.8398)"><path
             d="m 0,0 v 10.709 h -4.357 v 4.113 h 1.384 c 2.484,0 3.461,0.896 3.461,3.094 v 2.443 h 4.724 v -5.537 h 5.334 V 10.709 H 5.212 V 0.692 c 0,-1.14 0.285,-2.525 2.728,-2.525 0.611,0 1.385,0.123 1.996,0.285 V -5.497 C 9.04,-5.701 7.818,-5.945 6.352,-5.945 0.651,-5.945 0,-2.239 0,0"
             style="fill:#ffffff;fill-opacity:1;fill-rule:nonzero;stroke:none"
             id="path182" /></g><g
           id="g184"
           transform="translate(92.8457,289.3018)"><path
             d="m 0,0 h -4.764 l -0.448,2.402 h -0.326 c -1.222,-1.588 -2.932,-2.809 -5.986,-2.809 -4.845,0 -7.94,3.095 -7.94,8.428 V 20.36 h 5.212 V 9.08 c 0,-3.339 1.914,-4.968 4.398,-4.968 2.443,0 4.642,1.588 4.642,5.213 V 20.36 H 0 Z"
             style="fill:#ffffff;fill-opacity:1;fill-rule:nonzero;stroke:none"
             id="path186" /></g><g
           id="g188"
           transform="translate(100.7871,294.8398)"><path
             d="m 0,0 v 10.709 h -4.357 v 4.113 h 1.384 c 2.484,0 3.462,0.896 3.462,3.094 v 2.443 h 4.723 v -5.537 h 5.334 V 10.709 H 5.212 V 0.692 c 0,-1.14 0.285,-2.525 2.728,-2.525 0.611,0 1.385,0.123 1.996,0.285 V -5.497 C 9.04,-5.701 7.818,-5.945 6.352,-5.945 0.652,-5.945 0,-2.239 0,0"
             style="fill:#ffffff;fill-opacity:1;fill-rule:nonzero;stroke:none"
             id="path190" /></g><g
           id="g192"
           transform="translate(118.3784,294.8398)"><path
             d="m 0,0 v 10.709 h -4.357 v 4.113 h 1.384 c 2.484,0 3.462,0.896 3.462,3.094 v 2.443 h 4.723 v -5.537 h 5.334 V 10.709 H 5.212 V 0.692 c 0,-1.14 0.285,-2.525 2.728,-2.525 0.611,0 1.385,0.123 1.996,0.285 V -5.497 C 9.04,-5.701 7.818,-5.945 6.352,-5.945 0.652,-5.945 0,-2.239 0,0"
             style="fill:#ffffff;fill-opacity:1;fill-rule:nonzero;stroke:none"
             id="path194" /></g><path
           d="m 132.875,309.662 h 5.212 v -20.36 h -5.212 z m -0.611,5.741 c 0,1.791 1.507,3.176 3.217,3.176 1.71,0 3.135,-1.385 3.135,-3.176 0,-1.67 -1.425,-3.135 -3.135,-3.135 -1.71,0 -3.217,1.465 -3.217,3.135"
           style="fill:#ffffff;fill-opacity:1;fill-rule:nonzero;stroke:none"
           id="path196" /><g
           id="g198"
           transform="translate(200.9531,233.2139)"><path
             d="M 0,0 -36.339,18.594 -36.64,-17.993 Z"
             style="fill:#dd5a3c;fill-opacity:1;fill-rule:nonzero;stroke:none"
             id="path200" /></g><g
           id="g202"
           transform="translate(119.6802,453.4829)"><path
             d="m 0,0 36.339,-18.593 0.302,36.586 z"
             style="fill:#cc3232;fill-opacity:1;fill-rule:nonzero;stroke:none"
             id="path204" /></g><g
           id="g206"
           transform="translate(209.6943,587.0161)"><path
             d="m 0,0 c 0,10.081 8.173,18.253 18.253,18.253 10.081,0 18.254,-8.172 18.254,-18.253 0,-10.081 -8.173,-18.253 -18.254,-18.253 C 8.173,-18.253 0,-10.081 0,0"
             style="fill:#dd5a3c;fill-opacity:1;fill-rule:nonzero;stroke:none"
             id="path208" /></g><g
           id="g210"
           transform="translate(254.8359,587.1162)"><path
             d="m 0,0 c 0,10.081 8.172,18.253 18.253,18.253 10.081,0 18.253,-8.172 18.253,-18.253 0,-10.081 -8.172,-18.253 -18.253,-18.253 C 8.172,-18.253 0,-10.081 0,0"
             style="fill:#d8cd44;fill-opacity:1;fill-rule:nonzero;stroke:none"
             id="path212" /></g><g
           id="g214"
           transform="translate(164.7959,587.0161)"><path
             d="m 0,0 c 0,10.081 8.172,18.253 18.253,18.253 10.081,0 18.253,-8.172 18.253,-18.253 0,-10.081 -8.172,-18.253 -18.253,-18.253 C 8.172,-18.253 0,-10.081 0,0"
             style="fill:#50258e;fill-opacity:1;fill-rule:nonzero;stroke:none"
             id="path216" /></g><g
           id="g218"
           transform="translate(75.5596,587.0161)"><path
             d="m 0,0 c 0,10.081 8.172,18.253 18.253,18.253 10.081,0 18.253,-8.172 18.253,-18.253 0,-10.081 -8.172,-18.253 -18.253,-18.253 C 8.172,-18.253 0,-10.081 0,0"
             style="fill:#dd5a3c;fill-opacity:1;fill-rule:nonzero;stroke:none"
             id="path220" /></g><g
           id="g222"
           transform="translate(135.8618,568.6958)"><path
             d="M 0,0 18.594,36.339 -17.993,36.64 Z"
             style="fill:#cc3232;fill-opacity:1;fill-rule:nonzero;stroke:none"
             id="path224" /></g><g
           id="g226"
           transform="translate(112.0659,56.9229)"><path
             d="m 0,0 c 0,-10.081 -8.172,-18.253 -18.253,-18.253 -10.081,0 -18.253,8.172 -18.253,18.253 0,10.081 8.172,18.253 18.253,18.253 C -8.172,18.253 0,10.081 0,0"
             style="fill:#dd5a3c;fill-opacity:1;fill-rule:nonzero;stroke:none"
             id="path228" /></g><g
           id="g230"
           transform="translate(48.6714,75.0752)"><path
             d="M 0,0 C 10.081,0 18.253,-8.172 18.253,-18.253 18.253,-28.334 10.081,-36.506 0,-36.506"
             style="fill:#d8cd44;fill-opacity:1;fill-rule:nonzero;stroke:none"
             id="path232" /></g><g
           id="g234"
           transform="translate(156.9648,56.9229)"><path
             d="m 0,0 c 0,-10.081 -8.172,-18.253 -18.253,-18.253 -10.081,0 -18.253,8.172 -18.253,18.253 0,10.081 8.172,18.253 18.253,18.253 C -8.172,18.253 0,10.081 0,0"
             style="fill:#dd5a3c;fill-opacity:1;fill-rule:nonzero;stroke:none"
             id="path236" /></g><g
           id="g238"
           transform="translate(246.2012,56.9229)"><path
             d="m 0,0 c 0,-10.081 -8.173,-18.253 -18.254,-18.253 -10.08,0 -18.253,8.172 -18.253,18.253 0,10.081 8.173,18.253 18.253,18.253 C -8.173,18.253 0,10.081 0,0"
             style="fill:#dd5a3c;fill-opacity:1;fill-rule:nonzero;stroke:none"
             id="path240" /></g><g
           id="g242"
           transform="translate(291.3418,56.9229)"><path
             d="m 0,0 c 0,-10.081 -8.172,-18.253 -18.253,-18.253 -10.081,0 -18.253,8.172 -18.253,18.253 0,10.081 8.172,18.253 18.253,18.253 C -8.172,18.253 0,10.081 0,0"
             style="fill:#50258e;fill-opacity:1;fill-rule:nonzero;stroke:none"
             id="path244" /></g><g
           id="g246"
           transform="translate(228.4844,171.0098)"><path
             d="m 0,0 -18.594,36.339 36.587,0.302 z"
             style="fill:#d8cd44;fill-opacity:1;fill-rule:nonzero;stroke:none"
             id="path248" /></g><g
           id="g250"
           transform="translate(156.3208,102.0176)"><path
             d="m 0,0 -36.339,-18.593 -0.302,36.586 z"
             style="fill:#d8cd44;fill-opacity:1;fill-rule:nonzero;stroke:none"
             id="path252" /></g><g
           id="g254"
           transform="translate(254.8359,144.8047)"><path
             d="M 0,0 C 0,10.081 8.172,18.253 18.253,18.253 28.334,18.253 36.506,10.081 36.506,0"
             style="fill:#50258e;fill-opacity:1;fill-rule:nonzero;stroke:none"
             id="path256" /></g><g
           id="g258"
           transform="translate(209.6943,144.8047)"><path
             d="m 0,0 c 0,10.081 8.173,18.253 18.253,18.253 10.081,0 18.254,-8.172 18.254,-18.253 0,-10.081 -8.173,-18.253 -18.254,-18.253 C 8.173,-18.253 0,-10.081 0,0"
             style="fill:#dd5a3c;fill-opacity:1;fill-rule:nonzero;stroke:none"
             id="path260" /></g><g
           id="g262"
           transform="translate(30.4185,144.8047)"><path
             d="m 0,0 c 0,10.081 8.172,18.253 18.253,18.253 10.081,0 18.253,-8.172 18.253,-18.253 0,-10.081 -8.172,-18.253 -18.253,-18.253 C 8.172,-18.253 0,-10.081 0,0"
             style="fill:#50258e;fill-opacity:1;fill-rule:nonzero;stroke:none"
             id="path264" /></g><g
           id="g266"
           transform="translate(173.8477,129.041)"><path
             d="m 0,0 h 18.223 l 9.111,15.781 -9.111,15.781 H 0 L -9.111,15.781 Z"
             style="fill:#dd5a3c;fill-opacity:1;fill-rule:nonzero;stroke:none"
             id="path268" /></g><g
           id="g270"
           transform="translate(209.6943,101.7178)"><path
             d="m 0,0 c 0,10.081 8.173,18.253 18.253,18.253 10.081,0 18.254,-8.172 18.254,-18.253 0,-10.081 -8.173,-18.253 -18.254,-18.253 C 8.173,-18.253 0,-10.081 0,0"
             style="fill:#50258e;fill-opacity:1;fill-rule:nonzero;stroke:none"
             id="path272" /></g><g
           id="g274"
           transform="translate(164.7959,101.7178)"><path
             d="m 0,0 c 0,10.081 8.172,18.253 18.253,18.253 10.081,0 18.253,-8.172 18.253,-18.253 0,-10.081 -8.172,-18.253 -18.253,-18.253 C 8.172,-18.253 0,-10.081 0,0"
             style="fill:#50258e;fill-opacity:1;fill-rule:nonzero;stroke:none"
             id="path276" /></g><g
           id="g278"
           transform="translate(75.5596,101.7178)"><path
             d="m 0,0 c 0,-10.081 8.172,-18.253 18.253,-18.253 10.081,0 18.253,8.172 18.253,18.253 V 43.087 C 36.506,53.168 28.334,61.34 18.253,61.34 8.172,61.34 0,53.168 0,43.087"
             style="fill:#dd5a3c;fill-opacity:1;fill-rule:nonzero;stroke:none"
             id="path280" /></g><g
           id="g282"
           transform="translate(30.4185,101.7178)"><path
             d="m 0,0 c 0,10.081 8.172,18.253 18.253,18.253 10.081,0 18.253,-8.172 18.253,-18.253 0,-10.081 -8.172,-18.253 -18.253,-18.253 C 8.172,-18.253 0,-10.081 0,0"
             style="fill:#50258e;fill-opacity:1;fill-rule:nonzero;stroke:none"
             id="path284" /></g><g
           id="g286"
           transform="translate(254.9512,189.168)"><path
             d="m 0,0 c 0,10.081 8.172,18.254 18.253,18.254 10.081,0 18.253,-8.173 18.253,-18.254 0,-10.08 -8.172,-18.253 -18.253,-18.253 C 8.172,-18.253 0,-10.08 0,0"
             style="fill:#cc3232;fill-opacity:1;fill-rule:nonzero;stroke:none"
             id="path288" /></g><g
           id="g290"
           transform="translate(138.125,207.4219)"><path
             d="m 0,0 c -10.081,0 -18.253,-8.173 -18.253,-18.254 0,-10.08 8.172,-18.253 18.253,-18.253 h 45.039 c 10.081,0 18.253,8.173 18.253,18.253 C 63.292,-8.173 55.12,0 45.039,0"
             style="fill:#50258e;fill-opacity:1;fill-rule:nonzero;stroke:none"
             id="path292" /></g><g
           id="g294"
           transform="translate(75.6748,189.168)"><path
             d="m 0,0 c 0,10.081 8.172,18.254 18.253,18.254 10.081,0 18.253,-8.173 18.253,-18.254 0,-10.08 -8.172,-18.253 -18.253,-18.253 C 8.172,-18.253 0,-10.08 0,0"
             style="fill:#50258e;fill-opacity:1;fill-rule:nonzero;stroke:none"
             id="path296" /></g><g
           id="g298"
           transform="translate(48.7871,170.915)"><path
             d="m 0,0 c -10.081,0 -18.253,8.173 -18.253,18.253 0,10.081 8.172,18.254 18.253,18.254"
             style="fill:#dd5a3c;fill-opacity:1;fill-rule:nonzero;stroke:none"
             id="path300" /></g><g
           id="g302"
           transform="translate(228.4844,561.022)"><path
             d="m 0,0 -18.594,-36.339 36.587,-0.302 z"
             style="fill:#dd5a3c;fill-opacity:1;fill-rule:nonzero;stroke:none"
             id="path304" /></g><g
           id="g306"
           transform="translate(273.0889,479.5825)"><path
             d="m 0,0 c -10.081,0 -18.253,8.172 -18.253,18.253 0,10.081 8.172,18.253 18.253,18.253"
             style="fill:#50258e;fill-opacity:1;fill-rule:nonzero;stroke:none"
             id="path308" /></g><g
           id="g310"
           transform="translate(119.7476,497.8354)"><path
             d="m 0,0 c 0,10.081 8.172,18.253 18.253,18.253 10.081,0 18.253,-8.172 18.253,-18.253 0,-10.081 -8.172,-18.253 -18.253,-18.253 C 8.172,-18.253 0,-10.081 0,0"
             style="fill:#cc3232;fill-opacity:1;fill-rule:nonzero;stroke:none"
             id="path312" /></g><g
           id="g314"
           transform="translate(164.7959,497.8354)"><path
             d="m 0,0 c 0,10.081 8.172,18.253 18.253,18.253 10.081,0 18.253,-8.172 18.253,-18.253 0,-10.081 -8.172,-18.253 -18.253,-18.253 C 8.172,-18.253 0,-10.081 0,0"
             style="fill:#d8cd44;fill-opacity:1;fill-rule:nonzero;stroke:none"
             id="path316" /></g><g
           id="g318"
           transform="translate(112.0659,497.8354)"><path
             d="m 0,0 c 0,-10.081 -8.172,-18.253 -18.253,-18.253 -10.081,0 -18.253,8.172 -18.253,18.253"
             style="fill:#dd5a3c;fill-opacity:1;fill-rule:nonzero;stroke:none"
             id="path320" /></g><g
           id="g322"
           transform="translate(30.4185,497.8354)"><path
             d="m 0,0 c 0,10.081 8.172,18.253 18.253,18.253 10.081,0 18.253,-8.172 18.253,-18.253 0,-10.081 -8.172,-18.253 -18.253,-18.253 C 8.172,-18.253 0,-10.081 0,0"
             style="fill:#d8cd44;fill-opacity:1;fill-rule:nonzero;stroke:none"
             id="path324" /></g><g
           id="g326"
           transform="translate(218.8369,482.0718)"><path
             d="m 0,0 h 18.222 l 9.111,15.781 -9.111,15.781 H 0 L -9.111,15.781 Z"
             style="fill:#cc3232;fill-opacity:1;fill-rule:nonzero;stroke:none"
             id="path328" /></g><g
           id="g330"
           transform="translate(174.4687,41.1416)"><path
             d="m 0,0 h 18.223 l 9.111,15.781 -9.111,15.781 H 0 L -9.111,15.781 Z"
             style="fill:#cc3232;fill-opacity:1;fill-rule:nonzero;stroke:none"
             id="path332" /></g><g
           id="g334"
           transform="translate(264.0928,217.7334)"><path
             d="m 0,0 h 18.223 l 9.111,15.781 -9.111,15.781 H 0 L -9.111,15.781 Z"
             style="fill:#50258e;fill-opacity:1;fill-rule:nonzero;stroke:none"
             id="path336" /></g><g
           id="g338"
           transform="translate(38.9727,571.2349)"><path
             d="m 0,0 h 18.223 l 9.111,15.781 -9.111,15.781 H 0 L -9.111,15.781 Z"
             style="fill:#50258e;fill-opacity:1;fill-rule:nonzero;stroke:none"
             id="path340" /></g><g
           id="g342"
           transform="translate(254.9512,542.54)"><path
             d="m 0,0 c 0,10.081 8.172,18.253 18.253,18.253 10.081,0 18.253,-8.172 18.253,-18.253 0,-10.081 -8.172,-18.253 -18.253,-18.253 C 8.172,-18.253 0,-10.081 0,0"
             style="fill:#cc3232;fill-opacity:1;fill-rule:nonzero;stroke:none"
             id="path344" /></g><g
           id="g346"
           transform="translate(138.125,560.7935)"><path
             d="m 0,0 c -10.081,0 -18.253,-8.172 -18.253,-18.253 0,-10.081 8.172,-18.253 18.253,-18.253 h 45.039 c 10.081,0 18.253,8.172 18.253,18.253 C 63.292,-8.172 55.12,0 45.039,0"
             style="fill:#d8cd44;fill-opacity:1;fill-rule:nonzero;stroke:none"
             id="path348" /></g><g
           id="g350"
           transform="translate(75.6748,542.54)"><path
             d="m 0,0 c 0,10.081 8.172,18.253 18.253,18.253 10.081,0 18.253,-8.172 18.253,-18.253 0,-10.081 -8.172,-18.253 -18.253,-18.253 C 8.172,-18.253 0,-10.081 0,0"
             style="fill:#50258e;fill-opacity:1;fill-rule:nonzero;stroke:none"
             id="path352" /></g><g
           id="g354"
           transform="translate(30.5337,542.54)"><path
             d="m 0,0 c 0,10.081 8.172,18.253 18.253,18.253 10.081,0 18.253,-8.172 18.253,-18.253 0,-10.081 -8.172,-18.253 -18.253,-18.253 C 8.172,-18.253 0,-10.081 0,0"
             style="fill:#dd5a3c;fill-opacity:1;fill-rule:nonzero;stroke:none"
             id="path356" /></g></g></g><path
       d="M -1212.2925,951.04763 H 717.70748 v -1000 H -1212.2925 Z"
       style="fill:#1d1d1b;fill-opacity:1;fill-rule:nonzero;stroke:none"
       id="path1193" /><path
       d="m -110.703,770.2068 c -29.574,0 -53.555,23.977 -53.555,53.555 0,29.574 23.981,53.551 53.555,53.551 29.574,0 53.551,-23.977 53.551,-53.551 0,-29.578 -23.977,-53.555 -53.551,-53.555"
       style="fill:#50258e;fill-opacity:1;fill-rule:nonzero;stroke:none"
       id="path1195" /><path
       d="m -239.602,770.2068 c -29.574,0 -53.55,23.977 -53.55,53.555 0,29.574 23.976,53.551 53.55,53.551 29.579,0 53.555,-23.977 53.555,-53.551 0,-29.578 -23.976,-53.555 -53.555,-53.555"
       style="fill:#d8cd44;fill-opacity:1;fill-rule:nonzero;stroke:none"
       id="path1197" /><path
       d="m 404.867,770.2068 c -29.574,0 -53.554,23.977 -53.554,53.555 0,29.574 23.98,53.551 53.554,53.551 29.574,0 53.551,-23.977 53.551,-53.551 0,-29.578 -23.977,-53.555 -53.551,-53.555"
       style="fill:#d8cd44;fill-opacity:1;fill-rule:nonzero;stroke:none"
       id="path1199" /><path
       d="m -239.602,744.8748 c -29.574,0 -53.55,-23.976 -53.55,-53.55 0,-29.579 23.976,-53.555 53.55,-53.555 h 128.899 c 29.578,0 53.551,23.976 53.551,53.555 0,29.574 -23.973,53.55 -53.551,53.55"
       style="fill:#d8cd44;fill-opacity:1;fill-rule:nonzero;stroke:none"
       id="path1201" /><path
       d="m -368.496,637.7698 c -29.574,0 -53.551,23.976 -53.551,53.551 0,29.578 23.977,53.554 53.551,53.554 29.578,0 53.555,-23.976 53.555,-53.554 0,-29.575 -23.977,-53.551 -53.555,-53.551"
       style="fill:#cc3232;fill-opacity:1;fill-rule:nonzero;stroke:none"
       id="path1203" /><path
       d="m -497.391,770.2068 c -29.578,0 -53.55,23.977 -53.55,53.555 0,29.574 23.972,53.551 53.55,53.551 29.575,0 53.551,-23.977 53.551,-53.551 0,-29.578 -23.976,-53.555 -53.551,-53.555"
       style="fill:#50258e;fill-opacity:1;fill-rule:nonzero;stroke:none"
       id="path1205" /><path
       d="m -497.391,637.7698 c -29.578,0 -53.55,23.976 -53.55,53.551 0,29.578 23.972,53.554 53.55,53.554 29.575,0 53.551,-23.976 53.551,-53.554 0,-29.575 -23.976,-53.551 -53.551,-53.551"
       style="fill:#cc3232;fill-opacity:1;fill-rule:nonzero;stroke:none"
       id="path1207" /><path
       d="m -626.285,637.7698 c -29.578,0 -53.555,23.976 -53.555,53.551 0,29.578 23.977,53.554 53.555,53.554 29.574,0 53.551,-23.976 53.551,-53.554 0,-29.575 -23.977,-53.551 -53.551,-53.551"
       style="fill:#dd5a3c;fill-opacity:1;fill-rule:nonzero;stroke:none"
       id="path1209" /><path
       d="m -164.258,297.7888 c 0,29.575 23.981,53.551 53.555,53.551 29.578,0 53.551,-23.976 53.551,-53.551"
       style="fill:#cc3232;fill-opacity:1;fill-rule:nonzero;stroke:none"
       id="path1211" /><path
       d="m -110.703,111.7968 c -29.574,0 -53.555,23.977 -53.555,53.555 0,29.574 23.981,53.551 53.555,53.551 29.574,0 53.551,-23.977 53.551,-53.551 0,-29.578 -23.977,-53.555 -53.551,-53.555"
       style="fill:#50258e;fill-opacity:1;fill-rule:nonzero;stroke:none"
       id="path1213" /><path
       d="m 18.191,637.7698 c -29.574,0 -53.55,23.976 -53.55,53.551 0,29.578 23.976,53.554 53.55,53.554 29.579,0 53.555,-23.976 53.555,-53.554 0,-29.575 -23.976,-53.551 -53.555,-53.551"
       style="fill:#50258e;fill-opacity:1;fill-rule:nonzero;stroke:none"
       id="path1215" /><path
       d="m 18.191,244.2348 c -29.574,0 -53.55,23.976 -53.55,53.554 0,29.575 23.976,53.551 53.55,53.551 29.579,0 53.555,-23.976 53.555,-53.551 0,-29.578 -23.976,-53.554 -53.555,-53.554"
       style="fill:#cc3232;fill-opacity:1;fill-rule:nonzero;stroke:none"
       id="path1217" /><path
       d="m 277.023,376.0238 c -29.574,0 -53.55,23.976 -53.55,53.554 0,29.575 23.976,53.551 53.55,53.551 29.575,0 53.551,-23.976 53.551,-53.551 0,-29.578 -23.976,-53.554 -53.551,-53.554"
       style="fill:#cc3232;fill-opacity:1;fill-rule:nonzero;stroke:none"
       id="path1219" /><path
       d="m 18.191,111.7968 c -29.574,0 -53.55,23.977 -53.55,53.555 0,29.574 23.976,53.551 53.55,53.551 29.579,0 53.555,-23.977 53.555,-53.551 0,-29.578 -23.976,-53.555 -53.555,-53.555"
       style="fill:#d8cd44;fill-opacity:1;fill-rule:nonzero;stroke:none"
       id="path1221" /><path
       d="m -626.582,770.2068 c -29.574,0 -53.551,23.977 -53.551,53.555 0,29.574 23.977,53.551 53.551,53.551 29.578,0 53.555,-23.977 53.555,-53.551 0,-29.578 -23.977,-53.555 -53.555,-53.555"
       style="fill:#d8cd44;fill-opacity:1;fill-rule:nonzero;stroke:none"
       id="path1223" /><path
       d="m -239.602,244.2348 c -29.574,0 -53.55,23.976 -53.55,53.554 0,29.575 23.976,53.551 53.55,53.551 29.579,0 53.555,-23.976 53.555,-53.551 0,-29.578 -23.976,-53.554 -53.555,-53.554"
       style="fill:#d8cd44;fill-opacity:1;fill-rule:nonzero;stroke:none"
       id="path1225" /><path
       d="m -368.496,244.2348 c -29.574,0 -53.551,23.976 -53.551,53.554 0,29.575 23.977,53.551 53.551,53.551 29.578,0 53.555,-23.976 53.555,-53.551 0,-29.578 -23.977,-53.554 -53.555,-53.554"
       style="fill:#50258e;fill-opacity:1;fill-rule:nonzero;stroke:none"
       id="path1227" /><path
       d="m -368.496,111.7968 c -29.574,0 -53.551,23.977 -53.551,53.555 0,29.574 23.977,53.551 53.551,53.551 29.578,0 53.555,-23.977 53.555,-53.551 0,-29.578 -23.977,-53.555 -53.555,-53.555"
       style="fill:#cc3232;fill-opacity:1;fill-rule:nonzero;stroke:none"
       id="path1229" /><path
       d="m -550.941,165.3518 c 0,-29.578 23.972,-53.555 53.55,-53.555 29.575,0 53.551,23.977 53.551,53.555 v 132.437 c 0,29.575 -23.976,53.551 -53.551,53.551 -29.578,0 -53.55,-23.976 -53.55,-53.551"
       style="fill:#cc3232;fill-opacity:1;fill-rule:nonzero;stroke:none"
       id="path1231" /><path
       d="m -626.285,506.0428 c -29.578,0 -53.555,23.977 -53.555,53.551 0,29.578 23.977,53.551 53.555,53.551 29.574,0 53.551,-23.973 53.551,-53.551 0,-29.574 -23.977,-53.551 -53.551,-53.551"
       style="fill:#dd5a3c;fill-opacity:1;fill-rule:nonzero;stroke:none"
       id="path1233" /><path
       d="m -626.285,244.2348 c -29.578,0 -53.555,23.976 -53.555,53.554 0,29.575 23.977,53.551 53.555,53.551 29.574,0 53.551,-23.976 53.551,-53.551 0,-29.578 -23.977,-53.554 -53.551,-53.554"
       style="fill:#dd5a3c;fill-opacity:1;fill-rule:nonzero;stroke:none"
       id="path1235" /><path
       d="m -626.285,111.7968 c -29.578,0 -53.555,23.977 -53.555,53.555 0,29.574 23.977,53.551 53.555,53.551 29.574,0 53.551,-23.977 53.551,-53.551 0,-29.578 -23.977,-53.555 -53.551,-53.555"
       style="fill:#50258e;fill-opacity:1;fill-rule:nonzero;stroke:none"
       id="path1237" /><path
       d="m -437.066,518.1758 v -11.133 h -45.102 v 66.051 h 12.172 v -54.918 z"
       style="fill:#ffffff;fill-opacity:1;fill-rule:nonzero;stroke:none"
       id="path1239" /><path
       d="m -427.344,554.2228 h 12.078 v -47.18 h -12.078 z m -1.418,13.305 c 0,4.152 3.492,7.359 7.457,7.359 3.961,0 7.266,-3.207 7.266,-7.359 0,-3.868 -3.305,-7.266 -7.266,-7.266 -3.965,0 -7.457,3.398 -7.457,7.266"
       style="fill:#ffffff;fill-opacity:1;fill-rule:nonzero;stroke:none"
       id="path1241" /><path
       d="m -367.047,530.7268 c 0,8.305 -4.812,13.965 -11.984,13.965 -7.172,0 -11.797,-5.66 -11.797,-13.965 0,-8.492 4.625,-14.152 11.797,-14.152 7.172,0 11.984,5.66 11.984,14.152 m 12.078,0 c 0,-15.004 -9.531,-24.629 -22.176,-24.629 -7.359,0 -11.796,3.492 -14.058,6.512 h -0.852 l -1.039,-5.567 h -9.812 v 66.996 h 12.078 v -24.25 c 2.551,2.829 7.266,5.375 13.683,5.375 12.364,0 22.176,-9.054 22.176,-24.437"
       style="fill:#ffffff;fill-opacity:1;fill-rule:nonzero;stroke:none"
       id="path1243" /><path
       d="m -334.301,535.5388 h 22.551 c -0.281,5.852 -4.625,10.004 -10.852,10.004 -6.511,0 -10.851,-4.343 -11.699,-10.004 m 34.156,-13.589 c -1.886,-9.719 -10,-15.852 -21.984,-15.852 -14.062,0 -24.25,9.531 -24.25,24.062 0,15.571 10.758,25.008 23.777,25.008 11.606,0 22.364,-7.363 22.364,-24.254 0,-1.132 -0.094,-2.168 -0.188,-3.488 h -33.972 c 0.472,-6.797 4.91,-11.703 12.269,-11.703 5.281,0 9.059,2.172 10.379,6.227 z"
       style="fill:#ffffff;fill-opacity:1;fill-rule:nonzero;stroke:none"
       id="path1245" /><path
       d="m -289.195,554.2228 h 10.945 l 1.133,-6.699 h 0.754 c 2.926,4.719 6.136,7.64 14.062,7.64 h 3.395 v -12.078 c -1.696,0.285 -3.395,0.379 -5.094,0.379 -10.379,0 -13.117,-7.64 -13.117,-14.437 v -21.985 h -12.078 z"
       style="fill:#ffffff;fill-opacity:1;fill-rule:nonzero;stroke:none"
       id="path1247" /><path
       d="m -250.695,554.2228 h 12.078 v -47.18 h -12.078 z m -1.414,13.305 c 0,4.152 3.492,7.359 7.453,7.359 3.965,0 7.265,-3.207 7.265,-7.359 0,-3.868 -3.3,-7.266 -7.265,-7.266 -3.961,0 -7.453,3.398 -7.453,7.266"
       style="fill:#ffffff;fill-opacity:1;fill-rule:nonzero;stroke:none"
       id="path1249" /><path
       d="m -197.758,527.5198 -10.566,-1.133 c -4.344,-0.473 -7.645,-2.266 -7.645,-5.945 0,-3.774 2.926,-5.098 6.699,-5.098 5.098,0 11.512,2.453 11.512,9.91 z m 16.606,-11.418 v -9.059 h -5.094 c -4.434,0 -7.926,1.321 -9.531,5.66 -3.207,-4.054 -8.114,-6.605 -15.571,-6.605 -9.621,0 -16.699,4.531 -16.699,13.871 0,9.059 6.887,13.492 15.57,14.344 l 14.719,1.512 v 1.98 c 0,5.188 -3.304,7.734 -7.926,7.734 -5.093,0 -7.738,-2.828 -8.492,-7.074 h -12.078 c 0.942,9.813 8.492,16.699 20.57,16.699 11.039,0 20.004,-5.566 20.004,-18.211 v -17.265 c 0,-2.453 1.133,-3.586 3.399,-3.586 z"
       style="fill:#ffffff;fill-opacity:1;fill-rule:nonzero;stroke:none"
       id="path1251" /><path
       d="m -172.184,554.2228 h 11.039 l 1.04,-5.566 h 0.753 c 2.547,3.492 6.512,6.507 12.93,6.507 7.453,0 10.754,-4.054 12.36,-7.453 h 0.753 c 2.551,3.68 6.7,7.453 14.723,7.453 9.719,0 15.945,-5.847 15.945,-17.265 v -30.856 h -12.078 v 28.59 c 0,6.039 -3.586,9.059 -8.113,9.059 -5.098,0 -8.59,-3.774 -8.59,-9.719 v -27.93 H -143.5 v 28.211 c 0,6.231 -3.492,9.438 -8.02,9.438 -4.339,0 -8.585,-3.114 -8.585,-9.625 v -28.024 h -12.079 z"
       style="fill:#ffffff;fill-opacity:1;fill-rule:nonzero;stroke:none"
       id="path1253" /><path
       d="m -54.516,530.7268 c 0,7.832 -5.187,13.965 -12.925,13.965 -7.739,0 -12.832,-6.133 -12.832,-13.965 0,-7.926 5.093,-14.152 12.832,-14.152 7.832,0 12.925,6.226 12.925,14.152 m -37.836,0 c 0,14.531 10.758,24.437 24.911,24.437 14.156,0 24.91,-10 24.91,-24.437 0,-14.625 -10.66,-24.629 -24.91,-24.629 -14.059,0 -24.911,10.098 -24.911,24.629"
       style="fill:#ffffff;fill-opacity:1;fill-rule:nonzero;stroke:none"
       id="path1255" /><path
       d="m -31.863,574.0388 h 12.078 v -66.996 h -12.078 z"
       style="fill:#ffffff;fill-opacity:1;fill-rule:nonzero;stroke:none"
       id="path1257" /><path
       d="M -7.426,554.2228 H 4.652 v -47.18 H -7.426 Z m -1.418,13.305 c 0,4.152 3.492,7.359 7.457,7.359 3.961,0 7.266,-3.207 7.266,-7.359 0,-3.868 -3.305,-7.266 -7.266,-7.266 -3.965,0 -7.457,3.398 -7.457,7.266"
       style="fill:#ffffff;fill-opacity:1;fill-rule:nonzero;stroke:none"
       id="path1259" /><path
       d="m -477.074,425.9608 v 24.817 h -10.098 v 9.535 h 3.207 c 5.758,0 8.024,2.074 8.024,7.168 v 5.664 h 10.945 v -12.832 h 12.359 v -9.535 h -12.359 v -23.211 c 0,-2.641 0.66,-5.848 6.32,-5.848 1.418,0 3.211,0.281 4.625,0.656 v -9.148 c -2.074,-0.477 -4.906,-1.039 -8.304,-1.039 -13.207,0 -14.719,8.586 -14.719,13.773"
       style="fill:#ffffff;fill-opacity:1;fill-rule:nonzero;stroke:none"
       id="path1261" /><path
       d="m -398.66,413.1288 h -11.039 l -1.039,5.567 h -0.754 c -2.832,-3.676 -6.797,-6.508 -13.871,-6.508 -11.231,0 -18.403,7.172 -18.403,19.531 v 28.594 h 12.079 v -26.141 c 0,-7.738 4.437,-11.512 10.191,-11.512 5.66,0 10.758,3.68 10.758,12.079 v 25.574 h 12.078 z"
       style="fill:#ffffff;fill-opacity:1;fill-rule:nonzero;stroke:none"
       id="path1263" /><path
       d="m -380.258,425.9608 v 24.817 h -10.097 v 9.535 h 3.21 c 5.754,0 8.02,2.074 8.02,7.168 v 5.664 h 10.945 v -12.832 h 12.364 v -9.535 h -12.364 v -23.211 c 0,-2.641 0.66,-5.848 6.325,-5.848 1.414,0 3.207,0.281 4.621,0.656 v -9.148 c -2.075,-0.477 -4.907,-1.039 -8.301,-1.039 -13.211,0 -14.723,8.586 -14.723,13.773"
       style="fill:#ffffff;fill-opacity:1;fill-rule:nonzero;stroke:none"
       id="path1265" /><path
       d="m -339.492,425.9608 v 24.817 h -10.098 v 9.535 h 3.207 c 5.758,0 8.024,2.074 8.024,7.168 v 5.664 h 10.945 v -12.832 h 12.359 v -9.535 h -12.359 v -23.211 c 0,-2.641 0.66,-5.848 6.32,-5.848 1.418,0 3.211,0.281 4.625,0.656 v -9.148 c -2.074,-0.477 -4.906,-1.039 -8.304,-1.039 -13.207,0 -14.719,8.586 -14.719,13.773"
       style="fill:#ffffff;fill-opacity:1;fill-rule:nonzero;stroke:none"
       id="path1267" /><path
       d="m -305.898,460.3128 h 12.078 v -47.184 h -12.078 z m -1.414,13.305 c 0,4.148 3.488,7.359 7.453,7.359 3.964,0 7.265,-3.211 7.265,-7.359 0,-3.872 -3.301,-7.266 -7.265,-7.266 -3.965,0 -7.453,3.394 -7.453,7.266"
       style="fill:#ffffff;fill-opacity:1;fill-rule:nonzero;stroke:none"
       id="path1269" /><path
       d="m -367.613,878.0748 -54.551,-106.614 107.34,-0.883 z"
       style="fill:#dd5a3c;fill-opacity:1;fill-rule:nonzero;stroke:none"
       id="path1271" /><path
       d="m -627.168,373.6798 54.551,106.613 -107.34,0.883 z"
       style="fill:#cc3232;fill-opacity:1;fill-rule:nonzero;stroke:none"
       id="path1273" /><path
       d="m -1018.937,637.7698 c -29.575,0 -53.551,23.976 -53.551,53.551 0,29.578 23.976,53.554 53.551,53.554 29.578,0 53.554,-23.976 53.554,-53.554 0,-29.575 -23.976,-53.551 -53.554,-53.551"
       style="fill:#dd5a3c;fill-opacity:1;fill-rule:nonzero;stroke:none"
       id="path1275" /><path
       d="m -1019.23,770.2068 c -29.575,0 -53.551,23.977 -53.551,53.555 0,29.574 23.976,53.551 53.551,53.551 29.578,0 53.55,-23.977 53.55,-53.551 0,-29.578 -23.972,-53.555 -53.55,-53.555"
       style="fill:#d8cd44;fill-opacity:1;fill-rule:nonzero;stroke:none"
       id="path1277" /><path
       d="m -1018.937,506.0428 c -29.575,0 -53.551,23.977 -53.551,53.551 0,29.578 23.976,53.551 53.551,53.551 29.578,0 53.554,-23.973 53.554,-53.551 0,-29.574 -23.976,-53.551 -53.554,-53.551"
       style="fill:#50258e;fill-opacity:1;fill-rule:nonzero;stroke:none"
       id="path1279" /><path
       d="m -1018.937,244.2348 c -29.575,0 -53.551,23.976 -53.551,53.554 0,29.575 23.976,53.551 53.551,53.551 29.578,0 53.554,-23.976 53.554,-53.551 0,-29.578 -23.976,-53.554 -53.554,-53.554"
       style="fill:#dd5a3c;fill-opacity:1;fill-rule:nonzero;stroke:none"
       id="path1281" /><path
       d="m -965.187,421.1568 -106.614,54.55 -0.883,-107.339 z"
       style="fill:#cc3232;fill-opacity:1;fill-rule:nonzero;stroke:none"
       id="path1283" /><path
       d="m 536.289,351.3398 c 29.578,0 53.555,-23.976 53.555,-53.551 0,-29.578 -23.977,-53.554 -53.555,-53.554 -29.574,0 -53.551,23.976 -53.551,53.554 0,29.575 23.977,53.551 53.551,53.551"
       style="fill:#dd5a3c;fill-opacity:1;fill-rule:nonzero;stroke:none"
       id="path1285" /><path
       d="m 483.031,165.3518 c 0,29.574 23.977,53.551 53.555,53.551 29.574,0 53.551,-23.977 53.551,-53.551"
       style="fill:#d8cd44;fill-opacity:1;fill-rule:nonzero;stroke:none"
       id="path1287" /><path
       d="m 536.289,483.0708 c 29.578,0 53.555,-23.981 53.555,-53.555 0,-29.578 -23.977,-53.551 -53.555,-53.551 -29.574,0 -53.551,23.973 -53.551,53.551 0,29.574 23.977,53.555 53.551,53.555"
       style="fill:#dd5a3c;fill-opacity:1;fill-rule:nonzero;stroke:none"
       id="path1289" /><path
       d="m 536.289,744.8748 c 29.578,0 53.555,-23.976 53.555,-53.55 0,-29.579 -23.977,-53.555 -53.555,-53.555 -29.574,0 -53.551,23.976 -53.551,53.555 0,29.574 23.977,53.55 53.551,53.55"
       style="fill:#dd5a3c;fill-opacity:1;fill-rule:nonzero;stroke:none"
       id="path1291" /><path
       d="m 536.289,877.3128 c 29.578,0 53.555,-23.977 53.555,-53.551 0,-29.578 -23.977,-53.555 -53.555,-53.555 -29.574,0 -53.551,23.977 -53.551,53.555 0,29.574 23.977,53.551 53.551,53.551"
       style="fill:#50258e;fill-opacity:1;fill-rule:nonzero;stroke:none"
       id="path1293" /><path
       d="M 201.574,692.8948 94.957,638.3438 94.074,745.6878 Z"
       style="fill:#d8cd44;fill-opacity:1;fill-rule:nonzero;stroke:none"
       id="path1295" /><path
       d="m 403.984,481.1798 54.555,-106.617 -107.344,-0.883 z"
       style="fill:#d8cd44;fill-opacity:1;fill-rule:nonzero;stroke:none"
       id="path1297" /><path
       d="m 278.457,770.2068 c -29.578,0 -53.555,23.977 -53.555,53.555 0,29.574 23.977,53.551 53.555,53.551"
       style="fill:#50258e;fill-opacity:1;fill-rule:nonzero;stroke:none"
       id="path1299" /><path
       d="m 278.457,637.7698 c -29.578,0 -53.555,23.976 -53.555,53.551 0,29.578 23.977,53.554 53.555,53.554 29.574,0 53.551,-23.976 53.551,-53.554 0,-29.575 -23.977,-53.551 -53.551,-53.551"
       style="fill:#dd5a3c;fill-opacity:1;fill-rule:nonzero;stroke:none"
       id="path1301" /><path
       d="m 278.457,111.7968 c -29.578,0 -53.555,23.977 -53.555,53.555 0,29.574 23.977,53.551 53.555,53.551 29.574,0 53.551,-23.977 53.551,-53.551 0,-29.578 -23.977,-53.555 -53.551,-53.555"
       style="fill:#50258e;fill-opacity:1;fill-rule:nonzero;stroke:none"
       id="path1303" /><path
       d="m 324.703,532.6018 v 53.461 l -46.301,26.73 -46.297,-26.73 v -53.461 l 46.297,-26.734 z"
       style="fill:#dd5a3c;fill-opacity:1;fill-rule:nonzero;stroke:none"
       id="path1305" /><path
       d="m 404.867,637.7698 c -29.574,0 -53.554,23.976 -53.554,53.551 0,29.578 23.98,53.554 53.554,53.554 29.574,0 53.551,-23.976 53.551,-53.554 0,-29.575 -23.977,-53.551 -53.551,-53.551"
       style="fill:#50258e;fill-opacity:1;fill-rule:nonzero;stroke:none"
       id="path1307" /><path
       d="m 404.867,506.0428 c -29.574,0 -53.554,23.977 -53.554,53.551 0,29.578 23.98,53.551 53.554,53.551 29.574,0 53.551,-23.973 53.551,-53.551 0,-29.574 -23.977,-53.551 -53.551,-53.551"
       style="fill:#50258e;fill-opacity:1;fill-rule:nonzero;stroke:none"
       id="path1309" /><path
       d="m 404.867,244.2348 c 29.574,0 53.551,23.976 53.551,53.554 0,29.575 -23.977,53.551 -53.551,53.551 h -126.41 c -29.578,0 -53.555,-23.976 -53.555,-53.551 0,-29.578 23.977,-53.554 53.555,-53.554"
       style="fill:#dd5a3c;fill-opacity:1;fill-rule:nonzero;stroke:none"
       id="path1311" /><path
       d="m 404.867,111.7968 c -29.574,0 -53.554,23.977 -53.554,53.555 0,29.574 23.98,53.551 53.554,53.551 29.574,0 53.551,-23.977 53.551,-53.551 0,-29.578 -23.977,-53.555 -53.551,-53.555"
       style="fill:#50258e;fill-opacity:1;fill-rule:nonzero;stroke:none"
       id="path1313" /><path
       d="m -193.301,138.9568 v 53.461 l -46.301,26.731 -46.296,-26.731 v -53.461 l 46.296,-26.73 z"
       style="fill:#50258e;fill-opacity:1;fill-rule:nonzero;stroke:none"
       id="path1315" /><path
       d="m 148.297,770.5468 c -29.574,0 -53.551,23.977 -53.551,53.551 0,29.578 23.977,53.555 53.551,53.555 29.578,0 53.555,-23.977 53.555,-53.555 0,-29.574 -23.977,-53.551 -53.555,-53.551"
       style="fill:#cc3232;fill-opacity:1;fill-rule:nonzero;stroke:none"
       id="path1317" /><path
       d="m 94.746,427.7928 c 0,-29.574 23.977,-53.55 53.551,-53.55 29.578,0 53.551,23.976 53.551,53.55 v 132.141 c 0,29.574 -23.973,53.551 -53.551,53.551 -29.574,0 -53.551,-23.977 -53.551,-53.551"
       style="fill:#50258e;fill-opacity:1;fill-rule:nonzero;stroke:none"
       id="path1319" /><path
       d="m 148.297,244.5748 c -29.574,0 -53.551,23.976 -53.551,53.55 0,29.578 23.977,53.555 53.551,53.555 29.578,0 53.555,-23.977 53.555,-53.555 0,-29.574 -23.977,-53.55 -53.555,-53.55"
       style="fill:#50258e;fill-opacity:1;fill-rule:nonzero;stroke:none"
       id="path1321" /><path
       d="m 201.848,165.6878 c 0,-29.574 -23.973,-53.551 -53.551,-53.551 -29.574,0 -53.551,23.977 -53.551,53.551"
       style="fill:#dd5a3c;fill-opacity:1;fill-rule:nonzero;stroke:none"
       id="path1323" /><path
       d="m -942.672,692.8948 106.613,-54.551 0.883,107.344 z"
       style="fill:#dd5a3c;fill-opacity:1;fill-rule:nonzero;stroke:none"
       id="path1325" /><path
       d="m -703.738,823.7618 c 0,-29.578 -23.977,-53.555 -53.555,-53.555 -29.574,0 -53.551,23.977 -53.551,53.555"
       style="fill:#50258e;fill-opacity:1;fill-rule:nonzero;stroke:none"
       id="path1327" /><path
       d="m -757.293,373.8788 c -29.574,0 -53.551,23.973 -53.551,53.551 0,29.574 23.977,53.551 53.551,53.551 29.578,0 53.555,-23.977 53.555,-53.551 0,-29.578 -23.977,-53.551 -53.555,-53.551"
       style="fill:#cc3232;fill-opacity:1;fill-rule:nonzero;stroke:none"
       id="path1329" /><path
       d="m -757.293,506.0428 c -29.574,0 -53.551,23.977 -53.551,53.551 0,29.578 23.977,53.551 53.551,53.551 29.578,0 53.555,-23.973 53.555,-53.551 0,-29.574 -23.977,-53.551 -53.555,-53.551"
       style="fill:#d8cd44;fill-opacity:1;fill-rule:nonzero;stroke:none"
       id="path1331" /><path
       d="m -757.293,351.3398 c 29.578,0 53.555,-23.976 53.555,-53.551 0,-29.578 -23.977,-53.554 -53.555,-53.554"
       style="fill:#dd5a3c;fill-opacity:1;fill-rule:nonzero;stroke:none"
       id="path1333" /><path
       d="m -757.293,111.7968 c -29.574,0 -53.551,23.977 -53.551,53.555 0,29.574 23.977,53.551 53.551,53.551 29.578,0 53.555,-23.977 53.555,-53.551 0,-29.578 -23.977,-53.555 -53.555,-53.555"
       style="fill:#d8cd44;fill-opacity:1;fill-rule:nonzero;stroke:none"
       id="path1335" /><path
       d="m -711.043,664.5898 v 53.465 l -46.301,26.73 -46.297,-26.73 v -53.465 l 46.297,-26.73 z"
       style="fill:#cc3232;fill-opacity:1;fill-rule:nonzero;stroke:none"
       id="path1337" /><path
       d="m 582.59,534.4218 v 53.465 l -46.301,26.731 -46.301,-26.731 v -53.465 l 46.301,-26.73 z"
       style="fill:#cc3232;fill-opacity:1;fill-rule:nonzero;stroke:none"
       id="path1339" /><path
       d="m 64.492,797.3678 v 53.464 l -46.301,26.731 -46.3,-26.731 v -53.464 l 46.3,-26.731 z"
       style="fill:#50258e;fill-opacity:1;fill-rule:nonzero;stroke:none"
       id="path1341" /><path
       d="m -972.637,136.8948 v 53.461 l -46.3,26.73 -46.301,-26.73 v -53.461 l 46.301,-26.731 z"
       style="fill:#50258e;fill-opacity:1;fill-rule:nonzero;stroke:none"
       id="path1343" /><path
       d="m -888.449,770.5468 c -29.578,0 -53.551,23.977 -53.551,53.551 0,29.578 23.973,53.555 53.551,53.555 29.574,0 53.551,-23.977 53.551,-53.555 0,-29.574 -23.977,-53.551 -53.551,-53.551"
       style="fill:#cc3232;fill-opacity:1;fill-rule:nonzero;stroke:none"
       id="path1345" /><path
       d="m -942.004,427.7928 c 0,-29.574 23.977,-53.55 53.555,-53.55 29.574,0 53.551,23.976 53.551,53.55 v 132.141 c 0,29.574 -23.977,53.551 -53.551,53.551 -29.578,0 -53.555,-23.977 -53.555,-53.551"
       style="fill:#d8cd44;fill-opacity:1;fill-rule:nonzero;stroke:none"
       id="path1347" /><path
       d="m -888.449,244.5748 c -29.578,0 -53.551,23.976 -53.551,53.55 0,29.578 23.973,53.555 53.551,53.555 29.574,0 53.551,-23.977 53.551,-53.555 0,-29.574 -23.977,-53.55 -53.551,-53.55"
       style="fill:#50258e;fill-opacity:1;fill-rule:nonzero;stroke:none"
       id="path1349" /><path
       d="m -888.449,112.1368 c -29.578,0 -53.551,23.977 -53.551,53.551 0,29.578 23.973,53.551 53.551,53.551 29.574,0 53.551,-23.973 53.551,-53.551 0,-29.574 -23.977,-53.551 -53.551,-53.551"
       style="fill:#dd5a3c;fill-opacity:1;fill-rule:nonzero;stroke:none"
       id="path1351" /><text
       xml:space="preserve"
       style="font-size:31px;line-height:1.25;font-family:'Cascadia Code';-inkscape-font-specification:'Cascadia Code';letter-spacing:0px;word-spacing:0px;fill:#ffffff;stroke-width:0.75"
       x="-281.63034"
       y="-431.04129"
       id="text1607"
       transform="scale(1,-1)"><tspan
         sodipodi:role="line"
         id="tspan1605"
         x="-281.63034"
         y="-431.04129"
         style="font-style:normal;font-variant:normal;font-weight:bold;font-stretch:normal;font-size:31px;font-family:'Open Sans';-inkscape-font-specification:'Open Sans Bold';fill:#ffffff;stroke-width:0.75">#datiBeneComune</tspan></text></g></svg>
