<?xml version="1.0" encoding="UTF-8" standalone="no"?>
<!-- Created with Inkscape (http://www.inkscape.org/) -->

<svg
   version="1.1"
   id="svg2"
   xml:space="preserve"
   width="64"
   height="64"
   viewBox="0 0 64 63.999999"
   sodipodi:docname="favicon.svg"
   inkscape:version="1.1 (c68e22c387, 2021-05-23)"
   inkscape:export-filename="C:\Users\aborr\Documents\GitHub\i-dati-che-vorrei\risorse\grafica\Logo\Nero\g1500.png"
   inkscape:export-xdpi="96"
   inkscape:export-ydpi="96"
   xmlns:inkscape="http://www.inkscape.org/namespaces/inkscape"
   xmlns:sodipodi="http://sodipodi.sourceforge.net/DTD/sodipodi-0.dtd"
   xmlns="http://www.w3.org/2000/svg"
   xmlns:svg="http://www.w3.org/2000/svg"><defs
     id="defs6"><clipPath
       clipPathUnits="userSpaceOnUse"
       id="clipPath20"><path
         d="M 0,251.314 H 368.948 V 0 H 0 Z"
         id="path18" /></clipPath></defs><sodipodi:namedview
     id="namedview4"
     pagecolor="#ffffff"
     bordercolor="#666666"
     borderopacity="1.0"
     inkscape:pageshadow="2"
     inkscape:pageopacity="0.0"
     inkscape:pagecheckerboard="0"
     showgrid="false"
     fit-margin-top="0"
     fit-margin-left="0"
     fit-margin-right="0"
     fit-margin-bottom="0"
     inkscape:zoom="1"
     inkscape:cx="8"
     inkscape:cy="41.5"
     inkscape:window-width="2560"
     inkscape:window-height="1009"
     inkscape:window-x="1912"
     inkscape:window-y="-8"
     inkscape:window-maximized="1"
     inkscape:current-layer="g8" /><g
     id="g8"
     inkscape:groupmode="layer"
     inkscape:label="DBC_Logo_B"
     transform="matrix(1.3333333,0,0,-1.3333333,-204.15531,235.123)"><rect
       style="fill:#ffffff;stroke-width:1.76347"
       id="rect1392"
       width="48"
       height="48"
       x="153.11649"
       y="-176.34225"
       transform="scale(1,-1)"
       inkscape:export-filename="C:\Users\aborr\Desktop\favicon.png"
       inkscape:export-xdpi="96"
       inkscape:export-ydpi="96" /><g
       id="g1500"
       transform="matrix(0.2743689,0,0,0.2743689,97.950373,108.02649)"
       inkscape:export-filename="C:\Users\aborr\Desktop\favicon.png"
       inkscape:export-xdpi="96"
       inkscape:export-ydpi="96"><g
         id="g10"
         transform="translate(220.2003,201.5343)"><path
           d="m 0,0 56.971,-29.149 0.471,57.357 z"
           style="fill:#d8cd44;fill-opacity:1;fill-rule:nonzero;stroke:none"
           id="path12" /></g><g
         id="g22"
         transform="translate(248.922,150.5275)"><path
           d="M 0,0 C 15.804,0 28.615,-12.812 28.615,-28.616 28.615,-44.42 15.804,-57.232 0,-57.232"
           style="fill:#dd5a3c;fill-opacity:1;fill-rule:nonzero;stroke:none"
           id="path24" /></g><g
         id="g26"
         transform="translate(353.0021,186.7794)"><path
           d="M 0,0 V 28.568 L -24.74,42.852 -49.48,28.568 V 0 l 24.74,-14.284 z"
           style="fill:#cc3232;fill-opacity:1;fill-rule:nonzero;stroke:none"
           id="path28" /></g><g
         id="g30"
         transform="translate(299.6456,121.9117)"><path
           d="M 0,0 C 0,15.804 12.813,28.616 28.616,28.616 44.421,28.616 57.232,15.804 57.232,0 57.232,-15.805 44.421,-28.616 28.616,-28.616 12.813,-28.616 0,-15.805 0,0"
           style="fill:#50258e;fill-opacity:1;fill-rule:nonzero;stroke:none"
           id="path32" /></g></g></g></svg>
