<?xml version="1.0" encoding="UTF-8" standalone="no"?>
<!-- Created with Inkscape (http://www.inkscape.org/) -->

<svg
   version="1.1"
   id="svg2"
   xml:space="preserve"
   width="1200"
   height="627"
   viewBox="0 0 1200 627.00001"
   sodipodi:docname="opengraph.svg"
   inkscape:version="1.1 (c68e22c387, 2021-05-23)"
   inkscape:export-filename="C:\Users\aborr\Documents\GitHub\i-dati-che-vorrei\docs\images\preview.png"
   inkscape:export-xdpi="96"
   inkscape:export-ydpi="96"
   xmlns:inkscape="http://www.inkscape.org/namespaces/inkscape"
   xmlns:sodipodi="http://sodipodi.sourceforge.net/DTD/sodipodi-0.dtd"
   xmlns="http://www.w3.org/2000/svg"
   xmlns:svg="http://www.w3.org/2000/svg"><defs
     id="defs6"><clipPath
       clipPathUnits="userSpaceOnUse"
       id="clipPath20"><path
         d="M 0,251.314 H 368.948 V 0 H 0 Z"
         id="path18" /></clipPath></defs><sodipodi:namedview
     id="namedview4"
     pagecolor="#ffffff"
     bordercolor="#666666"
     borderopacity="1.0"
     inkscape:pageshadow="2"
     inkscape:pageopacity="0.0"
     inkscape:pagecheckerboard="0"
     showgrid="false"
     inkscape:zoom="0.79450123"
     inkscape:cx="676.52507"
     inkscape:cy="388.29392"
     inkscape:window-width="2560"
     inkscape:window-height="1009"
     inkscape:window-x="1912"
     inkscape:window-y="-8"
     inkscape:window-maximized="1"
     inkscape:current-layer="g8"
     inkscape:snap-page="true" /><g
     id="g8"
     inkscape:groupmode="layer"
     inkscape:label="DBC_Logo_B"
     transform="matrix(1.3333333,0,0,-1.3333333,0,335.08533)"><rect
       style="fill:#ffffff;stroke-width:5.32627"
       id="rect883"
       width="900"
       height="470.25003"
       x="3.1086245e-14"
       y="-251.31401"
       transform="scale(1,-1)"
       inkscape:export-filename="C:\Users\aborr\Documents\GitHub\i-dati-che-vorrei\docs\images\preview.png"
       inkscape:export-xdpi="96"
       inkscape:export-ydpi="96" /><g
       id="g983"
       transform="translate(8.740679,-8.6002746)"><g
         id="g10"
         transform="matrix(1.6162183,0,0,1.6162183,496.29446,141.85891)"><path
           d="m 0,0 56.971,-29.149 0.471,57.357 z"
           style="fill:#d8cd44;fill-opacity:1;fill-rule:nonzero;stroke:none"
           id="path12" /></g><g
         id="g14"
         transform="matrix(1.6162183,0,0,1.6162183,140.40272,-183.86451)"><g
           id="g16"
           clip-path="url(#clipPath20)"><g
             id="g22"
             transform="translate(248.922,150.5275)"><path
               d="M 0,0 C 15.804,0 28.615,-12.812 28.615,-28.616 28.615,-44.42 15.804,-57.232 0,-57.232"
               style="fill:#dd5a3c;fill-opacity:1;fill-rule:nonzero;stroke:none"
               id="path24" /></g><g
             id="g26"
             transform="translate(353.0021,186.7794)"><path
               d="M 0,0 V 28.568 L -24.74,42.852 -49.48,28.568 V 0 l 24.74,-14.284 z"
               style="fill:#cc3232;fill-opacity:1;fill-rule:nonzero;stroke:none"
               id="path28" /></g><g
             id="g30"
             transform="translate(299.6456,121.9117)"><path
               d="M 0,0 C 0,15.804 12.813,28.616 28.616,28.616 44.421,28.616 57.232,15.804 57.232,0 57.232,-15.805 44.421,-28.616 28.616,-28.616 12.813,-28.616 0,-15.805 0,0"
               style="fill:#50258e;fill-opacity:1;fill-rule:nonzero;stroke:none"
               id="path32" /></g><g
             id="g34"
             transform="translate(48.8795,200.6227)"><path
               d="m 0,0 c 0,8.011 -4.461,13.473 -11.379,13.473 -6.919,0 -11.562,-5.462 -11.562,-13.473 0,-8.193 4.643,-13.655 11.562,-13.655 C -4.461,-13.655 0,-8.193 0,0 M 11.652,41.785 V -22.85 H 2.185 l -1.002,5.371 H 0.364 C -1.821,-20.392 -6.1,-23.76 -13.2,-23.76 c -12.198,0 -21.393,9.285 -21.393,23.76 0,14.838 9.468,23.578 21.393,23.578 6.19,0 10.742,-2.458 13.2,-5.189 v 23.396 z"
               style="fill:#1d1d1b;fill-opacity:1;fill-rule:nonzero;stroke:none"
               id="path36" /></g><g
             id="g38"
             transform="translate(99.9454,197.5275)"><path
               d="m 0,0 -10.196,-1.092 c -4.187,-0.455 -7.374,-2.185 -7.374,-5.736 0,-3.641 2.822,-4.916 6.464,-4.916 4.916,0 11.106,2.368 11.106,9.559 z m 16.022,-11.015 v -8.739 h -4.916 c -4.278,0 -7.647,1.274 -9.194,5.462 -3.096,-3.915 -7.829,-6.373 -15.021,-6.373 -9.286,0 -16.113,4.37 -16.113,13.382 0,8.74 6.645,13.018 15.021,13.837 L 0,8.011 v 1.912 c 0,5.007 -3.186,7.464 -7.647,7.464 -4.916,0 -7.465,-2.731 -8.193,-6.827 h -11.652 c 0.91,9.467 8.193,16.113 19.845,16.113 10.651,0 19.299,-5.371 19.299,-17.569 v -16.66 c 0,-2.367 1.093,-3.459 3.278,-3.459 z"
               style="fill:#1d1d1b;fill-opacity:1;fill-rule:nonzero;stroke:none"
               id="path40" /></g><g
             id="g42"
             transform="translate(128.7096,190.1539)"><path
               d="m 0,0 v 23.942 h -9.741 v 9.194 h 3.095 c 5.554,0 7.738,2.003 7.738,6.919 v 5.462 h 10.56 V 33.136 H 23.578 V 23.942 H 11.652 V 1.547 c 0,-2.548 0.638,-5.644 6.099,-5.644 1.366,0 3.096,0.273 4.461,0.638 v -8.831 c -2.003,-0.455 -4.733,-1.001 -8.011,-1.001 C 1.457,-13.291 0,-5.007 0,0"
               style="fill:#1d1d1b;fill-opacity:1;fill-rule:nonzero;stroke:none"
               id="path44" /></g><path
             d="m 161.114,223.29 h 11.652 v -45.517 h -11.652 z m -1.365,12.836 c 0,4.005 3.368,7.101 7.192,7.101 3.823,0 7.009,-3.096 7.009,-7.101 0,-3.733 -3.186,-7.01 -7.009,-7.01 -3.824,0 -7.192,3.277 -7.192,7.01"
             style="fill:#1d1d1b;fill-opacity:1;fill-rule:nonzero;stroke:none"
             id="path46" /><g
             id="g48"
             transform="translate(50.0626,119.6774)"><path
               d="M 0,0 C 0,8.011 -4.643,13.473 -11.561,13.473 -18.479,13.473 -22.94,8.011 -22.94,0 c 0,-8.193 4.461,-13.655 11.379,-13.655 C -4.643,-13.655 0,-8.193 0,0 m 11.652,0 c 0,-14.475 -9.194,-23.76 -21.392,-23.76 -7.101,0 -11.38,3.368 -13.565,6.281 h -0.819 l -1.001,-5.371 h -9.468 V 41.785 H -22.94 V 18.389 c 2.458,2.731 7.009,5.189 13.2,5.189 11.925,0 21.392,-8.74 21.392,-23.578"
               style="fill:#1d1d1b;fill-opacity:1;fill-rule:nonzero;stroke:none"
               id="path50" /></g><g
             id="g52"
             transform="translate(81.6486,124.3199)"><path
               d="M 0,0 H 21.757 C 21.484,5.644 17.296,9.649 11.288,9.649 5.007,9.649 0.819,5.462 0,0 m 32.954,-13.108 c -1.82,-9.377 -9.649,-15.294 -21.211,-15.294 -13.564,0 -23.395,9.194 -23.395,23.214 0,15.02 10.378,24.123 22.94,24.123 11.197,0 21.575,-7.101 21.575,-23.395 0,-1.093 -0.091,-2.095 -0.182,-3.369 H -0.091 c 0.455,-6.555 4.734,-11.288 11.834,-11.288 5.098,0 8.739,2.094 10.014,6.009 z"
               style="fill:#1d1d1b;fill-opacity:1;fill-rule:nonzero;stroke:none"
               id="path54" /></g><g
             id="g56"
             transform="translate(125.1598,142.3448)"><path
               d="m 0,0 h 10.651 l 1.001,-5.371 h 0.729 c 2.731,3.55 6.554,6.281 13.382,6.281 10.833,0 17.751,-6.918 17.751,-18.844 V -45.517 H 31.862 v 25.216 c 0,7.465 -4.279,11.107 -9.741,11.107 -5.553,0 -10.469,-3.551 -10.469,-11.653 v -24.67 H 0 Z"
               style="fill:#1d1d1b;fill-opacity:1;fill-rule:nonzero;stroke:none"
               id="path58" /></g><g
             id="g60"
             transform="translate(190.2467,124.3199)"><path
               d="M 0,0 H 21.757 C 21.484,5.644 17.296,9.649 11.288,9.649 5.007,9.649 0.819,5.462 0,0 m 32.955,-13.108 c -1.822,-9.377 -9.651,-15.294 -21.212,-15.294 -13.564,0 -23.395,9.194 -23.395,23.214 0,15.02 10.378,24.123 22.94,24.123 11.197,0 21.575,-7.101 21.575,-23.395 0,-1.093 -0.091,-2.095 -0.182,-3.369 H -0.091 c 0.455,-6.555 4.734,-11.288 11.834,-11.288 5.098,0 8.74,2.094 10.014,6.009 z"
               style="fill:#1d1d1b;fill-opacity:1;fill-rule:nonzero;stroke:none"
               id="path62" /></g><g
             id="g64"
             transform="translate(14.1954,38.4596)"><path
               d="m 0,0 c 0,14.293 10.378,23.852 23.669,23.852 10.56,0 20.574,-5.645 22.03,-17.571 H 34.047 C 33.045,10.469 29.131,13.746 23.669,13.746 16.75,13.746 11.652,8.103 11.652,0 c 0,-8.011 4.734,-13.382 12.199,-13.382 5.28,0 8.83,2.367 10.287,6.555 H 45.881 C 44.333,-17.023 35.685,-23.486 23.851,-23.486 9.649,-23.486 0,-13.746 0,0"
               style="fill:#1d1d1b;fill-opacity:1;fill-rule:nonzero;stroke:none"
               id="path66" /></g><g
             id="g68"
             transform="translate(104.0421,38.733)"><path
               d="m 0,0 c 0,7.556 -5.007,13.473 -12.472,13.473 -7.464,0 -12.38,-5.917 -12.38,-13.473 0,-7.646 4.916,-13.655 12.38,-13.655 C -4.916,-13.655 0,-7.646 0,0 m -36.504,0 c 0,14.02 10.378,23.578 24.032,23.578 13.656,0 24.034,-9.65 24.034,-23.578 0,-14.11 -10.288,-23.76 -24.034,-23.76 -13.564,0 -24.032,9.74 -24.032,23.76"
               style="fill:#1d1d1b;fill-opacity:1;fill-rule:nonzero;stroke:none"
               id="path70" /></g><g
             id="g72"
             transform="translate(125.796,61.4)"><path
               d="m 0,0 h 10.651 l 1.001,-5.371 h 0.729 c 2.457,3.369 6.281,6.282 12.472,6.282 7.191,0 10.377,-3.915 11.925,-7.192 h 0.728 c 2.458,3.551 6.463,7.192 14.202,7.192 9.376,0 15.384,-5.644 15.384,-16.659 V -45.517 H 55.439 v 27.583 c 0,5.827 -3.459,8.74 -7.828,8.74 -4.916,0 -8.284,-3.641 -8.284,-9.376 V -45.517 H 27.674 v 27.219 c 0,6.009 -3.368,9.104 -7.737,9.104 -4.188,0 -8.285,-3.004 -8.285,-9.285 V -45.517 H 0 Z"
               style="fill:#1d1d1b;fill-opacity:1;fill-rule:nonzero;stroke:none"
               id="path74" /></g><g
             id="g76"
             transform="translate(247.9581,15.8834)"><path
               d="m 0,0 h -10.65 l -1.002,5.371 h -0.729 c -2.73,-3.551 -6.554,-6.281 -13.382,-6.281 -10.833,0 -17.751,6.918 -17.751,18.844 v 27.583 h 11.653 V 20.301 c 0,-7.465 4.278,-11.107 9.831,-11.107 5.462,0 10.378,3.551 10.378,11.653 v 24.67 H 0 Z"
               style="fill:#1d1d1b;fill-opacity:1;fill-rule:nonzero;stroke:none"
               id="path78" /></g><g
             id="g80"
             transform="translate(260.0616,61.4)"><path
               d="m 0,0 h 10.651 l 1.001,-5.371 h 0.729 c 2.73,3.551 6.555,6.282 13.382,6.282 10.833,0 17.752,-6.919 17.752,-18.845 V -45.517 H 31.862 V -20.3 c 0,7.465 -4.279,11.106 -9.741,11.106 -5.553,0 -10.469,-3.55 -10.469,-11.653 v -24.67 H 0 Z"
               style="fill:#1d1d1b;fill-opacity:1;fill-rule:nonzero;stroke:none"
               id="path82" /></g><g
             id="g84"
             transform="translate(325.1476,43.3756)"><path
               d="M 0,0 H 21.757 C 21.484,5.645 17.297,9.649 11.288,9.649 5.007,9.649 0.819,5.462 0,0 m 32.954,-13.108 c -1.82,-9.377 -9.649,-15.294 -21.211,-15.294 -13.563,0 -23.395,9.194 -23.395,23.214 0,15.02 10.378,24.124 22.94,24.124 11.197,0 21.575,-7.102 21.575,-23.397 0,-1.092 -0.091,-2.094 -0.181,-3.368 H -0.091 c 0.455,-6.554 4.734,-11.288 11.834,-11.288 5.098,0 8.739,2.094 10.014,6.009 z"
               style="fill:#1d1d1b;fill-opacity:1;fill-rule:nonzero;stroke:none"
               id="path86" /></g></g></g></g></g></svg>
