<?xml version="1.0" encoding="UTF-8" standalone="no"?>
<svg
   version="1.1"
   id="svg2"
   xml:space="preserve"
   width="1200"
   height="630"
   viewBox="0 0 1200 630.00002"
   sodipodi:docname="opengraph-font-tracciato.svg"
   inkscape:version="1.1 (c68e22c387, 2021-05-23)"
   xmlns:inkscape="http://www.inkscape.org/namespaces/inkscape"
   xmlns:sodipodi="http://sodipodi.sourceforge.net/DTD/sodipodi-0.dtd"
   xmlns="http://www.w3.org/2000/svg"
   xmlns:svg="http://www.w3.org/2000/svg"
   xmlns:rdf="http://www.w3.org/1999/02/22-rdf-syntax-ns#"
   xmlns:cc="http://creativecommons.org/ns#"
   xmlns:dc="http://purl.org/dc/elements/1.1/"><metadata
     id="metadata8"><rdf:RDF><cc:Work
         rdf:about=""><dc:format>image/svg+xml</dc:format><dc:type
           rdf:resource="http://purl.org/dc/dcmitype/StillImage" /></cc:Work></rdf:RDF></metadata><defs
     id="defs6"><clipPath
       clipPathUnits="userSpaceOnUse"
       id="clipPath20"><path
         d="M 0,1000 H 1930 V 0 H 0 Z"
         id="path18" /></clipPath></defs><sodipodi:namedview
     pagecolor="#ffffff"
     bordercolor="#666666"
     borderopacity="1"
     objecttolerance="10"
     gridtolerance="10"
     guidetolerance="10"
     inkscape:pageopacity="0"
     inkscape:pageshadow="2"
     inkscape:window-width="2560"
     inkscape:window-height="1009"
     id="namedview4"
     showgrid="false"
     inkscape:zoom="1"
     inkscape:cx="489.5"
     inkscape:cy="317.5"
     inkscape:window-x="1912"
     inkscape:window-y="-8"
     inkscape:window-maximized="1"
     inkscape:current-layer="layer1"
     inkscape:pagecheckerboard="0"
     fit-margin-top="0"
     fit-margin-left="0"
     fit-margin-right="0"
     fit-margin-bottom="0"
     inkscape:snap-text-baseline="true"
     inkscape:snap-bbox="true"
     inkscape:bbox-nodes="true"
     inkscape:bbox-paths="true"
     inkscape:snap-bbox-edge-midpoints="true" /><g
     inkscape:groupmode="layer"
     id="layer2"
     inkscape:label="DBC_2_1930x1002"
     sodipodi:insensitive="true"><path
       d="M 0,630 H 1200 V 0 H 0 Z"
       style="fill:#1d1d1b;fill-opacity:1;fill-rule:nonzero;stroke:none;stroke-width:0.625865"
       id="path12" /></g><g
     id="g10"
     inkscape:groupmode="layer"
     inkscape:label="DBC_2_1930x1000"
     transform="matrix(1.3333333,0,0,-1.3333333,0,1333.3333)"
     sodipodi:insensitive="true"><g
       id="g2252"><g
         id="g22"
         transform="matrix(0.47250001,0,0,0.47250001,511.71808,894.20209)"><path
           d="m 0,0 c -29.576,0 -53.553,23.976 -53.553,53.552 0,29.576 23.977,53.552 53.553,53.552 29.576,0 53.552,-23.976 53.552,-53.552 C 53.552,23.976 29.576,0 0,0"
           style="fill:#50258e;fill-opacity:1;fill-rule:nonzero;stroke:none"
           id="path24" /></g><g
         id="g26"
         transform="matrix(0.47250001,0,0,0.47250001,450.81448,894.20209)"><path
           d="m 0,0 c -29.576,0 -53.552,23.976 -53.552,53.552 0,29.576 23.976,53.552 53.552,53.552 29.576,0 53.553,-23.976 53.553,-53.552 C 53.553,23.976 29.576,0 0,0"
           style="fill:#d8cd44;fill-opacity:1;fill-rule:nonzero;stroke:none"
           id="path28" /></g><g
         id="g30"
         transform="matrix(0.47250001,0,0,0.47250001,755.32505,894.20209)"><path
           d="m 0,0 c -29.576,0 -53.553,23.976 -53.553,53.552 0,29.576 23.977,53.552 53.553,53.552 29.576,0 53.552,-23.976 53.552,-53.552 C 53.552,23.976 29.576,0 0,0"
           style="fill:#d8cd44;fill-opacity:1;fill-rule:nonzero;stroke:none"
           id="path32" /></g><g
         id="g34"
         transform="matrix(0.47250001,0,0,0.47250001,450.81448,882.23183)"><path
           d="m 0,0 c -29.576,0 -53.552,-23.976 -53.552,-53.552 0,-29.576 23.976,-53.552 53.552,-53.552 h 128.896 c 29.577,0 53.552,23.976 53.552,53.552 C 182.448,-23.976 158.473,0 128.896,0"
           style="fill:#d8cd44;fill-opacity:1;fill-rule:nonzero;stroke:none"
           id="path36" /></g><g
         id="g38"
         transform="matrix(0.47250001,0,0,0.47250001,389.91135,831.62495)"><path
           d="m 0,0 c -29.576,0 -53.552,23.976 -53.552,53.552 0,29.576 23.976,53.552 53.552,53.552 29.576,0 53.552,-23.976 53.552,-53.552 C 53.552,23.976 29.576,0 0,0"
           style="fill:#cc3232;fill-opacity:1;fill-rule:nonzero;stroke:none"
           id="path40" /></g><g
         id="g42"
         transform="matrix(0.47250001,0,0,0.47250001,329.00799,894.20209)"><path
           d="m 0,0 c -29.576,0 -53.552,23.976 -53.552,53.552 0,29.576 23.976,53.552 53.552,53.552 29.576,0 53.552,-23.976 53.552,-53.552 C 53.552,23.976 29.576,0 0,0"
           style="fill:#50258e;fill-opacity:1;fill-rule:nonzero;stroke:none"
           id="path44" /></g><g
         id="g46"
         transform="matrix(0.47250001,0,0,0.47250001,329.00799,831.62495)"><path
           d="m 0,0 c -29.576,0 -53.552,23.976 -53.552,53.552 0,29.576 23.976,53.552 53.552,53.552 29.576,0 53.552,-23.976 53.552,-53.552 C 53.552,23.976 29.576,0 0,0"
           style="fill:#cc3232;fill-opacity:1;fill-rule:nonzero;stroke:none"
           id="path48" /></g><g
         id="g50"
         transform="matrix(0.47250001,0,0,0.47250001,268.10487,831.62495)"><path
           d="m 0,0 c -29.576,0 -53.552,23.976 -53.552,53.552 0,29.576 23.976,53.552 53.552,53.552 29.576,0 53.552,-23.976 53.552,-53.552 C 53.552,23.976 29.576,0 0,0"
           style="fill:#dd5a3c;fill-opacity:1;fill-rule:nonzero;stroke:none"
           id="path52" /></g><g
         id="g54"
         transform="matrix(0.47250001,0,0,0.47250001,486.41438,670.98345)"><path
           d="M 0,0 C 0,29.576 23.977,53.552 53.553,53.552 83.129,53.552 107.104,29.576 107.104,0"
           style="fill:#cc3232;fill-opacity:1;fill-rule:nonzero;stroke:none"
           id="path56" /></g><g
         id="g58"
         transform="matrix(0.47250001,0,0,0.47250001,511.71808,583.10261)"><path
           d="m 0,0 c -29.576,0 -53.553,23.977 -53.553,53.553 0,29.576 23.977,53.551 53.553,53.551 29.576,0 53.552,-23.975 53.552,-53.551 C 53.552,23.977 29.576,0 0,0"
           style="fill:#50258e;fill-opacity:1;fill-rule:nonzero;stroke:none"
           id="path60" /></g><g
         id="g62"
         transform="matrix(0.47250001,0,0,0.47250001,572.6212,831.62495)"><path
           d="m 0,0 c -29.576,0 -53.552,23.976 -53.552,53.552 0,29.576 23.976,53.552 53.552,53.552 29.576,0 53.553,-23.976 53.553,-53.552 C 53.553,23.976 29.576,0 0,0"
           style="fill:#50258e;fill-opacity:1;fill-rule:nonzero;stroke:none"
           id="path64" /></g><g
         id="g66"
         transform="matrix(0.47250001,0,0,0.47250001,572.6212,645.6798)"><path
           d="m 0,0 c -29.576,0 -53.552,23.977 -53.552,53.553 0,29.576 23.976,53.551 53.552,53.551 29.576,0 53.553,-23.975 53.553,-53.551 C 53.553,23.977 29.576,0 0,0"
           style="fill:#cc3232;fill-opacity:1;fill-rule:nonzero;stroke:none"
           id="path68" /></g><g
         id="g70"
         transform="matrix(0.47250001,0,0,0.47250001,694.91885,707.94968)"><path
           d="m 0,0 c -29.576,0 -53.552,23.977 -53.552,53.553 0,29.576 23.976,53.551 53.552,53.551 29.576,0 53.552,-23.975 53.552,-53.551 C 53.552,23.977 29.576,0 0,0"
           style="fill:#cc3232;fill-opacity:1;fill-rule:nonzero;stroke:none"
           id="path72" /></g><g
         id="g74"
         transform="matrix(0.47250001,0,0,0.47250001,572.6212,583.10261)"><path
           d="m 0,0 c -29.576,0 -53.552,23.977 -53.552,53.553 0,29.576 23.976,53.551 53.552,53.551 29.576,0 53.553,-23.975 53.553,-53.551 C 53.553,23.977 29.576,0 0,0"
           style="fill:#d8cd44;fill-opacity:1;fill-rule:nonzero;stroke:none"
           id="path76" /></g><g
         id="g78"
         transform="matrix(0.47250001,0,0,0.47250001,267.96595,894.20209)"><path
           d="m 0,0 c -29.576,0 -53.552,23.976 -53.552,53.552 0,29.576 23.976,53.552 53.552,53.552 29.576,0 53.552,-23.976 53.552,-53.552 C 53.552,23.976 29.576,0 0,0"
           style="fill:#d8cd44;fill-opacity:1;fill-rule:nonzero;stroke:none"
           id="path80" /></g><g
         id="g82"
         transform="matrix(0.47250001,0,0,0.47250001,450.81448,645.6798)"><path
           d="m 0,0 c -29.576,0 -53.552,23.977 -53.552,53.553 0,29.576 23.976,53.551 53.552,53.551 29.576,0 53.553,-23.975 53.553,-53.551 C 53.553,23.977 29.576,0 0,0"
           style="fill:#d8cd44;fill-opacity:1;fill-rule:nonzero;stroke:none"
           id="path84" /></g><g
         id="g86"
         transform="matrix(0.47250001,0,0,0.47250001,389.91135,645.6798)"><path
           d="m 0,0 c -29.576,0 -53.552,23.977 -53.552,53.553 0,29.576 23.976,53.551 53.552,53.551 29.576,0 53.552,-23.975 53.552,-53.551 C 53.552,23.977 29.576,0 0,0"
           style="fill:#50258e;fill-opacity:1;fill-rule:nonzero;stroke:none"
           id="path88" /></g><g
         id="g90"
         transform="matrix(0.47250001,0,0,0.47250001,389.91135,583.10261)"><path
           d="m 0,0 c -29.576,0 -53.552,23.977 -53.552,53.553 0,29.576 23.976,53.551 53.552,53.551 29.576,0 53.552,-23.975 53.552,-53.551 C 53.552,23.977 29.576,0 0,0"
           style="fill:#cc3232;fill-opacity:1;fill-rule:nonzero;stroke:none"
           id="path92" /></g><g
         id="g94"
         transform="matrix(0.47250001,0,0,0.47250001,303.70477,608.4063)"><path
           d="m 0,0 c 0,-29.576 23.976,-53.553 53.552,-53.553 29.576,0 53.552,23.977 53.552,53.553 v 132.438 c 0,29.577 -23.976,53.552 -53.552,53.552 C 23.976,185.99 0,162.015 0,132.438"
           style="fill:#cc3232;fill-opacity:1;fill-rule:nonzero;stroke:none"
           id="path96" /></g><g
         id="g98"
         transform="matrix(0.47250001,0,0,0.47250001,268.10487,769.38342)"><path
           d="m 0,0 c -29.576,0 -53.552,23.976 -53.552,53.552 0,29.576 23.976,53.552 53.552,53.552 29.576,0 53.552,-23.976 53.552,-53.552 C 53.552,23.976 29.576,0 0,0"
           style="fill:#dd5a3c;fill-opacity:1;fill-rule:nonzero;stroke:none"
           id="path100" /></g><g
         id="g102"
         transform="matrix(0.47250001,0,0,0.47250001,268.10487,645.6798)"><path
           d="m 0,0 c -29.576,0 -53.552,23.977 -53.552,53.553 0,29.576 23.976,53.551 53.552,53.551 29.576,0 53.552,-23.975 53.552,-53.551 C 53.552,23.977 29.576,0 0,0"
           style="fill:#dd5a3c;fill-opacity:1;fill-rule:nonzero;stroke:none"
           id="path104" /></g><g
         id="g106"
         transform="matrix(0.47250001,0,0,0.47250001,268.10487,583.10261)"><path
           d="m 0,0 c -29.576,0 -53.552,23.977 -53.552,53.553 0,29.576 23.976,53.551 53.552,53.551 29.576,0 53.552,-23.975 53.552,-53.551 C 53.552,23.977 29.576,0 0,0"
           style="fill:#50258e;fill-opacity:1;fill-rule:nonzero;stroke:none"
           id="path108" /></g><g
         id="g222"
         transform="matrix(0.47250001,0,0,0.47250001,390.32753,945.16911)"><path
           d="m 0,0 -54.551,-106.615 107.34,-0.883 z"
           style="fill:#dd5a3c;fill-opacity:1;fill-rule:nonzero;stroke:none"
           id="path224" /></g><g
         id="g226"
         transform="matrix(0.47250001,0,0,0.47250001,267.68864,706.84223)"><path
           d="m 0,0 54.551,106.615 -107.34,0.883 z"
           style="fill:#cc3232;fill-opacity:1;fill-rule:nonzero;stroke:none"
           id="path228" /></g><g
         id="g230"
         transform="matrix(0.47250001,0,0,0.47250001,82.577787,831.62495)"><path
           d="m 0,0 c -29.576,0 -53.552,23.976 -53.552,53.552 0,29.576 23.976,53.552 53.552,53.552 29.576,0 53.552,-23.976 53.552,-53.552 C 53.552,23.976 29.576,0 0,0"
           style="fill:#dd5a3c;fill-opacity:1;fill-rule:nonzero;stroke:none"
           id="path232" /></g><g
         id="g234"
         transform="matrix(0.47250001,0,0,0.47250001,82.439108,894.20209)"><path
           d="m 0,0 c -29.576,0 -53.552,23.976 -53.552,53.552 0,29.576 23.976,53.552 53.552,53.552 29.576,0 53.552,-23.976 53.552,-53.552 C 53.552,23.976 29.576,0 0,0"
           style="fill:#d8cd44;fill-opacity:1;fill-rule:nonzero;stroke:none"
           id="path236" /></g><g
         id="g238"
         transform="matrix(0.47250001,0,0,0.47250001,82.577787,769.38342)"><path
           d="m 0,0 c -29.576,0 -53.552,23.976 -53.552,53.552 0,29.576 23.976,53.552 53.552,53.552 29.576,0 53.552,-23.976 53.552,-53.552 C 53.552,23.976 29.576,0 0,0"
           style="fill:#50258e;fill-opacity:1;fill-rule:nonzero;stroke:none"
           id="path240" /></g><g
         id="g242"
         transform="matrix(0.47250001,0,0,0.47250001,82.577787,645.6798)"><path
           d="m 0,0 c -29.576,0 -53.552,23.977 -53.552,53.553 0,29.576 23.976,53.551 53.552,53.551 29.576,0 53.552,-23.975 53.552,-53.551 C 53.552,23.977 29.576,0 0,0"
           style="fill:#dd5a3c;fill-opacity:1;fill-rule:nonzero;stroke:none"
           id="path244" /></g><g
         id="g246"
         transform="matrix(0.47250001,0,0,0.47250001,107.97419,729.27445)"><path
           d="m 0,0 -106.615,54.551 -0.883,-107.34 z"
           style="fill:#cc3232;fill-opacity:1;fill-rule:nonzero;stroke:none"
           id="path248" /></g><g
         id="g250"
         transform="matrix(0.47250001,0,0,0.47250001,817.42232,696.28668)"><path
           d="m 0,0 c 29.576,0 53.552,-23.976 53.552,-53.552 0,-29.576 -23.976,-53.552 -53.552,-53.552 -29.576,0 -53.552,23.976 -53.552,53.552 C -53.552,-23.976 -29.576,0 0,0"
           style="fill:#dd5a3c;fill-opacity:1;fill-rule:nonzero;stroke:none"
           id="path252" /></g><g
         id="g254"
         transform="matrix(0.47250001,0,0,0.47250001,792.25759,608.4063)"><path
           d="M 0,0 C 0,29.576 23.977,53.552 53.553,53.552 83.129,53.552 107.104,29.576 107.104,0"
           style="fill:#d8cd44;fill-opacity:1;fill-rule:nonzero;stroke:none"
           id="path256" /></g><g
         id="g258"
         transform="matrix(0.47250001,0,0,0.47250001,817.42232,758.52839)"><path
           d="m 0,0 c 29.576,0 53.552,-23.977 53.552,-53.553 0,-29.576 -23.976,-53.551 -53.552,-53.551 -29.576,0 -53.552,23.975 -53.552,53.551 C -53.552,-23.977 -29.576,0 0,0"
           style="fill:#dd5a3c;fill-opacity:1;fill-rule:nonzero;stroke:none"
           id="path260" /></g><g
         id="g262"
         transform="matrix(0.47250001,0,0,0.47250001,817.42232,882.23183)"><path
           d="m 0,0 c 29.576,0 53.552,-23.976 53.552,-53.552 0,-29.576 -23.976,-53.552 -53.552,-53.552 -29.576,0 -53.552,23.976 -53.552,53.552 C -53.552,-23.976 -29.576,0 0,0"
           style="fill:#dd5a3c;fill-opacity:1;fill-rule:nonzero;stroke:none"
           id="path264" /></g><g
         id="g266"
         transform="matrix(0.47250001,0,0,0.47250001,817.42232,944.80897)"><path
           d="m 0,0 c 29.576,0 53.552,-23.976 53.552,-53.552 0,-29.576 -23.976,-53.552 -53.552,-53.552 -29.576,0 -53.552,23.976 -53.552,53.552 C -53.552,-23.976 -29.576,0 0,0"
           style="fill:#50258e;fill-opacity:1;fill-rule:nonzero;stroke:none"
           id="path268" /></g><g
         id="g270"
         transform="matrix(0.47250001,0,0,0.47250001,659.26863,857.67217)"><path
           d="M 0,0 -106.615,-54.551 -107.498,52.79 Z"
           style="fill:#d8cd44;fill-opacity:1;fill-rule:nonzero;stroke:none"
           id="path272" /></g><g
         id="g274"
         transform="matrix(0.47250001,0,0,0.47250001,754.90882,757.63508)"><path
           d="m 0,0 54.551,-106.614 -107.34,-0.884 z"
           style="fill:#d8cd44;fill-opacity:1;fill-rule:nonzero;stroke:none"
           id="path276" /></g><g
         id="g278"
         transform="matrix(0.47250001,0,0,0.47250001,695.5958,894.20209)"><path
           d="m 0,0 c -29.576,0 -53.553,23.976 -53.553,53.552 0,29.576 23.977,53.552 53.553,53.552"
           style="fill:#50258e;fill-opacity:1;fill-rule:nonzero;stroke:none"
           id="path280" /></g><g
         id="g282"
         transform="matrix(0.47250001,0,0,0.47250001,695.5958,831.62495)"><path
           d="m 0,0 c -29.576,0 -53.553,23.976 -53.553,53.552 0,29.576 23.977,53.552 53.553,53.552 29.575,0 53.552,-23.976 53.552,-53.552 C 53.552,23.976 29.575,0 0,0"
           style="fill:#dd5a3c;fill-opacity:1;fill-rule:nonzero;stroke:none"
           id="path284" /></g><g
         id="g286"
         transform="matrix(0.47250001,0,0,0.47250001,695.5958,583.10261)"><path
           d="m 0,0 c -29.576,0 -53.553,23.977 -53.553,53.553 0,29.576 23.977,53.551 53.553,53.551 29.575,0 53.552,-23.975 53.552,-53.551 C 53.552,23.977 29.575,0 0,0"
           style="fill:#50258e;fill-opacity:1;fill-rule:nonzero;stroke:none"
           id="path288" /></g><g
         id="g290"
         transform="matrix(0.47250001,0,0,0.47250001,717.44798,781.93193)"><path
           d="M 0,0 V 53.462 L -46.3,80.193 -92.599,53.462 V 0 L -46.3,-26.731 Z"
           style="fill:#dd5a3c;fill-opacity:1;fill-rule:nonzero;stroke:none"
           id="path292" /></g><g
         id="g294"
         transform="matrix(0.47250001,0,0,0.47250001,755.32505,831.62495)"><path
           d="m 0,0 c -29.576,0 -53.553,23.976 -53.553,53.552 0,29.576 23.977,53.552 53.553,53.552 29.576,0 53.552,-23.976 53.552,-53.552 C 53.552,23.976 29.576,0 0,0"
           style="fill:#50258e;fill-opacity:1;fill-rule:nonzero;stroke:none"
           id="path296" /></g><g
         id="g298"
         transform="matrix(0.47250001,0,0,0.47250001,755.32505,769.38342)"><path
           d="m 0,0 c -29.576,0 -53.553,23.976 -53.553,53.552 0,29.576 23.977,53.552 53.553,53.552 29.576,0 53.552,-23.976 53.552,-53.552 C 53.552,23.976 29.576,0 0,0"
           style="fill:#50258e;fill-opacity:1;fill-rule:nonzero;stroke:none"
           id="path300" /></g><g
         id="g302"
         transform="matrix(0.47250001,0,0,0.47250001,755.32505,645.6798)"><path
           d="m 0,0 c 29.576,0 53.552,23.977 53.552,53.553 0,29.576 -23.976,53.551 -53.552,53.551 h -126.411 c -29.576,0 -53.553,-23.975 -53.553,-53.551 0,-29.576 23.977,-53.553 53.553,-53.553"
           style="fill:#dd5a3c;fill-opacity:1;fill-rule:nonzero;stroke:none"
           id="path304" /></g><g
         id="g306"
         transform="matrix(0.47250001,0,0,0.47250001,755.32505,583.10261)"><path
           d="m 0,0 c -29.576,0 -53.553,23.977 -53.553,53.553 0,29.576 23.977,53.551 53.553,53.551 29.576,0 53.552,-23.975 53.552,-53.551 C 53.552,23.977 29.576,0 0,0"
           style="fill:#50258e;fill-opacity:1;fill-rule:nonzero;stroke:none"
           id="path308" /></g><g
         id="g310"
         transform="matrix(0.47250001,0,0,0.47250001,472.69113,595.9358)"><path
           d="M 0,0 V 53.462 L -46.3,80.193 -92.599,53.462 V 0 L -46.3,-26.731 Z"
           style="fill:#50258e;fill-opacity:1;fill-rule:nonzero;stroke:none"
           id="path312" /></g><g
         id="g314"
         transform="matrix(0.47250001,0,0,0.47250001,634.09605,894.36199)"><path
           d="m 0,0 c -29.576,0 -53.553,23.976 -53.553,53.552 0,29.576 23.977,53.552 53.553,53.552 29.576,0 53.552,-23.976 53.552,-53.552 C 53.552,23.976 29.576,0 0,0"
           style="fill:#cc3232;fill-opacity:1;fill-rule:nonzero;stroke:none"
           id="path316" /></g><g
         id="g318"
         transform="matrix(0.47250001,0,0,0.47250001,608.79235,732.41124)"><path
           d="m 0,0 c 0,-29.575 23.977,-53.552 53.553,-53.552 29.576,0 53.551,23.977 53.551,53.552 v 132.139 c 0,29.576 -23.975,53.552 -53.551,53.552 C 23.977,185.691 0,161.715 0,132.139"
           style="fill:#50258e;fill-opacity:1;fill-rule:nonzero;stroke:none"
           id="path320" /></g><g
         id="g322"
         transform="matrix(0.47250001,0,0,0.47250001,634.09605,645.83993)"><path
           d="m 0,0 c -29.576,0 -53.553,23.976 -53.553,53.552 0,29.576 23.977,53.552 53.553,53.552 29.576,0 53.552,-23.976 53.552,-53.552 C 53.552,23.976 29.576,0 0,0"
           style="fill:#50258e;fill-opacity:1;fill-rule:nonzero;stroke:none"
           id="path324" /></g><g
         id="g326"
         transform="matrix(0.47250001,0,0,0.47250001,659.39923,608.56591)"><path
           d="m 0,0 c 0,-29.576 -23.976,-53.552 -53.552,-53.552 -29.576,0 -53.552,23.976 -53.552,53.552"
           style="fill:#dd5a3c;fill-opacity:1;fill-rule:nonzero;stroke:none"
           id="path328" /></g><g
         id="g330"
         transform="matrix(0.47250001,0,0,0.47250001,118.61257,857.67217)"><path
           d="M 0,0 106.615,-54.551 107.498,52.79 Z"
           style="fill:#dd5a3c;fill-opacity:1;fill-rule:nonzero;stroke:none"
           id="path332" /></g><g
         id="g334"
         transform="matrix(0.47250001,0,0,0.47250001,231.50828,919.50556)"><path
           d="m 0,0 c 0,-29.576 -23.976,-53.552 -53.552,-53.552 -29.576,0 -53.552,23.976 -53.552,53.552"
           style="fill:#50258e;fill-opacity:1;fill-rule:nonzero;stroke:none"
           id="path336" /></g><g
         id="g338"
         transform="matrix(0.47250001,0,0,0.47250001,206.20481,706.93546)"><path
           d="m 0,0 c -29.576,0 -53.552,23.976 -53.552,53.552 0,29.576 23.976,53.552 53.552,53.552 29.576,0 53.552,-23.976 53.552,-53.552 C 53.552,23.976 29.576,0 0,0"
           style="fill:#cc3232;fill-opacity:1;fill-rule:nonzero;stroke:none"
           id="path340" /></g><g
         id="g342"
         transform="matrix(0.47250001,0,0,0.47250001,206.20481,769.38342)"><path
           d="m 0,0 c -29.576,0 -53.552,23.976 -53.552,53.552 0,29.576 23.976,53.552 53.552,53.552 29.576,0 53.552,-23.976 53.552,-53.552 C 53.552,23.976 29.576,0 0,0"
           style="fill:#d8cd44;fill-opacity:1;fill-rule:nonzero;stroke:none"
           id="path344" /></g><g
         id="g346"
         transform="matrix(0.47250001,0,0,0.47250001,206.20481,696.28668)"><path
           d="M 0,0 C 29.576,0 53.552,-23.976 53.552,-53.552 53.552,-83.128 29.576,-107.104 0,-107.104"
           style="fill:#dd5a3c;fill-opacity:1;fill-rule:nonzero;stroke:none"
           id="path348" /></g><g
         id="g350"
         transform="matrix(0.47250001,0,0,0.47250001,206.20481,583.10261)"><path
           d="m 0,0 c -29.576,0 -53.552,23.977 -53.552,53.553 0,29.576 23.976,53.551 53.552,53.551 29.576,0 53.552,-23.975 53.552,-53.551 C 53.552,23.977 29.576,0 0,0"
           style="fill:#d8cd44;fill-opacity:1;fill-rule:nonzero;stroke:none"
           id="path352" /></g><g
         id="g354"
         transform="matrix(0.47250001,0,0,0.47250001,228.05723,844.29801)"><path
           d="m 0,0 v 53.462 l -46.299,26.731 -46.3,-26.731 V 0 l 46.3,-26.731 z"
           style="fill:#cc3232;fill-opacity:1;fill-rule:nonzero;stroke:none"
           id="path356" /></g><g
         id="g358"
         transform="matrix(0.47250001,0,0,0.47250001,839.29898,782.79339)"><path
           d="M 0,0 V 53.462 L -46.3,80.193 -92.6,53.462 V 0 l 46.3,-26.731 z"
           style="fill:#cc3232;fill-opacity:1;fill-rule:nonzero;stroke:none"
           id="path360" /></g><g
         id="g362"
         transform="matrix(0.47250001,0,0,0.47250001,594.49786,907.03505)"><path
           d="M 0,0 V 53.462 L -46.3,80.193 -92.6,53.462 V 0 l 46.3,-26.731 z"
           style="fill:#50258e;fill-opacity:1;fill-rule:nonzero;stroke:none"
           id="path364" /></g><g
         id="g366"
         transform="matrix(0.47250001,0,0,0.47250001,104.45444,594.96127)"><path
           d="M 0,0 V 53.462 L -46.3,80.193 -92.6,53.462 V 0 l 46.3,-26.731 z"
           style="fill:#50258e;fill-opacity:1;fill-rule:nonzero;stroke:none"
           id="path368" /></g><g
         id="g370"
         transform="matrix(0.47250001,0,0,0.47250001,144.2328,894.36199)"><path
           d="m 0,0 c -29.576,0 -53.552,23.976 -53.552,53.552 0,29.576 23.976,53.552 53.552,53.552 29.576,0 53.552,-23.976 53.552,-53.552 C 53.552,23.976 29.576,0 0,0"
           style="fill:#cc3232;fill-opacity:1;fill-rule:nonzero;stroke:none"
           id="path372" /></g><g
         id="g374"
         transform="matrix(0.47250001,0,0,0.47250001,118.92934,732.41124)"><path
           d="m 0,0 c 0,-29.575 23.976,-53.552 53.552,-53.552 29.576,0 53.552,23.977 53.552,53.552 v 132.139 c 0,29.576 -23.976,53.552 -53.552,53.552 C 23.976,185.691 0,161.715 0,132.139"
           style="fill:#d8cd44;fill-opacity:1;fill-rule:nonzero;stroke:none"
           id="path376" /></g><g
         id="g378"
         transform="matrix(0.47250001,0,0,0.47250001,144.2328,645.83993)"><path
           d="m 0,0 c -29.576,0 -53.552,23.976 -53.552,53.552 0,29.576 23.976,53.552 53.552,53.552 29.576,0 53.552,-23.976 53.552,-53.552 C 53.552,23.976 29.576,0 0,0"
           style="fill:#50258e;fill-opacity:1;fill-rule:nonzero;stroke:none"
           id="path380" /></g><g
         id="g382"
         transform="matrix(0.47250001,0,0,0.47250001,144.2328,583.26274)"><path
           d="m 0,0 c -29.576,0 -53.552,23.976 -53.552,53.552 0,29.576 23.976,53.552 53.552,53.552 29.576,0 53.552,-23.976 53.552,-53.552 C 53.552,23.976 29.576,0 0,0"
           style="fill:#dd5a3c;fill-opacity:1;fill-rule:nonzero;stroke:none"
           id="path384" /></g></g></g><g
     inkscape:groupmode="layer"
     id="layer1"
     inkscape:label="DBC_2_1930x1001"
     style="display:inline"><g
       aria-label="I dati che"
       id="text2454"
       style="font-size:63.2428px;line-height:1.25;font-family:'Helvetica Now Text';-inkscape-font-specification:'Helvetica Now Text';letter-spacing:2.34976px;word-spacing:0px;fill:#ffffff;stroke-width:1.58106"><path
         d="m 448.51937,312.28439 v -45.14696 h 9.57289 v 45.14696 z"
         style="font-weight:bold;font-family:'Open Sans';-inkscape-font-specification:'Open Sans Bold'"
         id="path1105" /><path
         d="m 500.77451,312.902 q -6.08341,0 -9.57288,-4.72468 -3.45859,-4.72469 -3.45859,-13.09324 0,-8.49207 3.52035,-13.21676 3.55123,-4.75556 9.75817,-4.75556 6.51573,0 9.94345,5.06437 h 0.3088 q -0.71025,-3.86004 -0.71025,-6.88631 v -11.05513 h 9.44937 v 48.0497 h -7.22599 l -1.82193,-4.47764 h -0.40145 q -3.21155,5.09525 -9.78905,5.09525 z m 3.30419,-7.50391 q 3.613,0 5.28053,-2.09986 1.69842,-2.09986 1.85282,-7.13334 v -1.01905 q 0,-5.55845 -1.7293,-7.96711 -1.69841,-2.40866 -5.55845,-2.40866 -3.14979,0 -4.90996,2.68658 -1.7293,2.65571 -1.7293,7.75095 0,5.09525 1.76018,7.65831 1.76018,2.53218 5.03348,2.53218 z"
         style="font-weight:bold;font-family:'Open Sans';-inkscape-font-specification:'Open Sans Bold'"
         id="path1107" /><path
         d="m 554.13849,312.28439 -1.82194,-4.6938 h -0.24704 q -2.37778,2.99539 -4.90996,4.16884 -2.5013,1.14257 -6.54662,1.14257 -4.97172,0 -7.84359,-2.84099 -2.84098,-2.84098 -2.84098,-8.09063 0,-5.49669 3.82915,-8.09063 3.86003,-2.62482 11.61098,-2.90275 l 5.99078,-0.18528 v -1.51313 q 0,-5.24965 -5.37317,-5.24965 -4.13796,0 -9.72729,2.5013 l -3.11891,-6.36133 q 5.9599,-3.11891 13.21676,-3.11891 6.94806,0 10.6537,3.02627 3.70563,3.02626 3.70563,9.20232 v 23.0058 z m -2.77922,-15.99598 -3.64388,0.12352 q -4.10707,0.12352 -6.11429,1.48226 -2.00722,1.35873 -2.00722,4.13795 0,3.98356 4.57028,3.98356 3.27331,0 5.21877,-1.8837 1.97634,-1.8837 1.97634,-5.0026 z"
         style="font-weight:bold;font-family:'Open Sans';-inkscape-font-specification:'Open Sans Bold'"
         id="path1109" /><path
         d="m 587.30677,305.39809 q 2.47042,0 5.92901,-1.08081 v 7.00982 q -3.52035,1.5749 -8.64648,1.5749 -5.65109,0 -8.24503,-2.84099 -2.56307,-2.87186 -2.56307,-8.58471 v -16.64447 h -4.50852 v -3.98356 l 5.18789,-3.14978 2.71747,-7.28775 h 6.02165 v 7.34951 h 9.66552 v 7.07158 h -9.66552 v 16.64447 q 0,2.00722 1.11169,2.9645 1.14257,0.95729 2.99539,0.95729 z"
         style="font-weight:bold;font-family:'Open Sans';-inkscape-font-specification:'Open Sans Bold'"
         id="path1111" /><path
         d="m 602.16303,268.83585 q 0,-4.60116 5.12612,-4.60116 5.12613,0 5.12613,4.60116 0,2.1925 -1.29697,3.42771 -1.26609,1.20433 -3.82916,1.20433 -5.12612,0 -5.12612,-4.63204 z m 9.81992,43.44854 h -9.41848 v -34.52414 h 9.41848 z"
         style="font-weight:bold;font-family:'Open Sans';-inkscape-font-specification:'Open Sans Bold'"
         id="path1113" /><path
         d="m 657.01212,312.902 q -16.1195,0 -16.1195,-17.6944 0,-8.80088 4.385,-13.43292 4.385,-4.66292 12.56827,-4.66292 5.99077,0 10.74634,2.3469 l -2.77923,7.28775 q -2.22338,-0.89553 -4.13795,-1.45138 -1.91458,-0.58672 -3.82916,-0.58672 -7.3495,0 -7.3495,10.43753 0,10.12873 7.3495,10.12873 2.71747,0 5.03349,-0.71025 2.31602,-0.74112 4.63204,-2.28514 v 8.05976 q -2.28514,1.45137 -4.63204,2.00721 -2.31602,0.55585 -5.86726,0.55585 z"
         style="font-weight:bold;font-family:'Open Sans';-inkscape-font-specification:'Open Sans Bold'"
         id="path1115" /><path
         d="m 709.72761,312.28439 h -9.41849 v -20.16482 q 0,-7.47302 -5.55845,-7.47302 -3.95267,0 -5.71285,2.68658 -1.76017,2.68659 -1.76017,8.70824 v 16.24302 h -9.41849 v -48.0497 h 9.41849 v 9.78904 q 0,1.14257 -0.21616,5.37317 l -0.21617,2.77923 h 0.49409 q 3.14979,-5.06437 10.00521,-5.06437 6.08341,0 9.2332,3.27331 3.14979,3.27331 3.14979,9.3876 z"
         style="font-weight:bold;font-family:'Open Sans';-inkscape-font-specification:'Open Sans Bold'"
         id="path1117" /><path
         d="m 736.07136,283.81278 q -2.99539,0 -4.6938,1.91458 -1.69842,1.88369 -1.94546,5.37317 h 13.21676 q -0.0618,-3.48948 -1.82194,-5.37317 -1.76018,-1.91458 -4.75556,-1.91458 z m 1.32785,29.08922 q -8.33767,0 -13.03148,-4.60116 -4.6938,-4.60116 -4.6938,-13.03148 0,-8.67735 4.32324,-13.40204 4.35412,-4.75556 12.01243,-4.75556 7.31862,0 11.39482,4.16884 4.07619,4.16883 4.07619,11.51834 v 4.57028 h -22.26467 q 0.1544,4.01444 2.37778,6.2687 2.22338,2.25426 6.23781,2.25426 3.11891,0 5.89814,-0.64849 2.77922,-0.64848 5.80549,-2.06898 v 7.28775 q -2.47042,1.23521 -5.28053,1.82193 -2.8101,0.61761 -6.85542,0.61761 z"
         style="font-weight:bold;font-family:'Open Sans';-inkscape-font-specification:'Open Sans Bold'"
         id="path1119" /></g><g
       aria-label="Vorrei"
       id="text2454-1"
       style="font-size:53.8293px;line-height:1.25;font-family:'Helvetica Now Text';-inkscape-font-specification:'Helvetica Now Text';letter-spacing:0px;word-spacing:0px;fill:#d8cd44;stroke-width:1.34573"><path
         d="m 475.27639,326.81265 h 8.22684 l -13.06307,38.42697 h -8.88394 l -13.03678,-38.42697 h 8.22684 l 7.22806,22.86694 q 0.60452,2.02386 1.23534,4.73109 0.65709,2.68095 0.8148,3.73231 0.28912,-2.41812 1.97128,-8.4634 z"
         style="font-weight:bold;font-family:'Open Sans';-inkscape-font-specification:'Open Sans Bold'"
         id="path1122" /><path
         d="m 494.09561,350.49439 q 0,4.36312 1.41933,6.59724 1.44561,2.23413 4.67852,2.23413 3.20663,0 4.59968,-2.20784 1.41932,-2.23413 1.41932,-6.62353 0,-4.36312 -1.41932,-6.54467 -1.41933,-2.18156 -4.65224,-2.18156 -3.20663,0 -4.62596,2.18156 -1.41933,2.15527 -1.41933,6.54467 z m 20.31741,0 q 0,7.17549 -3.78487,11.2232 -3.78487,4.04771 -10.53982,4.04771 -4.2317,0 -7.46461,-1.83987 -3.23291,-1.86615 -4.96765,-5.33562 -1.73473,-3.46946 -1.73473,-8.09542 0,-7.20177 3.75859,-11.19691 3.75859,-3.99515 10.5661,-3.99515 4.2317,0 7.46461,1.83987 3.23291,1.83987 4.96765,5.28305 1.73473,3.44319 1.73473,8.06914 z"
         style="font-weight:bold;font-family:'Open Sans';-inkscape-font-specification:'Open Sans Bold'"
         id="path1124" /><path
         d="m 537.43766,335.30233 q 1.6296,0 2.70724,0.23656 l -0.60453,7.51717 q -0.97251,-0.26283 -2.36555,-0.26283 -3.83744,0 -5.99271,1.97128 -2.12899,1.97129 -2.12899,5.51961 v 14.9555 h -8.01657 v -29.38533 h 6.07156 l 1.18277,4.94136 h 0.39426 q 1.36676,-2.47068 3.67974,-3.96885 2.33926,-1.52447 5.07278,-1.52447 z"
         style="font-weight:bold;font-family:'Open Sans';-inkscape-font-specification:'Open Sans Bold'"
         id="path1126" /><path
         d="m 561.88163,335.30233 q 1.6296,0 2.70723,0.23656 l -0.60452,7.51717 q -0.97251,-0.26283 -2.36555,-0.26283 -3.83744,0 -5.99271,1.97128 -2.12899,1.97129 -2.12899,5.51961 v 14.9555 h -8.01658 v -29.38533 h 6.07157 l 1.18277,4.94136 h 0.39426 q 1.36676,-2.47068 3.67974,-3.96885 2.33926,-1.52447 5.07278,-1.52447 z"
         style="font-weight:bold;font-family:'Open Sans';-inkscape-font-specification:'Open Sans Bold'"
         id="path1128" /><path
         d="m 582.0939,341.00593 q -2.54953,0 -3.99514,1.62959 -1.44561,1.60332 -1.65588,4.57339 h 11.24948 q -0.0526,-2.97007 -1.55075,-4.57339 -1.49818,-1.62959 -4.04771,-1.62959 z m 1.13021,24.75937 q -7.09664,0 -11.09178,-3.91629 -3.99515,-3.91629 -3.99515,-11.09178 0,-7.38576 3.67974,-11.40719 3.70602,-4.04771 10.22441,-4.04771 6.22927,0 9.69874,3.54832 3.46947,3.54832 3.46947,9.80387 v 3.89001 h -18.95065 q 0.13142,3.4169 2.02385,5.33562 1.89244,1.91872 5.30934,1.91872 2.65467,0 5.02021,-0.55196 2.36555,-0.55196 4.94136,-1.76102 v 6.20299 q -2.1027,1.05135 -4.49453,1.55074 -2.39183,0.52568 -5.83501,0.52568 z"
         style="font-weight:bold;font-family:'Open Sans';-inkscape-font-specification:'Open Sans Bold'"
         id="path1130" /><path
         d="m 601.38625,328.25826 q 0,-3.91629 4.36311,-3.91629 4.36312,0 4.36312,3.91629 0,1.86616 -1.10392,2.91751 -1.07764,1.02507 -3.2592,1.02507 -4.36311,0 -4.36311,-3.94258 z m 8.35826,36.98136 h -8.01657 v -29.38533 h 8.01657 z"
         style="font-weight:bold;font-family:'Open Sans';-inkscape-font-specification:'Open Sans Bold'"
         id="path1132" /></g><g
       aria-label="#dati
BeneComune"
       id="text1607"
       style="font-size:20.465px;line-height:1.25;font-family:'Cascadia Code';-inkscape-font-specification:'Cascadia Code';letter-spacing:0px;word-spacing:0px;fill:#b3b3b3;stroke-width:0.495121"><path
         d="m 626.16237,331.45675 -0.46966,2.3183 h 2.57812 v 2.05849 H 625.303 l -0.76944,4.05702 h -2.19838 l 0.77942,-4.05702 h -1.93857 l -0.75945,4.05702 h -2.14842 l 0.73945,-4.05702 h -2.37825 v -2.05849 h 2.76797 l 0.46965,-2.3183 h -2.51815 v -2.08847 h 2.88788 l 0.76944,-4.06702 h 2.1884 l -0.76944,4.06702 h 1.97855 l 0.77943,-4.06702 h 2.14842 l -0.77942,4.06702 h 2.39824 v 2.08847 z m -4.59663,2.3183 h 1.95856 l 0.46966,-2.3183 h -1.95856 z"
         style="font-weight:bold;font-family:'Open Sans';-inkscape-font-specification:'Open Sans Bold'"
         id="path1135" /><path
         d="m 634.53623,340.09042 q -1.96855,0 -3.09773,-1.52888 -1.11918,-1.52888 -1.11918,-4.2369 0,-2.74798 1.13917,-4.27686 1.14916,-1.53887 3.15768,-1.53887 2.10846,0 3.21765,1.6388 h 0.0999 q -0.22983,-1.24909 -0.22983,-2.22837 v -3.57738 h 3.05776 v 15.5486 h -2.33829 l -0.58956,-1.44893 h -0.12991 q -1.03924,1.64879 -3.16768,1.64879 z m 1.06922,-2.42822 q 1.16914,0 1.70875,-0.6795 0.54959,-0.67951 0.59956,-2.30831 v -0.32976 q 0,-1.79868 -0.55959,-2.57811 -0.5496,-0.77943 -1.79868,-0.77943 -1.01926,0 -1.58884,0.86936 -0.55959,0.85937 -0.55959,2.50816 0,1.6488 0.56958,2.47819 0.56959,0.8194 1.62881,0.8194 z"
         style="font-weight:bold;font-family:'Open Sans';-inkscape-font-specification:'Open Sans Bold'"
         id="path1137" /><path
         d="m 651.04413,339.89056 -0.58956,-1.51888 h -0.0799 q -0.76943,0.96929 -1.58883,1.34901 -0.80941,0.36973 -2.11845,0.36973 -1.60882,0 -2.53814,-0.91933 -0.91932,-0.91932 -0.91932,-2.61808 0,-1.7787 1.23909,-2.61808 1.24908,-0.84938 3.75724,-0.93931 l 1.93858,-0.06 v -0.48964 q 0,-1.69875 -1.73872,-1.69875 -1.33902,0 -3.1477,0.8094 l -1.00926,-2.05849 q 1.92859,-1.00926 4.27687,-1.00926 2.24835,0 3.44747,0.97928 1.19912,0.97929 1.19912,2.97782 v 7.44454 z m -0.89934,-5.1762 -1.17913,0.04 q -1.32903,0.04 -1.97855,0.47965 -0.64953,0.43967 -0.64953,1.33902 0,1.28905 1.47892,1.28905 1.05922,0 1.68876,-0.60955 0.63953,-0.60956 0.63953,-1.61882 z"
         style="font-weight:bold;font-family:'Open Sans';-inkscape-font-specification:'Open Sans Bold'"
         id="path1139" /><path
         d="m 661.01682,337.6622 q 0.79942,0 1.9186,-0.34975 v 2.26834 q -1.13917,0.50963 -2.79795,0.50963 -1.82866,0 -2.66805,-0.91933 -0.82939,-0.92932 -0.82939,-2.77796 v -5.38605 h -1.45893 v -1.28906 l 1.67877,-1.01925 0.87936,-2.35827 h 1.94857 v 2.37825 h 3.1277 v 2.28833 h -3.1277 v 5.38605 q 0,0.64952 0.35973,0.95929 0.36973,0.30978 0.96929,0.30978 z"
         style="font-weight:bold;font-family:'Open Sans';-inkscape-font-specification:'Open Sans Bold'"
         id="path1141" /><path
         d="m 665.06386,325.83087 q 0,-1.48891 1.65878,-1.48891 1.65878,0 1.65878,1.48891 0,0.70948 -0.41969,1.10919 -0.4097,0.38971 -1.23909,0.38971 -1.65878,0 -1.65878,-1.4989 z m 3.17767,14.05969 h -3.04777 v -11.17181 h 3.04777 z"
         style="font-weight:bold;font-family:'Open Sans';-inkscape-font-specification:'Open Sans Bold'"
         id="path1143" /><path
         d="m 618.01834,350.95617 h 4.54667 q 3.10772,0 4.50669,0.88935 1.40897,0.87935 1.40897,2.80794 0,1.30904 -0.61954,2.14842 -0.60956,0.83939 -1.62881,1.00926 v 0.0999 q 1.38898,0.30977 1.99853,1.15915 0.61955,0.84938 0.61955,2.25835 0,1.99853 -1.44894,3.11771 -1.43894,1.11918 -3.91713,1.11918 h -5.46599 z m 3.09773,5.78576 h 1.79868 q 1.25908,0 1.81867,-0.38972 0.56958,-0.38971 0.56958,-1.28905 0,-0.83939 -0.61955,-1.19912 -0.60955,-0.36973 -1.93857,-0.36973 h -1.62881 z m 0,2.4582 v 3.80721 h 2.01852 q 1.27906,0 1.88862,-0.48965 0.60955,-0.48964 0.60955,-1.4989 0,-1.81866 -2.5981,-1.81866 z"
         style="font-weight:bold;font-family:'Open Sans';-inkscape-font-specification:'Open Sans Bold'"
         id="path1145" /><path
         d="m 636.15505,356.35221 q -0.96929,0 -1.51889,0.61955 -0.5496,0.60955 -0.62954,1.73873 h 4.27687 q -0.02,-1.12918 -0.58957,-1.73873 -0.56958,-0.61955 -1.53887,-0.61955 z m 0.42968,9.4131 q -2.69802,0 -4.21691,-1.4889 -1.51888,-1.48891 -1.51888,-4.21691 0,-2.80795 1.39897,-4.33682 1.40897,-1.53888 3.88715,-1.53888 2.36827,0 3.6873,1.34901 1.31903,1.34902 1.31903,3.72727 v 1.47892 h -7.20472 q 0.05,1.29905 0.76944,2.02851 0.71947,0.72947 2.01852,0.72947 1.00926,0 1.9086,-0.20985 0.89934,-0.20985 1.87862,-0.66951 v 2.35827 q -0.79941,0.39971 -1.70874,0.58957 -0.90934,0.19985 -2.21838,0.19985 z"
         style="font-weight:bold;font-family:'Open Sans';-inkscape-font-specification:'Open Sans Bold'"
         id="path1147" /><path
         d="m 653.93202,365.56546 h -3.04777 v -6.52522 q 0,-1.20911 -0.42968,-1.80867 -0.42969,-0.60955 -1.369,-0.60955 -1.27906,0 -1.84865,0.85937 -0.56958,0.84937 -0.56958,2.82792 v 5.25615 h -3.04776 v -11.17181 h 2.32829 l 0.4097,1.42895 h 0.16987 q 0.50963,-0.8094 1.39898,-1.2191 0.89934,-0.4197 2.03851,-0.4197 1.94857,0 2.95783,1.05923 1.00926,1.04923 1.00926,3.03777 z"
         style="font-weight:bold;font-family:'Open Sans';-inkscape-font-specification:'Open Sans Bold'"
         id="path1149" /><path
         d="m 661.69633,356.35221 q -0.96929,0 -1.51889,0.61955 -0.5496,0.60955 -0.62954,1.73873 h 4.27687 q -0.02,-1.12918 -0.58957,-1.73873 -0.56958,-0.61955 -1.53887,-0.61955 z m 0.42968,9.4131 q -2.69802,0 -4.21691,-1.4889 -1.51888,-1.48891 -1.51888,-4.21691 0,-2.80795 1.39897,-4.33682 1.40897,-1.53888 3.88715,-1.53888 2.36827,0 3.6873,1.34901 1.31903,1.34902 1.31903,3.72727 v 1.47892 h -7.20472 q 0.05,1.29905 0.76944,2.02851 0.71947,0.72947 2.01852,0.72947 1.00926,0 1.9086,-0.20985 0.89934,-0.20985 1.87862,-0.66951 v 2.35827 q -0.79941,0.39971 -1.70874,0.58957 -0.90934,0.19985 -2.21838,0.19985 z"
         style="font-weight:bold;font-family:'Open Sans';-inkscape-font-specification:'Open Sans Bold'"
         id="path1151" /><path
         d="m 675.60613,353.32443 q -1.74872,0 -2.70801,1.31904 -0.9593,1.30904 -0.9593,3.65732 0,4.88641 3.66731,4.88641 1.53887,0 3.72727,-0.76943 v 2.59809 q -1.79868,0.74945 -4.01706,0.74945 -3.18766,0 -4.87642,-1.92858 -1.68876,-1.93858 -1.68876,-5.55593 0,-2.27833 0.82939,-3.98708 0.82939,-1.71874 2.37825,-2.62807 1.55886,-0.91933 3.64733,-0.91933 2.12844,0 4.27687,1.02925 l -0.99927,2.51815 q -0.8194,-0.38971 -1.64879,-0.6795 -0.82939,-0.28979 -1.62881,-0.28979 z"
         style="font-weight:bold;font-family:'Open Sans';-inkscape-font-specification:'Open Sans Bold'"
         id="path1153" /><path
         d="m 684.62952,359.95957 q 0,1.65878 0.5396,2.50816 0.5496,0.84938 1.7787,0.84938 1.21911,0 1.74872,-0.83939 0.5396,-0.84937 0.5396,-2.51815 0,-1.65878 -0.5396,-2.48818 -0.53961,-0.82939 -1.76871,-0.82939 -1.2191,0 -1.75871,0.82939 -0.5396,0.8194 -0.5396,2.48818 z m 7.72434,0 q 0,2.728 -1.43895,4.26687 -1.43894,1.53887 -4.00706,1.53887 -1.60882,0 -2.83792,-0.69948 -1.2291,-0.70948 -1.88862,-2.02852 -0.65951,-1.31903 -0.65951,-3.07774 0,-2.73799 1.42895,-4.25688 1.42895,-1.51889 4.01705,-1.51889 1.60883,0 2.83792,0.69949 1.2291,0.69949 1.88862,2.00853 0.65952,1.30904 0.65952,3.06775 z"
         style="font-weight:bold;font-family:'Open Sans';-inkscape-font-specification:'Open Sans Bold'"
         id="path1155" /><path
         d="m 704.87468,365.56546 h -3.04776 v -6.52522 q 0,-1.20911 -0.4097,-1.80867 -0.39971,-0.60955 -1.26907,-0.60955 -1.16915,0 -1.69876,0.85937 -0.52961,0.85937 -0.52961,2.82792 v 5.25615 h -3.04777 v -11.17181 h 2.3283 l 0.4097,1.42895 h 0.16987 q 0.44967,-0.76943 1.29905,-1.19912 0.84938,-0.43968 1.94857,-0.43968 2.50816,0 3.39751,1.6388 h 0.2698 q 0.44967,-0.77943 1.31904,-1.20911 0.87935,-0.42969 1.97855,-0.42969 1.89861,0 2.8679,0.97929 0.97928,0.96928 0.97928,3.11771 v 7.28466 h -3.05776 v -6.52522 q 0,-1.20911 -0.4097,-1.80867 -0.39971,-0.60955 -1.26907,-0.60955 -1.11918,0 -1.67877,0.79941 -0.5496,0.79941 -0.5496,2.53814 z"
         style="font-weight:bold;font-family:'Open Sans';-inkscape-font-specification:'Open Sans Bold'"
         id="path1157" /><path
         d="m 722.88148,365.56546 -0.4097,-1.42895 h -0.15988 q -0.48964,0.77943 -1.38898,1.20911 -0.89934,0.41969 -2.0485,0.41969 -1.96856,0 -2.96783,-1.04923 -0.99926,-1.05922 -0.99926,-3.03777 v -7.28466 h 3.04776 v 6.52522 q 0,1.20911 0.42969,1.81866 0.42968,0.59956 1.36899,0.59956 1.27907,0 1.84865,-0.84937 0.56958,-0.85937 0.56958,-2.83792 v -5.25615 h 3.04777 v 11.17181 z"
         style="font-weight:bold;font-family:'Open Sans';-inkscape-font-specification:'Open Sans Bold'"
         id="path1159" /><path
         d="m 738.72987,365.56546 h -3.04777 v -6.52522 q 0,-1.20911 -0.42969,-1.80867 -0.42968,-0.60955 -1.36899,-0.60955 -1.27906,0 -1.84865,0.85937 -0.56958,0.84937 -0.56958,2.82792 v 5.25615 h -3.04777 v -11.17181 h 2.3283 l 0.4097,1.42895 h 0.16987 q 0.50963,-0.8094 1.39898,-1.2191 0.89934,-0.4197 2.0385,-0.4197 1.94857,0 2.95784,1.05923 1.00926,1.04923 1.00926,3.03777 z"
         style="font-weight:bold;font-family:'Open Sans';-inkscape-font-specification:'Open Sans Bold'"
         id="path1161" /><path
         d="m 746.49417,356.35221 q -0.96928,0 -1.51888,0.61955 -0.5496,0.60955 -0.62954,1.73873 h 4.27686 q -0.02,-1.12918 -0.58956,-1.73873 -0.56959,-0.61955 -1.53888,-0.61955 z m 0.42969,9.4131 q -2.69802,0 -4.21691,-1.4889 -1.51889,-1.48891 -1.51889,-4.21691 0,-2.80795 1.39898,-4.33682 1.40897,-1.53888 3.88715,-1.53888 2.36826,0 3.6873,1.34901 1.31903,1.34902 1.31903,3.72727 v 1.47892 h -7.20472 q 0.05,1.29905 0.76944,2.02851 0.71947,0.72947 2.01852,0.72947 1.00926,0 1.9086,-0.20985 0.89934,-0.20985 1.87862,-0.66951 v 2.35827 q -0.79941,0.39971 -1.70875,0.58957 -0.90933,0.19985 -2.21837,0.19985 z"
         style="font-weight:bold;font-family:'Open Sans';-inkscape-font-specification:'Open Sans Bold'"
         id="path1163" /></g></g></svg>
