<?xml version="1.0" encoding="UTF-8" standalone="no"?>
<svg
   version="1.1"
   id="svg2"
   xml:space="preserve"
   width="1200"
   height="630"
   viewBox="0 0 1200 630.00002"
   sodipodi:docname="opengraph.svg"
   inkscape:version="1.1 (c68e22c387, 2021-05-23)"
   xmlns:inkscape="http://www.inkscape.org/namespaces/inkscape"
   xmlns:sodipodi="http://sodipodi.sourceforge.net/DTD/sodipodi-0.dtd"
   xmlns="http://www.w3.org/2000/svg"
   xmlns:svg="http://www.w3.org/2000/svg"
   xmlns:rdf="http://www.w3.org/1999/02/22-rdf-syntax-ns#"
   xmlns:cc="http://creativecommons.org/ns#"
   xmlns:dc="http://purl.org/dc/elements/1.1/"><metadata
     id="metadata8"><rdf:RDF><cc:Work
         rdf:about=""><dc:format>image/svg+xml</dc:format><dc:type
           rdf:resource="http://purl.org/dc/dcmitype/StillImage" /></cc:Work></rdf:RDF></metadata><defs
     id="defs6"><clipPath
       clipPathUnits="userSpaceOnUse"
       id="clipPath20"><path
         d="M 0,1000 H 1930 V 0 H 0 Z"
         id="path18" /></clipPath></defs><sodipodi:namedview
     pagecolor="#ffffff"
     bordercolor="#666666"
     borderopacity="1"
     objecttolerance="10"
     gridtolerance="10"
     guidetolerance="10"
     inkscape:pageopacity="0"
     inkscape:pageshadow="2"
     inkscape:window-width="2560"
     inkscape:window-height="1009"
     id="namedview4"
     showgrid="false"
     inkscape:zoom="1"
     inkscape:cx="489.5"
     inkscape:cy="317.5"
     inkscape:window-x="1912"
     inkscape:window-y="-8"
     inkscape:window-maximized="1"
     inkscape:current-layer="layer1"
     inkscape:pagecheckerboard="0"
     fit-margin-top="0"
     fit-margin-left="0"
     fit-margin-right="0"
     fit-margin-bottom="0"
     inkscape:snap-text-baseline="true"
     inkscape:snap-bbox="true"
     inkscape:bbox-nodes="true"
     inkscape:bbox-paths="true"
     inkscape:snap-bbox-edge-midpoints="true" /><g
     inkscape:groupmode="layer"
     id="layer2"
     inkscape:label="DBC_2_1930x1002"
     sodipodi:insensitive="true"><path
       d="M 0,630 H 1200 V 0 H 0 Z"
       style="fill:#1d1d1b;fill-opacity:1;fill-rule:nonzero;stroke:none;stroke-width:0.625865"
       id="path12" /></g><g
     id="g10"
     inkscape:groupmode="layer"
     inkscape:label="DBC_2_1930x1000"
     transform="matrix(1.3333333,0,0,-1.3333333,0,1333.3333)"
     sodipodi:insensitive="true"><g
       id="g2252"><g
         id="g22"
         transform="matrix(0.47250001,0,0,0.47250001,511.71808,894.20209)"><path
           d="m 0,0 c -29.576,0 -53.553,23.976 -53.553,53.552 0,29.576 23.977,53.552 53.553,53.552 29.576,0 53.552,-23.976 53.552,-53.552 C 53.552,23.976 29.576,0 0,0"
           style="fill:#50258e;fill-opacity:1;fill-rule:nonzero;stroke:none"
           id="path24" /></g><g
         id="g26"
         transform="matrix(0.47250001,0,0,0.47250001,450.81448,894.20209)"><path
           d="m 0,0 c -29.576,0 -53.552,23.976 -53.552,53.552 0,29.576 23.976,53.552 53.552,53.552 29.576,0 53.553,-23.976 53.553,-53.552 C 53.553,23.976 29.576,0 0,0"
           style="fill:#d8cd44;fill-opacity:1;fill-rule:nonzero;stroke:none"
           id="path28" /></g><g
         id="g30"
         transform="matrix(0.47250001,0,0,0.47250001,755.32505,894.20209)"><path
           d="m 0,0 c -29.576,0 -53.553,23.976 -53.553,53.552 0,29.576 23.977,53.552 53.553,53.552 29.576,0 53.552,-23.976 53.552,-53.552 C 53.552,23.976 29.576,0 0,0"
           style="fill:#d8cd44;fill-opacity:1;fill-rule:nonzero;stroke:none"
           id="path32" /></g><g
         id="g34"
         transform="matrix(0.47250001,0,0,0.47250001,450.81448,882.23183)"><path
           d="m 0,0 c -29.576,0 -53.552,-23.976 -53.552,-53.552 0,-29.576 23.976,-53.552 53.552,-53.552 h 128.896 c 29.577,0 53.552,23.976 53.552,53.552 C 182.448,-23.976 158.473,0 128.896,0"
           style="fill:#d8cd44;fill-opacity:1;fill-rule:nonzero;stroke:none"
           id="path36" /></g><g
         id="g38"
         transform="matrix(0.47250001,0,0,0.47250001,389.91135,831.62495)"><path
           d="m 0,0 c -29.576,0 -53.552,23.976 -53.552,53.552 0,29.576 23.976,53.552 53.552,53.552 29.576,0 53.552,-23.976 53.552,-53.552 C 53.552,23.976 29.576,0 0,0"
           style="fill:#cc3232;fill-opacity:1;fill-rule:nonzero;stroke:none"
           id="path40" /></g><g
         id="g42"
         transform="matrix(0.47250001,0,0,0.47250001,329.00799,894.20209)"><path
           d="m 0,0 c -29.576,0 -53.552,23.976 -53.552,53.552 0,29.576 23.976,53.552 53.552,53.552 29.576,0 53.552,-23.976 53.552,-53.552 C 53.552,23.976 29.576,0 0,0"
           style="fill:#50258e;fill-opacity:1;fill-rule:nonzero;stroke:none"
           id="path44" /></g><g
         id="g46"
         transform="matrix(0.47250001,0,0,0.47250001,329.00799,831.62495)"><path
           d="m 0,0 c -29.576,0 -53.552,23.976 -53.552,53.552 0,29.576 23.976,53.552 53.552,53.552 29.576,0 53.552,-23.976 53.552,-53.552 C 53.552,23.976 29.576,0 0,0"
           style="fill:#cc3232;fill-opacity:1;fill-rule:nonzero;stroke:none"
           id="path48" /></g><g
         id="g50"
         transform="matrix(0.47250001,0,0,0.47250001,268.10487,831.62495)"><path
           d="m 0,0 c -29.576,0 -53.552,23.976 -53.552,53.552 0,29.576 23.976,53.552 53.552,53.552 29.576,0 53.552,-23.976 53.552,-53.552 C 53.552,23.976 29.576,0 0,0"
           style="fill:#dd5a3c;fill-opacity:1;fill-rule:nonzero;stroke:none"
           id="path52" /></g><g
         id="g54"
         transform="matrix(0.47250001,0,0,0.47250001,486.41438,670.98345)"><path
           d="M 0,0 C 0,29.576 23.977,53.552 53.553,53.552 83.129,53.552 107.104,29.576 107.104,0"
           style="fill:#cc3232;fill-opacity:1;fill-rule:nonzero;stroke:none"
           id="path56" /></g><g
         id="g58"
         transform="matrix(0.47250001,0,0,0.47250001,511.71808,583.10261)"><path
           d="m 0,0 c -29.576,0 -53.553,23.977 -53.553,53.553 0,29.576 23.977,53.551 53.553,53.551 29.576,0 53.552,-23.975 53.552,-53.551 C 53.552,23.977 29.576,0 0,0"
           style="fill:#50258e;fill-opacity:1;fill-rule:nonzero;stroke:none"
           id="path60" /></g><g
         id="g62"
         transform="matrix(0.47250001,0,0,0.47250001,572.6212,831.62495)"><path
           d="m 0,0 c -29.576,0 -53.552,23.976 -53.552,53.552 0,29.576 23.976,53.552 53.552,53.552 29.576,0 53.553,-23.976 53.553,-53.552 C 53.553,23.976 29.576,0 0,0"
           style="fill:#50258e;fill-opacity:1;fill-rule:nonzero;stroke:none"
           id="path64" /></g><g
         id="g66"
         transform="matrix(0.47250001,0,0,0.47250001,572.6212,645.6798)"><path
           d="m 0,0 c -29.576,0 -53.552,23.977 -53.552,53.553 0,29.576 23.976,53.551 53.552,53.551 29.576,0 53.553,-23.975 53.553,-53.551 C 53.553,23.977 29.576,0 0,0"
           style="fill:#cc3232;fill-opacity:1;fill-rule:nonzero;stroke:none"
           id="path68" /></g><g
         id="g70"
         transform="matrix(0.47250001,0,0,0.47250001,694.91885,707.94968)"><path
           d="m 0,0 c -29.576,0 -53.552,23.977 -53.552,53.553 0,29.576 23.976,53.551 53.552,53.551 29.576,0 53.552,-23.975 53.552,-53.551 C 53.552,23.977 29.576,0 0,0"
           style="fill:#cc3232;fill-opacity:1;fill-rule:nonzero;stroke:none"
           id="path72" /></g><g
         id="g74"
         transform="matrix(0.47250001,0,0,0.47250001,572.6212,583.10261)"><path
           d="m 0,0 c -29.576,0 -53.552,23.977 -53.552,53.553 0,29.576 23.976,53.551 53.552,53.551 29.576,0 53.553,-23.975 53.553,-53.551 C 53.553,23.977 29.576,0 0,0"
           style="fill:#d8cd44;fill-opacity:1;fill-rule:nonzero;stroke:none"
           id="path76" /></g><g
         id="g78"
         transform="matrix(0.47250001,0,0,0.47250001,267.96595,894.20209)"><path
           d="m 0,0 c -29.576,0 -53.552,23.976 -53.552,53.552 0,29.576 23.976,53.552 53.552,53.552 29.576,0 53.552,-23.976 53.552,-53.552 C 53.552,23.976 29.576,0 0,0"
           style="fill:#d8cd44;fill-opacity:1;fill-rule:nonzero;stroke:none"
           id="path80" /></g><g
         id="g82"
         transform="matrix(0.47250001,0,0,0.47250001,450.81448,645.6798)"><path
           d="m 0,0 c -29.576,0 -53.552,23.977 -53.552,53.553 0,29.576 23.976,53.551 53.552,53.551 29.576,0 53.553,-23.975 53.553,-53.551 C 53.553,23.977 29.576,0 0,0"
           style="fill:#d8cd44;fill-opacity:1;fill-rule:nonzero;stroke:none"
           id="path84" /></g><g
         id="g86"
         transform="matrix(0.47250001,0,0,0.47250001,389.91135,645.6798)"><path
           d="m 0,0 c -29.576,0 -53.552,23.977 -53.552,53.553 0,29.576 23.976,53.551 53.552,53.551 29.576,0 53.552,-23.975 53.552,-53.551 C 53.552,23.977 29.576,0 0,0"
           style="fill:#50258e;fill-opacity:1;fill-rule:nonzero;stroke:none"
           id="path88" /></g><g
         id="g90"
         transform="matrix(0.47250001,0,0,0.47250001,389.91135,583.10261)"><path
           d="m 0,0 c -29.576,0 -53.552,23.977 -53.552,53.553 0,29.576 23.976,53.551 53.552,53.551 29.576,0 53.552,-23.975 53.552,-53.551 C 53.552,23.977 29.576,0 0,0"
           style="fill:#cc3232;fill-opacity:1;fill-rule:nonzero;stroke:none"
           id="path92" /></g><g
         id="g94"
         transform="matrix(0.47250001,0,0,0.47250001,303.70477,608.4063)"><path
           d="m 0,0 c 0,-29.576 23.976,-53.553 53.552,-53.553 29.576,0 53.552,23.977 53.552,53.553 v 132.438 c 0,29.577 -23.976,53.552 -53.552,53.552 C 23.976,185.99 0,162.015 0,132.438"
           style="fill:#cc3232;fill-opacity:1;fill-rule:nonzero;stroke:none"
           id="path96" /></g><g
         id="g98"
         transform="matrix(0.47250001,0,0,0.47250001,268.10487,769.38342)"><path
           d="m 0,0 c -29.576,0 -53.552,23.976 -53.552,53.552 0,29.576 23.976,53.552 53.552,53.552 29.576,0 53.552,-23.976 53.552,-53.552 C 53.552,23.976 29.576,0 0,0"
           style="fill:#dd5a3c;fill-opacity:1;fill-rule:nonzero;stroke:none"
           id="path100" /></g><g
         id="g102"
         transform="matrix(0.47250001,0,0,0.47250001,268.10487,645.6798)"><path
           d="m 0,0 c -29.576,0 -53.552,23.977 -53.552,53.553 0,29.576 23.976,53.551 53.552,53.551 29.576,0 53.552,-23.975 53.552,-53.551 C 53.552,23.977 29.576,0 0,0"
           style="fill:#dd5a3c;fill-opacity:1;fill-rule:nonzero;stroke:none"
           id="path104" /></g><g
         id="g106"
         transform="matrix(0.47250001,0,0,0.47250001,268.10487,583.10261)"><path
           d="m 0,0 c -29.576,0 -53.552,23.977 -53.552,53.553 0,29.576 23.976,53.551 53.552,53.551 29.576,0 53.552,-23.975 53.552,-53.551 C 53.552,23.977 29.576,0 0,0"
           style="fill:#50258e;fill-opacity:1;fill-rule:nonzero;stroke:none"
           id="path108" /></g><g
         id="g222"
         transform="matrix(0.47250001,0,0,0.47250001,390.32753,945.16911)"><path
           d="m 0,0 -54.551,-106.615 107.34,-0.883 z"
           style="fill:#dd5a3c;fill-opacity:1;fill-rule:nonzero;stroke:none"
           id="path224" /></g><g
         id="g226"
         transform="matrix(0.47250001,0,0,0.47250001,267.68864,706.84223)"><path
           d="m 0,0 54.551,106.615 -107.34,0.883 z"
           style="fill:#cc3232;fill-opacity:1;fill-rule:nonzero;stroke:none"
           id="path228" /></g><g
         id="g230"
         transform="matrix(0.47250001,0,0,0.47250001,82.577787,831.62495)"><path
           d="m 0,0 c -29.576,0 -53.552,23.976 -53.552,53.552 0,29.576 23.976,53.552 53.552,53.552 29.576,0 53.552,-23.976 53.552,-53.552 C 53.552,23.976 29.576,0 0,0"
           style="fill:#dd5a3c;fill-opacity:1;fill-rule:nonzero;stroke:none"
           id="path232" /></g><g
         id="g234"
         transform="matrix(0.47250001,0,0,0.47250001,82.439108,894.20209)"><path
           d="m 0,0 c -29.576,0 -53.552,23.976 -53.552,53.552 0,29.576 23.976,53.552 53.552,53.552 29.576,0 53.552,-23.976 53.552,-53.552 C 53.552,23.976 29.576,0 0,0"
           style="fill:#d8cd44;fill-opacity:1;fill-rule:nonzero;stroke:none"
           id="path236" /></g><g
         id="g238"
         transform="matrix(0.47250001,0,0,0.47250001,82.577787,769.38342)"><path
           d="m 0,0 c -29.576,0 -53.552,23.976 -53.552,53.552 0,29.576 23.976,53.552 53.552,53.552 29.576,0 53.552,-23.976 53.552,-53.552 C 53.552,23.976 29.576,0 0,0"
           style="fill:#50258e;fill-opacity:1;fill-rule:nonzero;stroke:none"
           id="path240" /></g><g
         id="g242"
         transform="matrix(0.47250001,0,0,0.47250001,82.577787,645.6798)"><path
           d="m 0,0 c -29.576,0 -53.552,23.977 -53.552,53.553 0,29.576 23.976,53.551 53.552,53.551 29.576,0 53.552,-23.975 53.552,-53.551 C 53.552,23.977 29.576,0 0,0"
           style="fill:#dd5a3c;fill-opacity:1;fill-rule:nonzero;stroke:none"
           id="path244" /></g><g
         id="g246"
         transform="matrix(0.47250001,0,0,0.47250001,107.97419,729.27445)"><path
           d="m 0,0 -106.615,54.551 -0.883,-107.34 z"
           style="fill:#cc3232;fill-opacity:1;fill-rule:nonzero;stroke:none"
           id="path248" /></g><g
         id="g250"
         transform="matrix(0.47250001,0,0,0.47250001,817.42232,696.28668)"><path
           d="m 0,0 c 29.576,0 53.552,-23.976 53.552,-53.552 0,-29.576 -23.976,-53.552 -53.552,-53.552 -29.576,0 -53.552,23.976 -53.552,53.552 C -53.552,-23.976 -29.576,0 0,0"
           style="fill:#dd5a3c;fill-opacity:1;fill-rule:nonzero;stroke:none"
           id="path252" /></g><g
         id="g254"
         transform="matrix(0.47250001,0,0,0.47250001,792.25759,608.4063)"><path
           d="M 0,0 C 0,29.576 23.977,53.552 53.553,53.552 83.129,53.552 107.104,29.576 107.104,0"
           style="fill:#d8cd44;fill-opacity:1;fill-rule:nonzero;stroke:none"
           id="path256" /></g><g
         id="g258"
         transform="matrix(0.47250001,0,0,0.47250001,817.42232,758.52839)"><path
           d="m 0,0 c 29.576,0 53.552,-23.977 53.552,-53.553 0,-29.576 -23.976,-53.551 -53.552,-53.551 -29.576,0 -53.552,23.975 -53.552,53.551 C -53.552,-23.977 -29.576,0 0,0"
           style="fill:#dd5a3c;fill-opacity:1;fill-rule:nonzero;stroke:none"
           id="path260" /></g><g
         id="g262"
         transform="matrix(0.47250001,0,0,0.47250001,817.42232,882.23183)"><path
           d="m 0,0 c 29.576,0 53.552,-23.976 53.552,-53.552 0,-29.576 -23.976,-53.552 -53.552,-53.552 -29.576,0 -53.552,23.976 -53.552,53.552 C -53.552,-23.976 -29.576,0 0,0"
           style="fill:#dd5a3c;fill-opacity:1;fill-rule:nonzero;stroke:none"
           id="path264" /></g><g
         id="g266"
         transform="matrix(0.47250001,0,0,0.47250001,817.42232,944.80897)"><path
           d="m 0,0 c 29.576,0 53.552,-23.976 53.552,-53.552 0,-29.576 -23.976,-53.552 -53.552,-53.552 -29.576,0 -53.552,23.976 -53.552,53.552 C -53.552,-23.976 -29.576,0 0,0"
           style="fill:#50258e;fill-opacity:1;fill-rule:nonzero;stroke:none"
           id="path268" /></g><g
         id="g270"
         transform="matrix(0.47250001,0,0,0.47250001,659.26863,857.67217)"><path
           d="M 0,0 -106.615,-54.551 -107.498,52.79 Z"
           style="fill:#d8cd44;fill-opacity:1;fill-rule:nonzero;stroke:none"
           id="path272" /></g><g
         id="g274"
         transform="matrix(0.47250001,0,0,0.47250001,754.90882,757.63508)"><path
           d="m 0,0 54.551,-106.614 -107.34,-0.884 z"
           style="fill:#d8cd44;fill-opacity:1;fill-rule:nonzero;stroke:none"
           id="path276" /></g><g
         id="g278"
         transform="matrix(0.47250001,0,0,0.47250001,695.5958,894.20209)"><path
           d="m 0,0 c -29.576,0 -53.553,23.976 -53.553,53.552 0,29.576 23.977,53.552 53.553,53.552"
           style="fill:#50258e;fill-opacity:1;fill-rule:nonzero;stroke:none"
           id="path280" /></g><g
         id="g282"
         transform="matrix(0.47250001,0,0,0.47250001,695.5958,831.62495)"><path
           d="m 0,0 c -29.576,0 -53.553,23.976 -53.553,53.552 0,29.576 23.977,53.552 53.553,53.552 29.575,0 53.552,-23.976 53.552,-53.552 C 53.552,23.976 29.575,0 0,0"
           style="fill:#dd5a3c;fill-opacity:1;fill-rule:nonzero;stroke:none"
           id="path284" /></g><g
         id="g286"
         transform="matrix(0.47250001,0,0,0.47250001,695.5958,583.10261)"><path
           d="m 0,0 c -29.576,0 -53.553,23.977 -53.553,53.553 0,29.576 23.977,53.551 53.553,53.551 29.575,0 53.552,-23.975 53.552,-53.551 C 53.552,23.977 29.575,0 0,0"
           style="fill:#50258e;fill-opacity:1;fill-rule:nonzero;stroke:none"
           id="path288" /></g><g
         id="g290"
         transform="matrix(0.47250001,0,0,0.47250001,717.44798,781.93193)"><path
           d="M 0,0 V 53.462 L -46.3,80.193 -92.599,53.462 V 0 L -46.3,-26.731 Z"
           style="fill:#dd5a3c;fill-opacity:1;fill-rule:nonzero;stroke:none"
           id="path292" /></g><g
         id="g294"
         transform="matrix(0.47250001,0,0,0.47250001,755.32505,831.62495)"><path
           d="m 0,0 c -29.576,0 -53.553,23.976 -53.553,53.552 0,29.576 23.977,53.552 53.553,53.552 29.576,0 53.552,-23.976 53.552,-53.552 C 53.552,23.976 29.576,0 0,0"
           style="fill:#50258e;fill-opacity:1;fill-rule:nonzero;stroke:none"
           id="path296" /></g><g
         id="g298"
         transform="matrix(0.47250001,0,0,0.47250001,755.32505,769.38342)"><path
           d="m 0,0 c -29.576,0 -53.553,23.976 -53.553,53.552 0,29.576 23.977,53.552 53.553,53.552 29.576,0 53.552,-23.976 53.552,-53.552 C 53.552,23.976 29.576,0 0,0"
           style="fill:#50258e;fill-opacity:1;fill-rule:nonzero;stroke:none"
           id="path300" /></g><g
         id="g302"
         transform="matrix(0.47250001,0,0,0.47250001,755.32505,645.6798)"><path
           d="m 0,0 c 29.576,0 53.552,23.977 53.552,53.553 0,29.576 -23.976,53.551 -53.552,53.551 h -126.411 c -29.576,0 -53.553,-23.975 -53.553,-53.551 0,-29.576 23.977,-53.553 53.553,-53.553"
           style="fill:#dd5a3c;fill-opacity:1;fill-rule:nonzero;stroke:none"
           id="path304" /></g><g
         id="g306"
         transform="matrix(0.47250001,0,0,0.47250001,755.32505,583.10261)"><path
           d="m 0,0 c -29.576,0 -53.553,23.977 -53.553,53.553 0,29.576 23.977,53.551 53.553,53.551 29.576,0 53.552,-23.975 53.552,-53.551 C 53.552,23.977 29.576,0 0,0"
           style="fill:#50258e;fill-opacity:1;fill-rule:nonzero;stroke:none"
           id="path308" /></g><g
         id="g310"
         transform="matrix(0.47250001,0,0,0.47250001,472.69113,595.9358)"><path
           d="M 0,0 V 53.462 L -46.3,80.193 -92.599,53.462 V 0 L -46.3,-26.731 Z"
           style="fill:#50258e;fill-opacity:1;fill-rule:nonzero;stroke:none"
           id="path312" /></g><g
         id="g314"
         transform="matrix(0.47250001,0,0,0.47250001,634.09605,894.36199)"><path
           d="m 0,0 c -29.576,0 -53.553,23.976 -53.553,53.552 0,29.576 23.977,53.552 53.553,53.552 29.576,0 53.552,-23.976 53.552,-53.552 C 53.552,23.976 29.576,0 0,0"
           style="fill:#cc3232;fill-opacity:1;fill-rule:nonzero;stroke:none"
           id="path316" /></g><g
         id="g318"
         transform="matrix(0.47250001,0,0,0.47250001,608.79235,732.41124)"><path
           d="m 0,0 c 0,-29.575 23.977,-53.552 53.553,-53.552 29.576,0 53.551,23.977 53.551,53.552 v 132.139 c 0,29.576 -23.975,53.552 -53.551,53.552 C 23.977,185.691 0,161.715 0,132.139"
           style="fill:#50258e;fill-opacity:1;fill-rule:nonzero;stroke:none"
           id="path320" /></g><g
         id="g322"
         transform="matrix(0.47250001,0,0,0.47250001,634.09605,645.83993)"><path
           d="m 0,0 c -29.576,0 -53.553,23.976 -53.553,53.552 0,29.576 23.977,53.552 53.553,53.552 29.576,0 53.552,-23.976 53.552,-53.552 C 53.552,23.976 29.576,0 0,0"
           style="fill:#50258e;fill-opacity:1;fill-rule:nonzero;stroke:none"
           id="path324" /></g><g
         id="g326"
         transform="matrix(0.47250001,0,0,0.47250001,659.39923,608.56591)"><path
           d="m 0,0 c 0,-29.576 -23.976,-53.552 -53.552,-53.552 -29.576,0 -53.552,23.976 -53.552,53.552"
           style="fill:#dd5a3c;fill-opacity:1;fill-rule:nonzero;stroke:none"
           id="path328" /></g><g
         id="g330"
         transform="matrix(0.47250001,0,0,0.47250001,118.61257,857.67217)"><path
           d="M 0,0 106.615,-54.551 107.498,52.79 Z"
           style="fill:#dd5a3c;fill-opacity:1;fill-rule:nonzero;stroke:none"
           id="path332" /></g><g
         id="g334"
         transform="matrix(0.47250001,0,0,0.47250001,231.50828,919.50556)"><path
           d="m 0,0 c 0,-29.576 -23.976,-53.552 -53.552,-53.552 -29.576,0 -53.552,23.976 -53.552,53.552"
           style="fill:#50258e;fill-opacity:1;fill-rule:nonzero;stroke:none"
           id="path336" /></g><g
         id="g338"
         transform="matrix(0.47250001,0,0,0.47250001,206.20481,706.93546)"><path
           d="m 0,0 c -29.576,0 -53.552,23.976 -53.552,53.552 0,29.576 23.976,53.552 53.552,53.552 29.576,0 53.552,-23.976 53.552,-53.552 C 53.552,23.976 29.576,0 0,0"
           style="fill:#cc3232;fill-opacity:1;fill-rule:nonzero;stroke:none"
           id="path340" /></g><g
         id="g342"
         transform="matrix(0.47250001,0,0,0.47250001,206.20481,769.38342)"><path
           d="m 0,0 c -29.576,0 -53.552,23.976 -53.552,53.552 0,29.576 23.976,53.552 53.552,53.552 29.576,0 53.552,-23.976 53.552,-53.552 C 53.552,23.976 29.576,0 0,0"
           style="fill:#d8cd44;fill-opacity:1;fill-rule:nonzero;stroke:none"
           id="path344" /></g><g
         id="g346"
         transform="matrix(0.47250001,0,0,0.47250001,206.20481,696.28668)"><path
           d="M 0,0 C 29.576,0 53.552,-23.976 53.552,-53.552 53.552,-83.128 29.576,-107.104 0,-107.104"
           style="fill:#dd5a3c;fill-opacity:1;fill-rule:nonzero;stroke:none"
           id="path348" /></g><g
         id="g350"
         transform="matrix(0.47250001,0,0,0.47250001,206.20481,583.10261)"><path
           d="m 0,0 c -29.576,0 -53.552,23.977 -53.552,53.553 0,29.576 23.976,53.551 53.552,53.551 29.576,0 53.552,-23.975 53.552,-53.551 C 53.552,23.977 29.576,0 0,0"
           style="fill:#d8cd44;fill-opacity:1;fill-rule:nonzero;stroke:none"
           id="path352" /></g><g
         id="g354"
         transform="matrix(0.47250001,0,0,0.47250001,228.05723,844.29801)"><path
           d="m 0,0 v 53.462 l -46.299,26.731 -46.3,-26.731 V 0 l 46.3,-26.731 z"
           style="fill:#cc3232;fill-opacity:1;fill-rule:nonzero;stroke:none"
           id="path356" /></g><g
         id="g358"
         transform="matrix(0.47250001,0,0,0.47250001,839.29898,782.79339)"><path
           d="M 0,0 V 53.462 L -46.3,80.193 -92.6,53.462 V 0 l 46.3,-26.731 z"
           style="fill:#cc3232;fill-opacity:1;fill-rule:nonzero;stroke:none"
           id="path360" /></g><g
         id="g362"
         transform="matrix(0.47250001,0,0,0.47250001,594.49786,907.03505)"><path
           d="M 0,0 V 53.462 L -46.3,80.193 -92.6,53.462 V 0 l 46.3,-26.731 z"
           style="fill:#50258e;fill-opacity:1;fill-rule:nonzero;stroke:none"
           id="path364" /></g><g
         id="g366"
         transform="matrix(0.47250001,0,0,0.47250001,104.45444,594.96127)"><path
           d="M 0,0 V 53.462 L -46.3,80.193 -92.6,53.462 V 0 l 46.3,-26.731 z"
           style="fill:#50258e;fill-opacity:1;fill-rule:nonzero;stroke:none"
           id="path368" /></g><g
         id="g370"
         transform="matrix(0.47250001,0,0,0.47250001,144.2328,894.36199)"><path
           d="m 0,0 c -29.576,0 -53.552,23.976 -53.552,53.552 0,29.576 23.976,53.552 53.552,53.552 29.576,0 53.552,-23.976 53.552,-53.552 C 53.552,23.976 29.576,0 0,0"
           style="fill:#cc3232;fill-opacity:1;fill-rule:nonzero;stroke:none"
           id="path372" /></g><g
         id="g374"
         transform="matrix(0.47250001,0,0,0.47250001,118.92934,732.41124)"><path
           d="m 0,0 c 0,-29.575 23.976,-53.552 53.552,-53.552 29.576,0 53.552,23.977 53.552,53.552 v 132.139 c 0,29.576 -23.976,53.552 -53.552,53.552 C 23.976,185.691 0,161.715 0,132.139"
           style="fill:#d8cd44;fill-opacity:1;fill-rule:nonzero;stroke:none"
           id="path376" /></g><g
         id="g378"
         transform="matrix(0.47250001,0,0,0.47250001,144.2328,645.83993)"><path
           d="m 0,0 c -29.576,0 -53.552,23.976 -53.552,53.552 0,29.576 23.976,53.552 53.552,53.552 29.576,0 53.552,-23.976 53.552,-53.552 C 53.552,23.976 29.576,0 0,0"
           style="fill:#50258e;fill-opacity:1;fill-rule:nonzero;stroke:none"
           id="path380" /></g><g
         id="g382"
         transform="matrix(0.47250001,0,0,0.47250001,144.2328,583.26274)"><path
           d="m 0,0 c -29.576,0 -53.552,23.976 -53.552,53.552 0,29.576 23.976,53.552 53.552,53.552 29.576,0 53.552,-23.976 53.552,-53.552 C 53.552,23.976 29.576,0 0,0"
           style="fill:#dd5a3c;fill-opacity:1;fill-rule:nonzero;stroke:none"
           id="path384" /></g></g></g><g
     inkscape:groupmode="layer"
     id="layer1"
     inkscape:label="DBC_2_1930x1001"
     style="display:inline"><g
       id="g2213"
       transform="translate(0,-0.13325514)"><text
         xml:space="preserve"
         style="font-size:62.5502px;line-height:1.25;font-family:'Helvetica Now Text';-inkscape-font-specification:'Helvetica Now Text';letter-spacing:2.32403px;word-spacing:0px;fill:#ffffff;stroke-width:1.56375"
         x="444.55856"
         y="312.02469"
         id="text2454"><tspan
           sodipodi:role="line"
           id="tspan2452"
           style="font-style:normal;font-variant:normal;font-weight:bold;font-stretch:normal;font-family:'Open Sans';-inkscape-font-specification:'Open Sans Bold';fill:#ffffff;stroke-width:1.56375"
           x="444.55856"
           y="312.02469">I dati che</tspan></text><g
         id="g2203"
         transform="translate(1.6588031)"><text
           xml:space="preserve"
           style="font-size:53.8293px;line-height:1.25;font-family:'Helvetica Now Text';-inkscape-font-specification:'Helvetica Now Text';letter-spacing:0px;word-spacing:0px;fill:#d8cd44;fill-opacity:1;stroke-width:1.34573"
           x="448.51944"
           y="365.23962"
           id="text2454-1"><tspan
             sodipodi:role="line"
             id="tspan2452-9"
             style="font-style:normal;font-variant:normal;font-weight:bold;font-stretch:normal;font-family:'Open Sans';-inkscape-font-specification:'Open Sans Bold';fill:#d8cd44;fill-opacity:1;stroke-width:1.34573"
             x="448.51944"
             y="365.23962">Vorrei</tspan></text><text
           xml:space="preserve"
           style="font-size:20.465px;line-height:1.25;font-family:'Cascadia Code';-inkscape-font-specification:'Cascadia Code';letter-spacing:0px;word-spacing:0px;fill:#b3b3b3;stroke-width:0.495121"
           x="616.17969"
           y="339.89056"
           id="text1607"><tspan
             sodipodi:role="line"
             id="tspan1605"
             x="616.17969"
             y="339.89056"
             style="font-style:normal;font-variant:normal;font-weight:bold;font-stretch:normal;font-size:20.465px;font-family:'Open Sans';-inkscape-font-specification:'Open Sans Bold';fill:#b3b3b3;stroke-width:0.495121">#dati</tspan><tspan
             sodipodi:role="line"
             x="616.17969"
             y="365.56546"
             style="font-style:normal;font-variant:normal;font-weight:bold;font-stretch:normal;font-size:20.465px;font-family:'Open Sans';-inkscape-font-specification:'Open Sans Bold';fill:#b3b3b3;stroke-width:0.495121"
             id="tspan9123">benecomune</tspan></text></g></g></g></svg>
